<svg width="75" height="98" viewBox="0 0 75 98" fill="none" xmlns="http://www.w3.org/2000/svg">
<g clip-path="url(#clip0_1_11624)">
<path d="M52.2655 0H22.4012C10.0293 0 0 10.0265 0 22.3948V52.2507C0 64.619 10.0293 74.6455 22.4012 74.6455H52.2655C64.6373 74.6455 74.6667 64.619 74.6667 52.2507V22.3948C74.6667 10.0265 64.6373 0 52.2655 0Z" fill="url(#paint0_linear_1_11624)"/>
<path d="M9.69372 91.3463C10.6221 91.3206 11.5229 91.6635 12.199 92.3001C12.5256 92.6044 12.7837 92.9747 12.9563 93.3863C13.1289 93.7979 13.2119 94.2415 13.1999 94.6877C13.2068 95.1273 13.12 95.5634 12.9454 95.9669C12.7708 96.3705 12.5124 96.7323 12.1873 97.0284C11.4957 97.6654 10.5808 98.0039 9.64104 97.9705C9.19179 97.985 8.74421 97.9091 8.3249 97.7472C7.90559 97.5854 7.52311 97.3409 7.20016 97.0284C6.88317 96.7278 6.63248 96.3643 6.46415 95.9612C6.29582 95.5582 6.21355 95.1244 6.22262 94.6877C6.20924 94.2403 6.28986 93.7952 6.45924 93.3809C6.62862 92.9666 6.88301 92.5925 7.206 92.2826C7.5373 91.9686 7.92805 91.7241 8.35527 91.5633C8.78249 91.4025 9.23756 91.3287 9.69372 91.3463ZM9.73469 92.2299C9.39828 92.2179 9.06286 92.2734 8.74821 92.393C8.43356 92.5126 8.14603 92.6939 7.90256 92.9263C7.66662 93.1525 7.48068 93.4255 7.35667 93.7279C7.23267 94.0302 7.17338 94.3552 7.1826 94.6818C7.17338 95.0085 7.23267 95.3335 7.35667 95.6358C7.48068 95.9382 7.66662 96.2112 7.90256 96.4374C8.39571 96.8885 9.03993 97.1387 9.70836 97.1387C10.3768 97.1387 11.021 96.8885 11.5141 96.4374C11.7494 96.2104 11.9353 95.9373 12.0602 95.6353C12.1851 95.3332 12.2463 95.0086 12.24 94.6818C12.2484 94.3547 12.1882 94.0295 12.0632 93.7272C11.9382 93.4248 11.7511 93.1519 11.5141 92.9263C11.2792 92.6971 11.0007 92.5173 10.695 92.3977C10.3894 92.2781 10.0628 92.221 9.73469 92.2299Z" fill="black"/>
<path d="M20.926 91.4395H21.804V97.9233H21.0079L16.6705 92.9317V97.9233H15.7983V91.4395H16.5476L20.926 96.4778V91.4395Z" fill="black"/>
<path d="M26.9673 91.4277H32.3876V92.2587H30.1281V97.9232H29.1916V92.2587H26.9673V91.4277Z" fill="black"/>
<path d="M39.259 91.4395H40.1897V97.9233H39.259V95.1261H35.6123V97.9466H34.6875V91.4395H35.6123V94.2424H39.259V91.4395Z" fill="black"/>
<path d="M43.0346 91.4395H46.7165V92.2645H43.9419V94.2424H46.5994V95.0734H43.9419V97.0923H46.7809V97.9174H43.0112L43.0346 91.4395Z" fill="black"/>
<path d="M56.8193 94.7355H58.9967V97.4683C58.2487 97.8031 57.4398 97.9804 56.6202 97.9891C56.1497 98.0128 55.6792 97.9416 55.2367 97.7798C54.7942 97.6179 54.3889 97.3687 54.0447 97.047C53.7284 96.7465 53.4789 96.3827 53.3125 95.9794C53.1461 95.5761 53.0665 95.1424 53.0789 94.7063C53.0676 94.2559 53.1508 93.8081 53.3232 93.3918C53.4956 92.9756 53.7534 92.6001 54.0798 92.2895C54.4107 91.9697 54.8024 91.7194 55.2317 91.5535C55.661 91.3877 56.1192 91.3096 56.5793 91.3239C56.9301 91.32 57.28 91.3593 57.6212 91.441C58.0477 91.5518 58.4646 91.6966 58.868 91.874V92.822C58.173 92.3961 57.3767 92.1638 56.5617 92.149C56.2306 92.1443 55.9019 92.2058 55.5948 92.3298C55.2878 92.4538 55.0086 92.6378 54.7736 92.8711C54.5386 93.1044 54.3526 93.3822 54.2264 93.6883C54.1003 93.9943 54.0365 94.3226 54.0389 94.6536C54.0282 94.9884 54.0878 95.3218 54.2138 95.6322C54.3398 95.9427 54.5295 96.2233 54.7705 96.456C55.0207 96.6912 55.3151 96.8743 55.6366 96.9949C55.9582 97.1154 56.3005 97.1709 56.6437 97.1582C57.0995 97.1451 57.5502 97.0582 57.9782 96.9007H58.066V95.5489H56.8193V94.7355Z" fill="black"/>
<path d="M64.9383 91.3463C65.3983 91.3313 65.8567 91.4079 66.2868 91.5717C66.7169 91.7354 67.1102 91.983 67.4436 92.3001C67.7702 92.6044 68.0284 92.9747 68.2009 93.3863C68.3735 93.7979 68.4565 94.2415 68.4446 94.6877C68.4525 95.1269 68.3668 95.5628 68.1932 95.9664C68.0196 96.37 67.7621 96.732 67.4378 97.0284C66.7462 97.6654 65.8312 98.0039 64.8915 97.9705C64.4414 97.9848 63.993 97.9088 63.5728 97.747C63.1526 97.5852 62.769 97.3408 62.4448 97.0284C62.1278 96.7278 61.8771 96.3643 61.7088 95.9612C61.5404 95.5582 61.4582 95.1244 61.4672 94.6877C61.4539 94.2403 61.5345 93.7952 61.7039 93.3809C61.8733 92.9666 62.1276 92.5925 62.4506 92.2826C62.7819 91.9686 63.1727 91.7241 63.5999 91.5633C64.0271 91.4025 64.4822 91.3287 64.9383 91.3463ZM64.9793 92.2299C64.643 92.2186 64.3078 92.2743 63.9932 92.3939C63.6786 92.5135 63.391 92.6944 63.1472 92.9263C62.9113 93.1525 62.7253 93.4255 62.6013 93.7279C62.4773 94.0302 62.418 94.3552 62.4272 94.6818C62.418 95.0085 62.4773 95.3335 62.6013 95.6358C62.7253 95.9382 62.9113 96.2112 63.1472 96.4374C63.3864 96.6673 63.669 96.8473 63.9786 96.9668C64.2881 97.0864 64.6184 97.1431 64.9501 97.1337C65.2838 97.1444 65.6162 97.0871 65.9272 96.9654C66.2381 96.8436 66.521 96.66 66.7588 96.4256C66.9948 96.199 67.1816 95.9261 67.3075 95.6241C67.4334 95.322 67.4957 94.9973 67.4904 94.6701C67.4982 94.3426 67.437 94.0171 67.311 93.7147C67.1849 93.4123 66.9968 93.1397 66.7588 92.9146C66.5229 92.6875 66.244 92.5099 65.9383 92.3923C65.6327 92.2747 65.3066 92.2195 64.9793 92.2299Z" fill="black"/>
<path d="M37.5558 16.1689C37.5558 16.1689 29.9463 19.048 27.8859 25.801C27.8859 25.801 31.7199 29.4759 40.3187 22.7639C48.9174 16.0519 56.0644 15.4492 60.5423 17.6085C60.5423 17.6085 52.4704 8.41529 34.8808 10.6156C34.8808 10.6156 15.4122 13.3718 19.8081 29.236C19.8081 29.236 17.0512 28.2002 16.7292 22.5649C16.7292 22.5649 4.09748 43.6665 22.2081 58.6529C22.2081 58.6529 30.4439 67.1205 48.2735 63.4456C48.2735 63.4456 62.1813 60.0106 62.2223 52.4969V38.5872C62.2223 38.5872 62.0643 33.7126 57.4634 33.3966L42.2444 33.5136C42.2444 33.5136 38.2875 33.5546 40.3304 39.5878C40.3304 39.5878 42.3264 43.4675 45.1653 43.2627H51.2002V47.9442C51.2002 47.9442 51.4812 52.6607 44.9663 53.7433C38.4514 54.8259 35.8759 53.9306 33.2126 52.6607C29.8117 51.0456 25.6031 48.5645 24.0578 40.7114C22.5124 32.8583 24.368 19.247 37.5558 16.1689Z" fill="white"/>
</g>
<defs>
<linearGradient id="paint0_linear_1_11624" x1="3.53549" y1="71.111" x2="67.0333" y2="7.59518" gradientUnits="userSpaceOnUse">
<stop stop-color="#F37243"/>
<stop offset="0.13" stop-color="#F0556A"/>
<stop offset="0.28" stop-color="#D53C96"/>
<stop offset="0.45" stop-color="#8B4A9D"/>
<stop offset="0.54" stop-color="#6055A4"/>
<stop offset="0.7" stop-color="#6455A4"/>
<stop offset="0.91" stop-color="#00C1EE"/>
<stop offset="1" stop-color="#78CCC6"/>
</linearGradient>
<clipPath id="clip0_1_11624">
<rect width="74.6667" height="98" fill="white"/>
</clipPath>
</defs>
</svg>
