<svg width="16" height="16" viewBox="0 0 16 16" fill="none" xmlns="http://www.w3.org/2000/svg">
<path d="M8.00008 1.44141C5.20008 1.44141 2.66675 3.58807 2.66675 6.90807C2.66675 9.02807 4.30008 11.5214 7.56008 14.3947C7.81341 14.6147 8.19341 14.6147 8.44675 14.3947C11.7001 11.5214 13.3334 9.02807 13.3334 6.90807C13.3334 3.58807 10.8001 1.44141 8.00008 1.44141ZM8.00008 8.10807C7.26675 8.10807 6.66675 7.50807 6.66675 6.77474C6.66675 6.04141 7.26675 5.44141 8.00008 5.44141C8.73341 5.44141 9.33341 6.04141 9.33341 6.77474C9.33341 7.50807 8.73341 8.10807 8.00008 8.10807Z" fill="#4B92FF"/>
</svg>
