<svg width="30" height="30" viewBox="0 0 30 30" fill="none" xmlns="http://www.w3.org/2000/svg">
<rect x="1.5" y="1.5" width="27" height="27" rx="13.5" fill="#4B92FF"/>
<path d="M13.5184 21H16.4814C18.5621 21 19.6024 21 20.3498 20.5097C20.6733 20.2975 20.9511 20.0248 21.1672 19.7071C21.6666 18.9734 21.6666 17.9519 21.6666 15.9091C21.6666 13.8662 21.6666 12.8448 21.1672 12.1111C20.9511 11.7934 20.6733 11.5207 20.3498 11.3085C19.8696 10.9934 19.2684 10.8808 18.3479 10.8406C17.9087 10.8406 17.5305 10.5138 17.4444 10.0909C17.3152 9.45659 16.7479 9 16.089 9H13.9108C13.252 9 12.6847 9.45659 12.5555 10.0909C12.4693 10.5138 12.0912 10.8406 11.6519 10.8406C10.7315 10.8808 10.1303 10.9934 9.65008 11.3085C9.32655 11.5207 9.04877 11.7934 8.8326 12.1111C8.33325 12.8448 8.33325 13.8662 8.33325 15.9091C8.33325 17.9519 8.33325 18.9734 8.8326 19.7071C9.04877 20.0248 9.32655 20.2975 9.65008 20.5097C10.3974 21 11.4378 21 13.5184 21Z" fill="white"/>
<path fill-rule="evenodd" clip-rule="evenodd" d="M14.9999 14.2727C14.0794 14.2727 13.3333 15.0054 13.3333 15.9091C13.3333 16.8128 14.0794 17.5455 14.9999 17.5455C15.9204 17.5455 16.6666 16.8128 16.6666 15.9091C16.6666 15.0054 15.9204 14.2727 14.9999 14.2727ZM12.2221 15.9091C12.2221 14.4029 13.4658 13.1818 14.9999 13.1818C16.534 13.1818 17.7777 14.4029 17.7777 15.9091C17.7777 17.4153 16.534 18.6364 14.9999 18.6364C13.4658 18.6364 12.2221 17.4153 12.2221 15.9091Z" fill="#4B92FF"/>
<path fill-rule="evenodd" clip-rule="evenodd" d="M18.1481 13.7273C18.1481 13.426 18.3968 13.1818 18.7036 13.1818H19.4444C19.7512 13.1818 19.9999 13.426 19.9999 13.7273C19.9999 14.0285 19.7512 14.2727 19.4444 14.2727H18.7036C18.3968 14.2727 18.1481 14.0285 18.1481 13.7273Z" fill="#4B92FF"/>
<rect x="1.5" y="1.5" width="27" height="27" rx="13.5" stroke="white" stroke-width="3"/>
</svg>
