<svg width="20" height="20" viewBox="0 0 20 20" fill="none" xmlns="http://www.w3.org/2000/svg">
<path fill-rule="evenodd" clip-rule="evenodd" d="M2.70825 18.332C2.70825 17.9869 2.98807 17.707 3.33325 17.707H16.6666C17.0118 17.707 17.2916 17.9869 17.2916 18.332C17.2916 18.6772 17.0118 18.957 16.6666 18.957H3.33325C2.98807 18.957 2.70825 18.6772 2.70825 18.332Z" fill="#4B92FF"/>
<path d="M8.8107 13.1847C9.02282 13.0193 9.21523 12.8268 9.59999 12.4421L14.5306 7.51151C13.8595 7.23222 13.0647 6.77344 12.313 6.02176C11.5612 5.26996 11.1024 4.47502 10.8231 3.8039L5.89247 8.73457L5.89244 8.73459C5.50769 9.11934 5.3153 9.31174 5.14985 9.52386C4.95468 9.77409 4.78734 10.0448 4.65081 10.3313C4.53507 10.5742 4.44904 10.8323 4.27696 11.3485L3.36955 14.0707C3.28487 14.3248 3.35099 14.6049 3.54034 14.7942C3.72969 14.9836 4.00977 15.0497 4.26381 14.965L6.98604 14.0576C7.50226 13.8855 7.76038 13.7995 8.00324 13.6837C8.28971 13.5472 8.56046 13.3799 8.8107 13.1847Z" fill="#4B92FF"/>
<path d="M15.8987 6.14334C16.9225 5.11954 16.9225 3.45962 15.8987 2.43582C14.8749 1.41202 13.215 1.41202 12.1912 2.43582L11.5999 3.02718C11.608 3.05163 11.6164 3.07642 11.6251 3.10154C11.8418 3.7263 12.2508 4.54531 13.0201 5.31465C13.7895 6.08399 14.6085 6.49296 15.2332 6.70971C15.2582 6.71839 15.2829 6.72675 15.3073 6.73481L15.8987 6.14334Z" fill="#4B92FF"/>
</svg>
