<svg width="24" height="24" viewBox="0 0 24 24" fill="none" xmlns="http://www.w3.org/2000/svg">
<path fill-rule="evenodd" clip-rule="evenodd" d="M5.62436 4.42508C3.96537 5.18341 2.75 6.98712 2.75 9.13799C2.75 11.3354 3.64922 13.0291 4.93829 14.4807C6.00072 15.677 7.28684 16.6685 8.54113 17.6355C8.83904 17.8652 9.13515 18.0935 9.42605 18.3228C9.95208 18.7375 10.4213 19.1014 10.8736 19.3657C11.3261 19.6301 11.6904 19.7509 12 19.7509C12.3096 19.7509 12.6739 19.6301 13.1264 19.3657C13.5787 19.1014 14.0479 18.7375 14.574 18.3228C14.8649 18.0935 15.161 17.8652 15.4589 17.6355C16.7132 16.6685 17.9993 15.677 19.0617 14.4807C20.3508 13.0291 21.25 11.3354 21.25 9.13799C21.25 6.98712 20.0346 5.18341 18.3756 4.42508C16.9023 3.75163 14.9662 3.85683 13.0725 5.51315L14.5302 6.97037C14.8232 7.26321 14.8233 7.73809 14.5304 8.03103C14.2376 8.32398 13.7627 8.32406 13.4698 8.03122L11.4698 6.03195L11.4596 6.02162C9.40166 3.88346 7.23607 3.68836 5.62436 4.42508ZM12 4.4597C9.68795 2.39113 7.09896 2.10176 5.00076 3.06085C2.78471 4.07381 1.25 6.42592 1.25 9.13799C1.25 11.8035 2.3605 13.8369 3.81672 15.4767C4.98287 16.7898 6.41022 17.8888 7.67083 18.8595C7.95659 19.0795 8.23378 19.2929 8.49742 19.5008C9.00965 19.9046 9.55954 20.3352 10.1168 20.6608C10.6739 20.9863 11.3096 21.2509 12 21.2509C12.6904 21.2509 13.3261 20.9863 13.8832 20.6608C14.4405 20.3352 14.9903 19.9046 15.5026 19.5008C15.7662 19.2929 16.0434 19.0795 16.3292 18.8595C17.5898 17.8888 19.0171 16.7898 20.1833 15.4767C21.6395 13.8369 22.75 11.8035 22.75 9.13799C22.75 6.42592 21.2153 4.07381 18.9992 3.06085C16.901 2.10176 14.3121 2.39113 12 4.4597Z" fill="#6B7280"/>
</svg>
