<svg width="24" height="24" viewBox="0 0 24 24" fill="none" xmlns="http://www.w3.org/2000/svg">
<path fill-rule="evenodd" clip-rule="evenodd" d="M11.9492 1.5H12.0508H12.0508C12.9284 1.49997 13.6602 1.49995 14.2411 1.57806C14.8543 1.6605 15.4079 1.84185 15.8528 2.28673C16.2977 2.73161 16.479 3.28522 16.5615 3.89842C16.6192 4.3278 16.6343 4.83958 16.6382 5.43171C17.2716 5.45205 17.8363 5.48908 18.3381 5.55655C19.4833 5.71052 20.4102 6.03491 21.1411 6.76587C21.8721 7.49683 22.1965 8.42371 22.3504 9.56886C22.5 10.6816 22.5 12.1033 22.5 13.8983V13.8984V14.0086V14.0086C22.5 15.8036 22.5 17.2254 22.3504 18.3381C22.1965 19.4833 21.8721 20.4102 21.1411 21.1411C20.4102 21.8721 19.4833 22.1965 18.3381 22.3504C17.2254 22.5 15.8036 22.5 14.0086 22.5H14.0086H9.99141H9.99137C8.19637 22.5 6.7746 22.5 5.66189 22.3504C4.51673 22.1965 3.58985 21.8721 2.85889 21.1411C2.12793 20.4102 1.80354 19.4833 1.64957 18.3381C1.49997 17.2254 1.49999 15.8036 1.5 14.0086V14.0086V13.8984V13.8984C1.49999 12.1034 1.49997 10.6816 1.64957 9.56886C1.80354 8.42371 2.12793 7.49683 2.85889 6.76587C3.58985 6.03491 4.51673 5.71052 5.66189 5.55655C6.16371 5.48908 6.7284 5.45205 7.36183 5.43171C7.36574 4.83958 7.38079 4.3278 7.43852 3.89842C7.52096 3.28522 7.70231 2.73161 8.14719 2.28673C8.59207 1.84185 9.14569 1.6605 9.75888 1.57806C10.3398 1.49995 11.0716 1.49997 11.9492 1.5H11.9492ZM8.82734 5.40871C9.19664 5.40697 9.58437 5.40698 9.99129 5.40698H9.9914H14.0086H14.0087C14.4156 5.40698 14.8034 5.40697 15.1727 5.40871C15.1685 4.85166 15.1548 4.43146 15.1094 4.09364C15.0488 3.64291 14.9441 3.45001 14.8168 3.32272C14.6895 3.19544 14.4966 3.09071 14.0459 3.03011C13.5741 2.96668 12.9416 2.96512 12 2.96512C11.0584 2.96512 10.4259 2.96668 9.9541 3.03011C9.50337 3.09071 9.31047 3.19544 9.18318 3.32272C9.0559 3.45001 8.95117 3.64291 8.89057 4.09364C8.84515 4.43146 8.83146 4.85166 8.82734 5.40871ZM3.89488 7.80186C4.24153 7.45522 4.69563 7.22502 5.4127 7.08183V20.8252C4.69563 20.682 4.24153 20.4518 3.89488 20.1051C3.48152 19.6918 3.23375 19.1256 3.10163 18.1429C2.96667 17.1391 2.96512 15.816 2.96512 13.9535C2.96512 12.091 2.96667 10.7679 3.10163 9.76409C3.23375 8.7814 3.48152 8.21523 3.89488 7.80186ZM10.0465 21.0349C8.7556 21.0349 7.72377 21.0341 6.87782 20.9887V6.91824C7.72377 6.87284 8.7556 6.8721 10.0465 6.8721H13.9535C15.2474 6.8721 16.2811 6.87285 17.1281 6.91856V20.9884C16.2811 21.0341 15.2474 21.0349 13.9535 21.0349H10.0465ZM18.5933 20.824C19.3069 20.6807 19.7594 20.4508 20.1051 20.1051C20.5185 19.6918 20.7663 19.1256 20.8984 18.1429C21.0333 17.1391 21.0349 15.816 21.0349 13.9535C21.0349 12.091 21.0333 10.7679 20.8984 9.76409C20.7663 8.7814 20.5185 8.21523 20.1051 7.80186C19.7594 7.45618 19.3069 7.2263 18.5933 7.08302V20.824Z" fill="#6B7280"/>
</svg>
