<svg width="61" height="60" viewBox="0 0 61 60" fill="none" xmlns="http://www.w3.org/2000/svg">
<path d="M15.2279 6.52831C26.7563 6.52831 34.6729 0.556641 40.2279 0.556641C45.7829 0.556641 57.4496 3.74997 57.4496 29.305C57.4496 54.86 41.7546 58.61 35.6446 58.61C7.03294 58.6116 -5.18873 6.52831 15.2279 6.52831Z" fill="#FFF9F4"/>
<path d="M54.4033 15.417C53.025 15.417 51.9033 14.2953 51.9033 12.917C51.9033 11.5387 53.025 10.417 54.4033 10.417C55.7817 10.417 56.9033 11.5387 56.9033 12.917C56.9033 14.2953 55.7817 15.417 54.4033 15.417ZM54.4033 12.0837C53.945 12.0837 53.57 12.457 53.57 12.917C53.57 13.377 53.945 13.7503 54.4033 13.7503C54.8617 13.7503 55.2367 13.377 55.2367 12.917C55.2367 12.457 54.8617 12.0837 54.4033 12.0837Z" fill="#A4AFC1"/>
<path d="M34.6667 12.917H35.9167C37.75 12.917 39.25 14.417 39.25 16.2503V42.0837C39.25 43.917 37.75 45.417 35.9167 45.417H25.0833H25.9167H15.0833C13.25 45.417 11.75 43.917 11.75 42.0837V16.2503C11.75 14.417 13.25 12.917 15.0833 12.917H16.3333H34.6667Z" fill="#FFF9F4"/>
<path d="M34.25 12.9167C34.25 13.4 34.05 13.8333 33.7333 14.1333L25.6167 22.5667L17.2333 14.0833C16.9333 13.7833 16.75 13.3667 16.75 12.9167C16.75 12 17.5 11.25 18.4167 11.25H32.5833C33.5 11.25 34.25 12 34.25 12.9167Z" fill="#F68B1F"/>
<path d="M39.6662 48.7497C43.5546 44.028 43.5546 39.3047 39.6662 34.583C35.7779 39.3047 35.7779 44.028 39.6662 48.7497Z" fill="#F68B1F"/>
<path d="M39.618 48.7505C33.628 48.1838 30.4497 45.0838 30.083 38.6338C32.7497 38.8005 34.9063 39.5005 36.5197 40.7671L39.618 48.7505Z" fill="#F68B1F"/>
<path d="M39.7148 48.7505C45.7048 48.1838 48.8832 45.0838 49.2498 38.6338C46.5832 38.8005 44.4265 39.5005 42.8132 40.7671L39.7148 48.7505Z" fill="#F68B1F"/>
<path d="M18.8333 45.417H15.0833C13.25 45.417 11.75 43.917 11.75 42.0837V16.2503C11.75 14.417 13.25 12.917 15.0833 12.917H18.8333C17 12.917 15.5 14.417 15.5 16.2503V42.0837C15.5 43.917 17 45.417 18.8333 45.417Z" fill="#D5DBE1"/>
<path d="M39.6163 48.7505C33.633 48.1838 30.4497 45.0838 30.083 38.6338C31.1497 38.7005 32.133 38.8505 33.033 39.1005C33.433 44.0171 35.5497 46.9005 39.383 48.1338L39.6163 48.7505Z" fill="#FBD1A5"/>
<path d="M20.9833 14.0833C20.6833 13.7833 20.5 13.3667 20.5 12.9167C20.5 12 21.25 11.25 22.1667 11.25H18.4167C17.5 11.25 16.75 12 16.75 12.9167C16.75 13.3667 16.9333 13.7833 17.2333 14.0833L25.7167 22.4833L27.545 20.58L20.9833 14.0833Z" fill="#FBD1A5"/>
<path d="M25.9167 46.667H15.0833C12.555 46.667 10.5 44.612 10.5 42.0837V16.2503C10.5 13.722 12.555 11.667 15.0833 11.667H16.3333V14.167H15.0833C13.935 14.167 13 15.102 13 16.2503V42.0837C13 43.232 13.935 44.167 15.0833 44.167H25.9167V46.667Z" fill="black"/>
<path d="M40.5003 28.7503H38.0003V16.2503C38.0003 15.102 37.0653 14.167 35.917 14.167H34.667V11.667H35.917C38.4453 11.667 40.5003 13.722 40.5003 16.2503V28.7503Z" fill="black"/>
<path d="M12.583 30.833H34.2497V33.333H12.583V30.833Z" fill="black"/>
<path d="M19.7784 37.6021L18.5901 34.9904L17.7667 36.1454L15.7334 34.6904L17.8167 31.7738C18.0767 31.4104 18.5134 31.2188 18.9551 31.2554C19.4001 31.2988 19.7884 31.5754 19.9717 31.9821L22.0551 36.5654L19.7784 37.6021Z" fill="black"/>
<path d="M29.6667 31.6667H27.1667V26.785C27.1667 26.2333 26.9533 25.7133 26.5667 25.3233L16.34 14.965C15.7983 14.4133 15.5 13.6867 15.5 12.9167C15.5 11.3083 16.8083 10 18.4167 10H32.5833C34.1917 10 35.5 11.3083 35.5 12.9167C35.5 13.7167 35.1667 14.4917 34.5833 15.04L27.3633 22.5717L28.345 23.565C29.1967 24.4267 29.6667 25.57 29.6667 26.785V31.6667ZM18.4167 12.5C18.1867 12.5 18 12.6867 18 12.9167C18 13.065 18.0767 13.165 18.12 13.2117L25.605 20.7917L32.8233 13.265C32.9183 13.1733 33 13.0733 33 12.9167C33 12.6867 32.8133 12.5 32.5833 12.5H18.4167Z" fill="black"/>
<path d="M39.667 50.0002C39.292 50.0002 38.9387 49.8335 38.702 49.5452C34.4587 44.3919 34.4587 38.9435 38.702 33.7902C39.177 33.2119 40.157 33.2119 40.632 33.7902C44.8754 38.9435 44.8754 44.3919 40.632 49.5452C40.3954 49.8335 40.042 50.0002 39.667 50.0002ZM39.667 36.6802C37.4704 40.0235 37.4704 43.3085 39.667 46.6519C41.8637 43.3085 41.8637 40.0252 39.667 36.6802Z" fill="black"/>
<path d="M39.5016 49.9954C32.7216 49.3537 29.2316 45.6604 28.835 38.7054C28.815 38.3487 28.9483 38.0004 29.2016 37.7487C29.455 37.4971 29.8033 37.3604 30.1616 37.3871C33.1 37.5704 35.4983 38.3771 37.2916 39.7838L35.7483 41.7504C34.655 40.8921 33.22 40.3187 31.4766 40.0421C32.1516 44.7137 34.7483 47.0354 39.7366 47.5071L39.5016 49.9954Z" fill="black"/>
<path d="M39.8317 49.9954L39.5967 47.5071C44.585 47.0354 47.1817 44.7138 47.8567 40.0421C46.1117 40.3204 44.6783 40.8921 43.585 41.7504L42.0417 39.7838C43.835 38.3754 46.235 37.5688 49.1717 37.3871C49.5183 37.3604 49.8767 37.4954 50.1317 37.7488C50.3833 38.0004 50.5167 38.3488 50.4983 38.7054C50.1017 45.6604 46.6117 49.3538 39.8317 49.9954Z" fill="black"/>
</svg>
