<svg width="18" height="18" viewBox="0 0 18 18" fill="none" xmlns="http://www.w3.org/2000/svg">
<path fill-rule="evenodd" clip-rule="evenodd" d="M8.20769 2.4375H9.79231C11.1706 2.43749 12.2624 2.43748 13.1168 2.55235C13.9961 2.67057 14.7078 2.91966 15.2691 3.48093C15.8303 4.0422 16.0794 4.75392 16.1976 5.63323C16.3112 6.47756 16.3125 7.55363 16.3125 8.90901C16.5704 9.1218 16.7752 9.39614 16.9055 9.71072C16.9957 9.92851 17.0307 10.1532 17.0469 10.391C17.0625 10.6194 17.0625 10.8977 17.0625 11.2311V11.2689C17.0625 11.6023 17.0625 11.8806 17.0469 12.109C17.0307 12.3468 16.9957 12.5715 16.9055 12.7893C16.6962 13.2947 16.2947 13.6962 15.7893 13.9055C15.5715 13.9957 15.3468 14.0307 15.109 14.0469C15.0182 14.0531 14.9194 14.0569 14.8125 14.0591V15C14.8125 15.3107 14.5607 15.5625 14.25 15.5625C13.9393 15.5625 13.6875 15.3107 13.6875 15V14.0625H4.3125V15C4.3125 15.3107 4.06066 15.5625 3.75 15.5625C3.43934 15.5625 3.1875 15.3107 3.1875 15V14.0591C3.08056 14.0569 2.98183 14.0531 2.89098 14.0469C2.65315 14.0307 2.42851 13.9957 2.21072 13.9055C1.70535 13.6962 1.30383 13.2947 1.0945 12.7893C1.00429 12.5715 0.969304 12.3468 0.953078 12.109C0.93749 11.8806 0.937495 11.6023 0.9375 11.2689V11.2311C0.937495 10.8977 0.93749 10.6194 0.953078 10.391C0.969304 10.1532 1.00429 9.92851 1.0945 9.71072C1.2248 9.39614 1.42957 9.1218 1.6875 8.90901C1.6875 7.55363 1.68883 6.47756 1.80235 5.63323C1.92057 4.75392 2.16966 4.04221 2.73093 3.48093C3.2922 2.91966 4.00392 2.67057 4.88323 2.55235C5.73764 2.43748 6.82937 2.43749 8.20769 2.4375ZM2.81279 8.45918C2.8387 8.45688 2.86476 8.45487 2.89098 8.45308C3.0798 8.44019 3.30265 8.43796 3.5625 8.43758L3.5625 7.836C3.56248 7.16214 3.56246 6.60023 3.62243 6.15414C3.68574 5.6833 3.82499 5.2582 4.16659 4.91659C4.50819 4.57499 4.9333 4.43574 5.40414 4.37243C5.85023 4.31246 6.41214 4.31248 7.086 4.3125H10.914C11.5879 4.31248 12.1498 4.31246 12.5959 4.37243C13.0667 4.43574 13.4918 4.57499 13.8334 4.91659C14.175 5.25819 14.3143 5.6833 14.3776 6.15414C14.4375 6.60023 14.4375 7.16214 14.4375 7.83601V8.43758C14.6973 8.43796 14.9202 8.44019 15.109 8.45308C15.1352 8.45487 15.1613 8.45688 15.1872 8.45918C15.1854 7.30804 15.1727 6.45297 15.0827 5.78314C14.9812 5.02857 14.791 4.59384 14.4736 4.27643C14.1562 3.95902 13.7214 3.76877 12.9669 3.66732C12.1961 3.5637 11.1801 3.5625 9.75 3.5625H8.25C6.81989 3.5625 5.80388 3.5637 5.03314 3.66732C4.27857 3.76877 3.84383 3.95902 3.52643 4.27643C3.20902 4.59384 3.01877 5.02857 2.91732 5.78314C2.82726 6.45297 2.81457 7.30804 2.81279 8.45918ZM13.3125 8.4375V7.875C13.3125 7.15199 13.3113 6.66632 13.2626 6.30404C13.2161 5.95795 13.1357 5.80983 13.0379 5.71209C12.9402 5.61435 12.7921 5.53393 12.446 5.4874C12.0837 5.4387 11.598 5.4375 10.875 5.4375H9.5625V8.4375H13.3125ZM8.4375 8.4375V5.4375H7.125C6.40199 5.4375 5.91632 5.4387 5.55404 5.4874C5.20795 5.53393 5.05982 5.61435 4.96209 5.71209C4.86435 5.80983 4.78393 5.95795 4.7374 6.30404C4.68869 6.66632 4.6875 7.15199 4.6875 7.875V8.4375H8.4375ZM2.96756 9.57547C2.78701 9.58779 2.6991 9.60989 2.64123 9.63386C2.41152 9.72901 2.22901 9.91152 2.13386 10.1412C2.10989 10.1991 2.08779 10.287 2.07547 10.4676C2.0628 10.6532 2.0625 10.8928 2.0625 11.25C2.0625 11.6072 2.0628 11.8468 2.07547 12.0324C2.08779 12.213 2.10989 12.3009 2.13386 12.3588C2.22901 12.5885 2.41152 12.771 2.64123 12.8661C2.6991 12.8901 2.78701 12.9122 2.96756 12.9245C3.15315 12.9372 3.39285 12.9375 3.75 12.9375H14.25C14.6072 12.9375 14.8468 12.9372 15.0324 12.9245C15.213 12.9122 15.3009 12.8901 15.3588 12.8661C15.5885 12.771 15.771 12.5885 15.8661 12.3588C15.8901 12.3009 15.9122 12.213 15.9245 12.0324C15.9372 11.8468 15.9375 11.6072 15.9375 11.25C15.9375 10.8928 15.9372 10.6532 15.9245 10.4676C15.9122 10.287 15.8901 10.1991 15.8661 10.1412C15.771 9.91152 15.5885 9.72901 15.3588 9.63386C15.3009 9.60989 15.213 9.58779 15.0324 9.57547C14.8468 9.56281 14.6072 9.5625 14.25 9.5625H3.75C3.39285 9.5625 3.15315 9.56281 2.96756 9.57547Z" fill="#F68B1F"/>
</svg>
