<svg width="32" height="32" viewBox="0 0 32 32" fill="none" xmlns="http://www.w3.org/2000/svg">
<path d="M23.4135 27.9999C23.2003 28.0008 22.9899 27.9505 22.8002 27.8533L16.0002 24.2933L9.20017 27.8533C8.97936 27.9694 8.73041 28.0212 8.48161 28.0029C8.23281 27.9845 7.99414 27.8968 7.79274 27.7495C7.59134 27.6023 7.43529 27.4015 7.34232 27.17C7.24936 26.9385 7.2232 26.6856 7.26684 26.4399L8.60017 18.9333L3.10684 13.5999C2.93545 13.4289 2.81387 13.2144 2.75514 12.9795C2.69642 12.7446 2.70277 12.4982 2.77351 12.2666C2.85078 12.0296 2.99294 11.8191 3.18384 11.6588C3.37474 11.4986 3.60674 11.395 3.85351 11.3599L11.4535 10.2533L14.8002 3.41328C14.9094 3.18785 15.0798 2.99774 15.2921 2.86471C15.5043 2.73169 15.7497 2.66113 16.0002 2.66113C16.2506 2.66113 16.4961 2.73169 16.7083 2.86471C16.9205 2.99774 17.091 3.18785 17.2002 3.41328L20.5868 10.2399L28.1868 11.3466C28.4336 11.3817 28.6656 11.4852 28.8565 11.6455C29.0474 11.8058 29.1896 12.0163 29.2668 12.2533C29.3376 12.4848 29.3439 12.7313 29.2852 12.9662C29.2265 13.2011 29.1049 13.4156 28.9335 13.5866L23.4402 18.9199L24.7735 26.4266C24.8211 26.6766 24.7962 26.935 24.7017 27.1712C24.6072 27.4075 24.447 27.6118 24.2402 27.7599C23.9987 27.9291 23.708 28.0135 23.4135 27.9999Z" fill="#FFC042"/>
</svg>
