<svg width="24" height="24" viewBox="0 0 24 24" fill="none" xmlns="http://www.w3.org/2000/svg">
<path fill-rule="evenodd" clip-rule="evenodd" d="M10.3915 5.05092C11.3376 4.31506 12.6624 4.31506 13.6085 5.05092L18.4885 8.84648C19.1267 9.34285 19.5 10.1061 19.5 10.9146V16.88C19.5 18.327 18.327 19.5 16.88 19.5H7.12C5.67301 19.5 4.5 18.327 4.5 16.88V10.9146C4.5 10.1061 4.87328 9.34285 5.51147 8.84648L10.3915 5.05092ZM12 16.5C11.3704 16.5 10.7547 16.3137 10.2309 15.9645C9.70714 15.6153 9.29862 15.1188 9.05732 14.5376C8.8985 14.155 9.07988 13.7161 9.46243 13.5573C9.84499 13.3985 10.2839 13.5799 10.4427 13.9624C10.57 14.2692 10.7858 14.5317 11.063 14.7165C11.3402 14.9013 11.6663 15 12 15C12.3337 15 12.6598 14.9013 12.937 14.7165C13.2142 14.5317 13.43 14.2692 13.5573 13.9624C13.7161 13.5799 14.155 13.3985 14.5376 13.5573C14.9201 13.7161 15.1015 14.155 14.9427 14.5376C14.7014 15.1188 14.2929 15.6153 13.7691 15.9645C13.2453 16.3137 12.6296 16.5 12 16.5Z" fill="#F68B1F"/>
</svg>
