<svg width="16" height="16" viewBox="0 0 16 16" fill="none" xmlns="http://www.w3.org/2000/svg">
<path fill-rule="evenodd" clip-rule="evenodd" d="M13.9418 3.92558C14.1665 4.26188 14.1665 4.73003 14.1665 5.66634V14.1663H14.4998C14.776 14.1663 14.9998 14.3902 14.9998 14.6663C14.9998 14.9425 14.776 15.1663 14.4998 15.1663H1.1665C0.890362 15.1663 0.666504 14.9425 0.666504 14.6663C0.666504 14.3902 0.890362 14.1663 1.1665 14.1663H1.49984V5.66634C1.49984 4.73003 1.49984 4.26188 1.72454 3.92558C1.82182 3.77999 1.94682 3.65499 2.09241 3.55771C2.38656 3.36117 2.78158 3.33654 3.50252 3.33345C3.49978 3.52771 3.49981 3.73071 3.49983 3.94001L3.49984 3.99967V4.83301H2.83317C2.55703 4.83301 2.33317 5.05687 2.33317 5.33301C2.33317 5.60915 2.55703 5.83301 2.83317 5.83301H3.49984V6.83301H2.83317C2.55703 6.83301 2.33317 7.05687 2.33317 7.33301C2.33317 7.60915 2.55703 7.83301 2.83317 7.83301H3.49984V8.83301H2.83317C2.55703 8.83301 2.33317 9.05687 2.33317 9.33301C2.33317 9.60915 2.55703 9.83301 2.83317 9.83301H3.49984V14.1663H4.49984V3.99967C4.49984 2.7426 4.49984 2.11406 4.89036 1.72353C5.28089 1.33301 5.90942 1.33301 7.1665 1.33301H8.49984C9.75692 1.33301 10.3855 1.33301 10.776 1.72353C11.1665 2.11406 11.1665 2.7426 11.1665 3.99967V14.1663H12.1665V9.83301H12.8332C13.1093 9.83301 13.3332 9.60915 13.3332 9.33301C13.3332 9.05687 13.1093 8.83301 12.8332 8.83301H12.1665V7.83301H12.8332C13.1093 7.83301 13.3332 7.60915 13.3332 7.33301C13.3332 7.05687 13.1093 6.83301 12.8332 6.83301H12.1665V5.83301H12.8332C13.1093 5.83301 13.3332 5.60915 13.3332 5.33301C13.3332 5.05687 13.1093 4.83301 12.8332 4.83301H12.1665V3.99967L12.1665 3.94002C12.1665 3.73071 12.1666 3.52771 12.1638 3.33345C12.8848 3.33654 13.2798 3.36117 13.5739 3.55771C13.7195 3.65499 13.8445 3.77999 13.9418 3.92558ZM8.33317 12.6663C8.33317 12.3902 8.10931 12.1663 7.83317 12.1663C7.55703 12.1663 7.33317 12.3902 7.33317 12.6663V14.1663H8.33317V12.6663ZM5.99984 9.99967C5.99984 9.72353 6.22369 9.49967 6.49984 9.49967H9.1665C9.44265 9.49967 9.6665 9.72353 9.6665 9.99967C9.6665 10.2758 9.44265 10.4997 9.1665 10.4997H6.49984C6.22369 10.4997 5.99984 10.2758 5.99984 9.99967ZM6.49984 7.49967C6.22369 7.49967 5.99984 7.72353 5.99984 7.99967C5.99984 8.27582 6.22369 8.49967 6.49984 8.49967H9.1665C9.44265 8.49967 9.6665 8.27582 9.6665 7.99967C9.6665 7.72353 9.44265 7.49967 9.1665 7.49967H6.49984ZM6.1665 4.66634C6.1665 3.65382 6.98731 2.83301 7.99984 2.83301C9.01236 2.83301 9.83317 3.65382 9.83317 4.66634C9.83317 5.67886 9.01236 6.49967 7.99984 6.49967C6.98731 6.49967 6.1665 5.67886 6.1665 4.66634ZM7.1665 4.66634C7.1665 4.2061 7.5396 3.83301 7.99984 3.83301C8.46007 3.83301 8.83317 4.2061 8.83317 4.66634C8.83317 5.12658 8.46007 5.49967 7.99984 5.49967C7.5396 5.49967 7.1665 5.12658 7.1665 4.66634Z" fill="#4B92FF"/>
</svg>
