<svg width="16" height="16" viewBox="0 0 16 16" fill="none" xmlns="http://www.w3.org/2000/svg">
<path fill-rule="evenodd" clip-rule="evenodd" d="M7.6665 2.00008C4.53689 2.00008 1.99984 4.53713 1.99984 7.66675C1.99984 10.7964 4.53689 13.3334 7.6665 13.3334C10.7961 13.3334 13.3332 10.7964 13.3332 7.66675C13.3332 4.53713 10.7961 2.00008 7.6665 2.00008ZM0.666504 7.66675C0.666504 3.80076 3.80051 0.666748 7.6665 0.666748C11.5325 0.666748 14.6665 3.80076 14.6665 7.66675C14.6665 11.5327 11.5325 14.6667 7.6665 14.6667C3.80051 14.6667 0.666504 11.5327 0.666504 7.66675Z" fill="#000929"/>
<path fill-rule="evenodd" clip-rule="evenodd" d="M12.8618 12.862C13.1221 12.6017 13.5442 12.6017 13.8046 12.862L15.1379 14.1953C15.3983 14.4557 15.3983 14.8778 15.1379 15.1382C14.8776 15.3985 14.4554 15.3985 14.1951 15.1382L12.8618 13.8048C12.6014 13.5445 12.6014 13.1224 12.8618 12.862Z" fill="#000929"/>
</svg>
