<svg width="112" height="104" viewBox="0 0 112 104" fill="none" xmlns="http://www.w3.org/2000/svg">
<rect x="8" width="8" height="8" rx="4" fill="#3865F3" fill-opacity="0.15"/>
<rect x="32" width="8" height="8" rx="4" fill="#3865F3" fill-opacity="0.15"/>
<rect x="56" width="8" height="8" rx="4" fill="#3865F3" fill-opacity="0.15"/>
<rect x="80" width="8" height="8" rx="4" fill="#3865F3" fill-opacity="0.15"/>
<rect x="104" width="8" height="8" rx="4" fill="#3865F3" fill-opacity="0.15"/>
<rect x="8" y="24" width="8" height="8" rx="4" fill="#3865F3" fill-opacity="0.15"/>
<rect x="32" y="24" width="8" height="8" rx="4" fill="#3865F3" fill-opacity="0.15"/>
<rect x="56" y="24" width="8" height="8" rx="4" fill="#3865F3" fill-opacity="0.15"/>
<rect x="80" y="24" width="8" height="8" rx="4" fill="#3865F3" fill-opacity="0.15"/>
<rect x="104" y="24" width="8" height="8" rx="4" fill="#3865F3" fill-opacity="0.15"/>
<rect x="8" y="48" width="8" height="8" rx="4" fill="#3865F3" fill-opacity="0.15"/>
<rect x="32" y="48" width="8" height="8" rx="4" fill="#3865F3" fill-opacity="0.15"/>
<rect x="56" y="48" width="8" height="8" rx="4" fill="#3865F3" fill-opacity="0.15"/>
<rect x="80" y="48" width="8" height="8" rx="4" fill="#3865F3" fill-opacity="0.15"/>
<rect x="104" y="48" width="8" height="8" rx="4" fill="#3865F3" fill-opacity="0.15"/>
<rect x="8" y="72" width="8" height="8" rx="4" fill="#3865F3" fill-opacity="0.15"/>
<rect x="32" y="72" width="8" height="8" rx="4" fill="#3865F3" fill-opacity="0.15"/>
<rect x="56" y="72" width="8" height="8" rx="4" fill="#3865F3" fill-opacity="0.15"/>
<rect x="80" y="72" width="8" height="8" rx="4" fill="#3865F3" fill-opacity="0.15"/>
<rect x="104" y="72" width="8" height="8" rx="4" fill="#3865F3" fill-opacity="0.15"/>
<rect x="8" y="96" width="8" height="8" rx="4" fill="#3865F3" fill-opacity="0.15"/>
<rect x="32" y="96" width="8" height="8" rx="4" fill="#3865F3" fill-opacity="0.15"/>
<rect x="56" y="96" width="8" height="8" rx="4" fill="#3865F3" fill-opacity="0.15"/>
<rect x="80" y="96" width="8" height="8" rx="4" fill="#3865F3" fill-opacity="0.15"/>
<rect x="104" y="96" width="8" height="8" rx="4" fill="#3865F3" fill-opacity="0.15"/>
</svg>
