<svg width="60" height="60" viewBox="0 0 60 60" fill="none" xmlns="http://www.w3.org/2000/svg">
<path d="M45.6953 6.52329C34.1703 6.73829 26.1419 0.914958 20.5886 1.01996C15.0353 1.12496 3.42859 4.53496 3.90692 30.0866C4.38525 55.6383 20.1469 59.0933 26.2569 58.98C54.8619 58.445 66.1086 6.14162 45.6953 6.52329Z" fill="#FFF9F4"/>
<path d="M14.4248 20.2695L16.7818 17.9125L17.9603 19.091L15.6033 21.448L14.4248 20.2695Z" fill="#A4AFC1"/>
<path d="M7.64648 27.043L10.0035 24.6859L11.182 25.8645L8.82499 28.2215L7.64648 27.043Z" fill="#A4AFC1"/>
<path d="M7.64844 18.7959L8.82695 17.6174L11.184 19.9744L10.0055 21.1529L7.64844 18.7959Z" fill="#A4AFC1"/>
<path d="M42.25 54.0918C40.8717 54.0918 39.75 52.9701 39.75 51.5918C39.75 50.2135 40.8717 49.0918 42.25 49.0918C43.6283 49.0918 44.75 50.2135 44.75 51.5918C44.75 52.9701 43.6283 54.0918 42.25 54.0918ZM42.25 50.7585C41.79 50.7585 41.4167 51.1335 41.4167 51.5918C41.4167 52.0501 41.79 52.4251 42.25 52.4251C42.71 52.4251 43.0833 52.0501 43.0833 51.5918C43.0833 51.1335 42.7083 50.7585 42.25 50.7585Z" fill="#A4AFC1"/>
<path d="M43.3333 28.7497C44.4839 28.7497 45.4167 27.8169 45.4167 26.6663C45.4167 25.5157 44.4839 24.583 43.3333 24.583C42.1827 24.583 41.25 25.5157 41.25 26.6663C41.25 27.8169 42.1827 28.7497 43.3333 28.7497Z" fill="#FFF9F4"/>
<path d="M16.6663 28.7497C17.8169 28.7497 18.7497 27.8169 18.7497 26.6663C18.7497 25.5157 17.8169 24.583 16.6663 24.583C15.5157 24.583 14.583 25.5157 14.583 26.6663C14.583 27.8169 15.5157 28.7497 16.6663 28.7497Z" fill="#FFF9F4"/>
<path d="M30 29.583C32.0711 29.583 33.75 27.9041 33.75 25.833C33.75 23.7619 32.0711 22.083 30 22.083C27.9289 22.083 26.25 23.7619 26.25 25.833C26.25 27.9041 27.9289 29.583 30 29.583Z" fill="#F68B1F"/>
<path d="M22.083 40.4163V37.9163C22.083 36.0747 23.5747 34.583 25.4163 34.583H34.583C36.4247 34.583 37.9163 36.0747 37.9163 37.9163V40.4163H22.083Z" fill="#F68B1F"/>
<path d="M28.7497 34.583H25.4163C23.5747 34.583 22.083 36.0747 22.083 37.9163V40.4163H25.4163V37.9163C25.4163 36.0747 26.908 34.583 28.7497 34.583Z" fill="#FBD1A5"/>
<path d="M29.5833 25.833C29.5833 24.363 30.4367 23.1047 31.6667 22.4897C31.1633 22.238 30.6017 22.083 30 22.083C27.9283 22.083 26.25 23.7613 26.25 25.833C26.25 27.9047 27.9283 29.583 30 29.583C30.6017 29.583 31.1633 29.428 31.6667 29.1763C30.4367 28.5613 29.5833 27.3013 29.5833 25.833Z" fill="#FBD1A5"/>
<path d="M43.3333 29.9997C41.495 29.9997 40 28.5047 40 26.6663C40 24.828 41.495 23.333 43.3333 23.333C45.1717 23.333 46.6667 24.828 46.6667 26.6663C46.6667 28.5047 45.1717 29.9997 43.3333 29.9997ZM43.3333 25.833C42.8733 25.833 42.5 26.208 42.5 26.6663C42.5 27.1247 42.8733 27.4997 43.3333 27.4997C43.7933 27.4997 44.1667 27.1247 44.1667 26.6663C44.1667 26.208 43.7933 25.833 43.3333 25.833Z" fill="black"/>
<path d="M50 37.0837H47.5V36.2503C47.5 35.102 46.565 34.167 45.4167 34.167H41.25V31.667H45.4167C47.945 31.667 50 33.722 50 36.2503V37.0837Z" fill="black"/>
<path d="M16.6663 29.9997C14.828 29.9997 13.333 28.5047 13.333 26.6663C13.333 24.828 14.828 23.333 16.6663 23.333C18.5047 23.333 19.9997 24.828 19.9997 26.6663C19.9997 28.5047 18.5047 29.9997 16.6663 29.9997ZM16.6663 25.833C16.2063 25.833 15.833 26.208 15.833 26.6663C15.833 27.1247 16.2063 27.4997 16.6663 27.4997C17.1263 27.4997 17.4997 27.1247 17.4997 26.6663C17.4997 26.208 17.1263 25.833 16.6663 25.833Z" fill="black"/>
<path d="M12.5 37.0837H10V36.2503C10 33.722 12.055 31.667 14.5833 31.667H18.75V34.167H14.5833C13.435 34.167 12.5 35.102 12.5 36.2503V37.0837Z" fill="black"/>
<path d="M30 30.833C27.2433 30.833 25 28.5897 25 25.833C25 23.0763 27.2433 20.833 30 20.833C32.7567 20.833 35 23.0763 35 25.833C35 28.5897 32.7567 30.833 30 30.833ZM30 23.333C28.6217 23.333 27.5 24.4547 27.5 25.833C27.5 27.2113 28.6217 28.333 30 28.333C31.3783 28.333 32.5 27.2113 32.5 25.833C32.5 24.4547 31.3783 23.333 30 23.333Z" fill="black"/>
<path d="M39.1663 40.4163H36.6663V37.9163C36.6663 36.768 35.7313 35.833 34.583 35.833H25.4163C24.268 35.833 23.333 36.768 23.333 37.9163V40.4163H20.833V37.9163C20.833 35.388 22.888 33.333 25.4163 33.333H34.583C37.1113 33.333 39.1663 35.388 39.1663 37.9163V40.4163Z" fill="black"/>
</svg>
