<svg width="18" height="18" viewBox="0 0 18 18" fill="none" xmlns="http://www.w3.org/2000/svg">
<path fill-rule="evenodd" clip-rule="evenodd" d="M6.75 0.9375C4.78249 0.9375 3.1875 2.53249 3.1875 4.5C3.1875 6.46751 4.78249 8.0625 6.75 8.0625C8.71751 8.0625 10.3125 6.46751 10.3125 4.5C10.3125 2.53249 8.71751 0.9375 6.75 0.9375ZM4.3125 4.5C4.3125 3.15381 5.40381 2.0625 6.75 2.0625C8.09619 2.0625 9.1875 3.15381 9.1875 4.5C9.1875 5.84619 8.09619 6.9375 6.75 6.9375C5.40381 6.9375 4.3125 5.84619 4.3125 4.5Z" fill="#F68B1F"/>
<path d="M11.25 1.6875C10.9393 1.6875 10.6875 1.93934 10.6875 2.25C10.6875 2.56066 10.9393 2.8125 11.25 2.8125C12.182 2.8125 12.9375 3.56802 12.9375 4.5C12.9375 5.43198 12.182 6.1875 11.25 6.1875C10.9393 6.1875 10.6875 6.43934 10.6875 6.75C10.6875 7.06066 10.9393 7.3125 11.25 7.3125C12.8033 7.3125 14.0625 6.0533 14.0625 4.5C14.0625 2.9467 12.8033 1.6875 11.25 1.6875Z" fill="#F68B1F"/>
<path fill-rule="evenodd" clip-rule="evenodd" d="M2.75861 10.1403C3.80814 9.54056 5.2205 9.1875 6.75 9.1875C8.2795 9.1875 9.69186 9.54056 10.7414 10.1403C11.775 10.7309 12.5625 11.6326 12.5625 12.75C12.5625 13.8674 11.775 14.7691 10.7414 15.3597C9.69186 15.9594 8.2795 16.3125 6.75 16.3125C5.2205 16.3125 3.80814 15.9594 2.75861 15.3597C1.725 14.7691 0.9375 13.8674 0.9375 12.75C0.9375 11.6326 1.725 10.7309 2.75861 10.1403ZM3.31677 11.1171C2.45025 11.6122 2.0625 12.2105 2.0625 12.75C2.0625 13.2895 2.45025 13.8878 3.31677 14.3829C4.16737 14.869 5.38001 15.1875 6.75 15.1875C8.11999 15.1875 9.33263 14.869 10.1832 14.3829C11.0497 13.8878 11.4375 13.2895 11.4375 12.75C11.4375 12.2105 11.0497 11.6122 10.1832 11.1171C9.33263 10.631 8.11999 10.3125 6.75 10.3125C5.38001 10.3125 4.16737 10.631 3.31677 11.1171Z" fill="#F68B1F"/>
<path d="M13.6205 9.95056C13.317 9.88401 13.0171 10.0761 12.9506 10.3795C12.884 10.683 13.0761 10.9829 13.3795 11.0494C13.9738 11.1798 14.4487 11.4036 14.7622 11.6601C15.076 11.9169 15.1875 12.1678 15.1875 12.375C15.1875 12.563 15.097 12.7838 14.8477 13.0154C14.5965 13.2487 14.2106 13.4643 13.7128 13.6142C13.4154 13.7038 13.2468 14.0175 13.3364 14.315C13.426 14.6125 13.7397 14.781 14.0372 14.6914C14.6541 14.5057 15.2057 14.2183 15.6133 13.8397C16.0228 13.4593 16.3125 12.959 16.3125 12.375C16.3125 11.7264 15.9568 11.184 15.4746 10.7894C14.992 10.3945 14.3419 10.1088 13.6205 9.95056Z" fill="#F68B1F"/>
</svg>
