<svg width="60" height="60" viewBox="0 0 60 60" fill="none" xmlns="http://www.w3.org/2000/svg">
<path d="M6.9453 13.9613C6.9453 25.4897 0.973633 33.4063 0.973633 38.9613C0.973633 44.5163 4.16697 56.183 29.722 56.183C55.277 56.183 59.027 40.488 59.027 34.378C59.0286 5.76634 6.9453 -6.45533 6.9453 13.9613Z" fill="#FFF9F4"/>
<path d="M16.6172 8.87012L18.9742 6.51309L20.1527 7.69161L17.7957 10.0486L16.6172 8.87012Z" fill="#A4AFC1"/>
<path d="M9.84082 15.6436L12.1978 13.2865L13.3764 14.465L11.0193 16.8221L9.84082 15.6436Z" fill="#A4AFC1"/>
<path d="M10.1367 7.6875L11.3152 6.50899L13.6723 8.86601L12.4937 10.0445L10.1367 7.6875Z" fill="#A4AFC1"/>
<path d="M47.185 29.8833C48.1483 28.9717 48.75 27.6817 48.75 26.25V14.5833C48.75 12.7417 47.2583 11.25 45.4167 11.25H33.75C32.32 11.25 31.0283 11.8517 30.1167 12.8133L12.1617 31.46C11.5967 32.0567 11.25 32.8633 11.25 33.75C11.25 34.67 11.6233 35.5033 12.2267 36.1067L23.8933 47.7733C24.4967 48.3767 25.33 48.75 26.25 48.75C27.1367 48.75 27.9433 48.4033 28.54 47.8383L47.185 29.8833Z" fill="#FFF9F4"/>
<path d="M26.1936 30.1531C27.5303 28.6214 30.642 26.3998 34.8436 26.6298C35.3353 26.6564 35.5853 27.2348 35.2903 27.6514C32.4653 31.6431 34.7286 37.0964 29.0136 39.8231C25.512 41.4948 21.102 39.4748 19.9286 35.6648C19.022 32.7231 19.9236 29.7498 22.287 27.8431C23.4303 26.9214 24.7786 26.1198 26.2103 26.2664C26.6403 26.3114 26.867 26.8148 26.662 27.2148C26.1253 28.2598 26.0303 29.0848 26.1936 30.1531Z" fill="#F68B1F"/>
<path d="M41.6663 20.4167C42.8169 20.4167 43.7497 19.4839 43.7497 18.3333C43.7497 17.1827 42.8169 16.25 41.6663 16.25C40.5157 16.25 39.583 17.1827 39.583 18.3333C39.583 19.4839 40.5157 20.4167 41.6663 20.4167Z" fill="#F68B1F"/>
<path d="M27.6433 47.7733L15.9767 36.1067C15.3733 35.5033 15 34.67 15 33.75C15 32.8633 15.3467 32.0567 15.9117 31.46L33.8667 12.8133C34.7783 11.85 36.0683 11.25 37.5 11.25H33.75C32.32 11.25 31.0283 11.8517 30.1167 12.8133L12.1617 31.46C11.5967 32.0567 11.25 32.8633 11.25 33.75C11.25 34.67 11.6233 35.5033 12.2267 36.1067L23.8933 47.7733C24.4967 48.3767 25.33 48.75 26.25 48.75C26.945 48.75 27.5867 48.5317 28.12 48.1683C27.95 48.05 27.7883 47.92 27.6433 47.7733Z" fill="#D5DBE1"/>
<path d="M23.6796 35.6651C22.7729 32.7234 23.6746 29.7501 26.038 27.8434C26.203 27.7101 26.3813 27.5901 26.5563 27.4634C26.5946 27.3801 26.618 27.3018 26.663 27.2168C26.8696 26.8168 26.6413 26.3118 26.2113 26.2684C24.7796 26.1218 23.4313 26.9218 22.288 27.8451C19.9246 29.7518 19.0229 32.7251 19.9296 35.6668C21.0163 39.1951 24.868 41.1468 28.2146 40.0968C26.153 39.4668 24.363 37.8851 23.6796 35.6651Z" fill="#FBD1A5"/>
<path d="M43.333 18.3333C43.333 18.0167 43.4147 17.725 43.5413 17.4567C43.208 16.7483 42.4997 16.25 41.6663 16.25C40.5163 16.25 39.583 17.1833 39.583 18.3333C39.583 19.4833 40.5163 20.4167 41.6663 20.4167C42.4997 20.4167 43.208 19.9183 43.5413 19.21C43.4147 18.9417 43.333 18.65 43.333 18.3333Z" fill="#FBD1A5"/>
<path d="M26.3717 41.6652C25.3017 41.6652 24.2217 41.4402 23.1984 40.9919C21.0417 40.0452 19.4134 38.2385 18.7351 36.0335C17.6801 32.6119 18.7417 29.1002 21.5034 26.8702C22.6084 25.9769 24.3117 24.8202 26.3384 25.0235C26.9334 25.0852 27.4651 25.4402 27.7551 25.9752C27.9434 26.3219 28.0184 26.7102 27.9801 27.0919C29.8201 25.9952 32.1951 25.2285 34.9117 25.3802C35.5834 25.4169 36.1834 25.8185 36.4767 26.4269C36.7801 27.0535 36.7151 27.8002 36.3067 28.3735C35.3717 29.6935 35.0784 31.2652 34.7651 32.9302C34.2317 35.7769 33.6251 39.0052 29.5501 40.9502C28.5584 41.4269 27.4717 41.6652 26.3717 41.6652ZM25.1384 27.6152C24.5267 27.7969 23.8451 28.1952 23.0734 28.8169C21.0951 30.4135 20.3667 32.8369 21.1251 35.2985C21.5901 36.8085 22.7117 38.0485 24.2034 38.7019C25.6134 39.3202 27.1701 39.3185 28.4751 38.6969C31.4051 37.2985 31.8051 35.1685 32.3117 32.4719C32.5984 30.9452 32.8934 29.3752 33.6851 27.8819C30.7151 28.0585 28.3417 29.5952 27.1334 30.9769C26.8134 31.3435 26.3101 31.4902 25.8434 31.3552C25.3767 31.2185 25.0317 30.8235 24.9584 30.3435C24.8017 29.3235 24.8517 28.4769 25.1384 27.6152Z" fill="black"/>
<path d="M26.25 50C25.025 50 23.8717 49.5233 23.0083 48.6567L11.3433 36.99C10.4767 36.1267 10 34.975 10 33.75C10 32.5733 10.445 31.455 11.2533 30.6L29.2167 11.9467C30.3833 10.7133 32.04 10 33.75 10H45.4167C47.945 10 50 12.055 50 14.5833V26.25C50 27.9583 49.2883 29.6117 48.0483 30.7867L29.4083 48.7383C28.545 49.555 27.425 50 26.25 50ZM33.75 12.5C32.7083 12.5 31.7417 12.9167 31.025 13.6733L13.0617 32.3267C12.7017 32.7067 12.5 33.215 12.5 33.75C12.5 34.3067 12.7167 34.83 13.11 35.2217L24.7767 46.8883C25.5483 47.6583 26.89 47.68 27.68 46.9283L46.3183 28.9833C46.3217 28.98 46.325 28.9783 46.3267 28.975C47.0833 28.26 47.5 27.2917 47.5 26.25V14.5833C47.5 13.435 46.565 12.5 45.4167 12.5H33.75Z" fill="black"/>
<path d="M41.6663 21.6667C39.828 21.6667 38.333 20.1717 38.333 18.3333C38.333 16.495 39.828 15 41.6663 15C43.5047 15 44.9997 16.495 44.9997 18.3333C44.9997 20.1717 43.5047 21.6667 41.6663 21.6667ZM41.6663 17.5C41.208 17.5 40.833 17.8733 40.833 18.3333C40.833 18.7933 41.208 19.1667 41.6663 19.1667C42.1247 19.1667 42.4997 18.7933 42.4997 18.3333C42.4997 17.8733 42.1247 17.5 41.6663 17.5Z" fill="black"/>
</svg>
