<svg width="117" height="36" viewBox="0 0 117 36" fill="none" xmlns="http://www.w3.org/2000/svg">
<g clip-path="url(#clip0_346_5043)">
<path d="M9.09581 34.3723C8.79993 34.3723 8.5112 34.3689 8.21764 34.3631C7.6095 34.3561 7.00279 34.3092 6.40248 34.2229C5.84272 34.1376 5.30046 33.9789 4.79359 33.752C4.29137 33.527 3.8333 33.232 3.43694 32.8782C3.03484 32.5286 2.70007 32.1232 2.4459 31.6779C2.18893 31.2298 2.0111 30.7494 1.91858 30.2536C1.81868 29.7208 1.76463 29.1821 1.75689 28.642C1.75074 28.4608 1.74268 27.8572 1.74268 27.8572V8.00239C1.74268 8.00239 1.75126 7.40813 1.75694 7.23354C1.76435 6.69436 1.81809 6.15647 1.91769 5.62451C2.01037 5.12731 2.18835 4.64556 2.44545 4.19594C2.69869 3.75099 3.0316 3.34524 3.43128 2.99441C3.83051 2.64024 4.29004 2.3437 4.79311 2.1156C5.29882 1.88945 5.84005 1.73185 6.39868 1.64809C7.00097 1.5609 7.60979 1.51377 8.22003 1.50708L9.09628 1.49658H108.897L109.783 1.5075C110.388 1.51386 110.991 1.56057 111.588 1.64724C112.152 1.73206 112.699 1.89076 113.211 2.11812C114.219 2.57782 115.039 3.3051 115.556 4.19804C115.809 4.64455 115.984 5.12237 116.076 5.61527C116.177 6.1516 116.233 6.69373 116.245 7.23732C116.247 7.48073 116.247 7.74219 116.247 8.00239C116.255 8.3247 116.255 8.63148 116.255 8.94078V26.9289C116.255 27.2411 116.255 27.5458 116.247 27.853C116.247 28.1325 116.247 28.3886 116.244 28.6521C116.232 29.186 116.177 29.7184 116.078 30.2452C115.987 30.7446 115.81 31.2287 115.553 31.6805C115.297 32.1209 114.964 32.5229 114.567 32.8715C114.17 33.2272 113.711 33.5239 113.208 33.7503C112.698 33.979 112.152 34.1383 111.588 34.2229C110.988 34.3097 110.381 34.3565 109.773 34.3631C109.489 34.3689 109.191 34.3723 108.901 34.3723L107.849 34.374L9.09581 34.3723Z" fill="#111827"/>
<path d="M29.1754 18.1937C29.1846 17.4765 29.3752 16.7732 29.7292 16.1494C30.0833 15.5256 30.5894 15.0014 31.2004 14.6258C30.8122 14.0714 30.3001 13.6151 29.7048 13.2933C29.1094 12.9714 28.4472 12.7928 27.7708 12.7716C26.3278 12.6202 24.9288 13.6351 24.1935 13.6351C23.444 13.6351 22.3118 12.7867 21.0927 12.8118C20.3041 12.8372 19.5356 13.0665 18.862 13.4773C18.1884 13.8882 17.6327 14.4664 17.249 15.1559C15.5871 18.0332 16.8268 22.2619 18.4187 24.5878C19.2152 25.7267 20.1461 26.9988 21.3641 26.9537C22.5561 26.9043 23.0012 26.1937 24.44 26.1937C25.8654 26.1937 26.283 26.9537 27.5258 26.925C28.8048 26.9043 29.6106 25.7811 30.3791 24.6314C30.9514 23.8199 31.3918 22.923 31.6839 21.974C30.9409 21.6597 30.3068 21.1336 29.8607 20.4614C29.4146 19.7892 29.1763 19.0005 29.1754 18.1937Z" fill="white"/>
<path d="M26.8283 11.242C27.5256 10.4048 27.8692 9.32881 27.786 8.24243C26.7206 8.35433 25.7364 8.86353 25.0297 9.66856C24.6841 10.0618 24.4194 10.5194 24.2508 11.015C24.0822 11.5106 24.0129 12.0346 24.0469 12.5571C24.5798 12.5625 25.107 12.447 25.5887 12.2192C26.0705 11.9915 26.4943 11.6573 26.8283 11.242Z" fill="white"/>
<path d="M44.2421 24.0705H40.1746L39.1978 26.9548H37.475L41.3276 16.2838H43.1176L46.9702 26.9548H45.218L44.2421 24.0705ZM40.5959 22.7396H43.82L42.2306 18.0587H42.1861L40.5959 22.7396Z" fill="white"/>
<path d="M55.2906 23.0652C55.2906 25.4828 53.9966 27.0362 52.0438 27.0362C51.5491 27.062 51.0572 26.9481 50.6243 26.7074C50.1913 26.4666 49.835 26.1089 49.5959 25.675H49.559V29.5285H47.962V19.1748H49.5078V20.4688H49.5372C49.7872 20.037 50.1496 19.6811 50.5858 19.4389C51.022 19.1967 51.5158 19.0773 52.0144 19.0934C53.989 19.0934 55.2906 20.6542 55.2906 23.0652ZM53.6492 23.0652C53.6492 21.4901 52.8351 20.4545 51.5932 20.4545C50.373 20.4545 49.5523 21.5119 49.5523 23.0652C49.5523 24.6328 50.373 25.6826 51.5932 25.6826C52.8352 25.6826 53.6492 24.6546 53.6492 23.0652Z" fill="white"/>
<path d="M63.8536 23.0652C63.8536 25.4828 62.5596 27.0361 60.6068 27.0361C60.1121 27.062 59.6202 26.9481 59.1873 26.7073C58.7543 26.4666 58.398 26.1088 58.1589 25.675H58.122V29.5285H56.525V19.1747H58.0708V20.4688H58.1001C58.3502 20.037 58.7126 19.6811 59.1488 19.4389C59.585 19.1967 60.0787 19.0773 60.5774 19.0934C62.552 19.0934 63.8536 20.6542 63.8536 23.0652ZM62.2121 23.0652C62.2121 21.49 61.3981 20.4545 60.1562 20.4545C58.936 20.4545 58.1153 21.5119 58.1153 23.0652C58.1153 24.6328 58.936 25.6826 60.1562 25.6826C61.3981 25.6826 62.2121 24.6546 62.2121 23.0652H62.2121Z" fill="white"/>
<path d="M69.513 23.9815C69.6314 25.0397 70.6594 25.7345 72.0641 25.7345C73.4102 25.7345 74.3786 25.0397 74.3786 24.0856C74.3786 23.2573 73.7945 22.7614 72.4115 22.4215L71.0286 22.0883C69.0691 21.615 68.1594 20.6986 68.1594 19.2116C68.1594 17.3705 69.764 16.1058 72.0423 16.1058C74.2972 16.1058 75.8429 17.3705 75.895 19.2116H74.2829C74.1864 18.1467 73.3061 17.5039 72.0196 17.5039C70.7332 17.5039 69.8529 18.1543 69.8529 19.1009C69.8529 19.8553 70.4151 20.2992 71.7905 20.639L72.9662 20.9277C75.1556 21.4455 76.0653 22.325 76.0653 23.8858C76.0653 25.8822 74.4751 27.1326 71.9458 27.1326C69.5793 27.1326 67.9815 25.9116 67.8783 23.9815L69.513 23.9815Z" fill="white"/>
<path d="M79.5117 17.3336V19.1748H80.9912V20.4394H79.5117V24.7284C79.5117 25.3947 79.8079 25.7052 80.4583 25.7052C80.6339 25.7022 80.8093 25.6898 80.9836 25.6683V26.9254C80.6912 26.98 80.394 27.0047 80.0966 26.9992C78.5215 26.9992 77.9072 26.4076 77.9072 24.8988V20.4394H76.776V19.1748H77.9072V17.3336H79.5117Z" fill="white"/>
<path d="M81.848 23.0652C81.848 20.6173 83.2897 19.0791 85.5379 19.0791C87.7936 19.0791 89.2286 20.6173 89.2286 23.0652C89.2286 25.5198 87.8011 27.0513 85.5379 27.0513C83.2754 27.0513 81.848 25.5198 81.848 23.0652ZM87.6014 23.0652C87.6014 21.386 86.8319 20.3949 85.5379 20.3949C84.2439 20.3949 83.4752 21.3935 83.4752 23.0652C83.4752 24.7511 84.2439 25.7346 85.5379 25.7346C86.8319 25.7346 87.6014 24.7511 87.6014 23.0652H87.6014Z" fill="white"/>
<path d="M90.5452 19.1747H92.0683V20.4989H92.1052C92.2083 20.0853 92.4506 19.7198 92.7914 19.4638C93.1321 19.2079 93.5507 19.077 93.9766 19.0933C94.1606 19.0926 94.3441 19.1126 94.5237 19.1529V20.6466C94.2914 20.5756 94.049 20.543 93.8062 20.5501C93.5742 20.5407 93.3429 20.5816 93.1282 20.67C92.9135 20.7584 92.7205 20.8922 92.5624 21.0623C92.4043 21.2323 92.2849 21.4346 92.2124 21.6551C92.1398 21.8757 92.1158 22.1093 92.1421 22.34V26.9547H90.5452L90.5452 19.1747Z" fill="white"/>
<path d="M101.887 24.6697C101.672 26.082 100.296 27.0513 98.5367 27.0513C96.2734 27.0513 94.8687 25.5349 94.8687 23.1021C94.8687 20.6618 96.281 19.0791 98.4696 19.0791C100.622 19.0791 101.976 20.5577 101.976 22.9166V23.4638H96.4807V23.5603C96.4554 23.8466 96.4912 24.1351 96.5859 24.4065C96.6806 24.6779 96.8319 24.926 97.0298 25.1345C97.2278 25.3429 97.4678 25.5068 97.734 25.6153C98.0002 25.7239 98.2864 25.7745 98.5736 25.764C98.951 25.7993 99.3297 25.7119 99.6534 25.5148C99.9771 25.3176 100.229 25.0212 100.37 24.6697L101.887 24.6697ZM96.4883 22.3477H100.378C100.392 22.0902 100.353 21.8326 100.263 21.591C100.173 21.3493 100.034 21.1289 99.8551 20.9435C99.6759 20.758 99.4604 20.6117 99.2219 20.5135C98.9835 20.4154 98.7273 20.3676 98.4696 20.3731C98.2095 20.3716 97.9517 20.4215 97.7111 20.5201C97.4704 20.6187 97.2517 20.764 97.0675 20.9476C96.8833 21.1312 96.7373 21.3494 96.6378 21.5897C96.5384 21.83 96.4876 22.0876 96.4883 22.3477V22.3477Z" fill="white"/>
<path d="M40.3959 8.25167C40.7307 8.22764 41.0666 8.27822 41.3795 8.39976C41.6924 8.52129 41.9744 8.71075 42.2052 8.95448C42.436 9.1982 42.6099 9.49011 42.7142 9.80915C42.8185 10.1282 42.8507 10.4664 42.8085 10.7994C42.8085 12.4375 41.9232 13.3791 40.3959 13.3791H38.5438V8.25167H40.3959ZM39.3402 12.6539H40.3069C40.5462 12.6682 40.7856 12.629 41.0077 12.5391C41.2299 12.4492 41.4292 12.3109 41.5912 12.1343C41.7532 11.9576 41.8737 11.7471 41.9441 11.518C42.0144 11.2889 42.0328 11.047 41.9979 10.8099C42.0303 10.5737 42.01 10.3333 41.9386 10.1058C41.8672 9.87841 41.7463 9.66959 41.5847 9.49435C41.4231 9.31911 41.2248 9.18179 41.0038 9.09222C40.7829 9.00264 40.5449 8.96304 40.3069 8.97625H39.3402V12.6539Z" fill="white"/>
<path d="M43.708 11.4426C43.6836 11.1883 43.7127 10.9318 43.7934 10.6894C43.874 10.447 44.0044 10.2241 44.1762 10.0351C44.348 9.84607 44.5575 9.69503 44.7911 9.59168C45.0247 9.48833 45.2773 9.43494 45.5328 9.43494C45.7882 9.43494 46.0408 9.48833 46.2744 9.59168C46.508 9.69503 46.7175 9.84607 46.8893 10.0351C47.0611 10.2241 47.1915 10.447 47.2721 10.6894C47.3528 10.9318 47.3819 11.1883 47.3575 11.4426C47.3823 11.6972 47.3536 11.9541 47.2732 12.1969C47.1927 12.4396 47.0624 12.6629 46.8906 12.8523C46.7187 13.0417 46.5091 13.1931 46.2753 13.2967C46.0414 13.4002 45.7885 13.4537 45.5328 13.4537C45.277 13.4537 45.0241 13.4002 44.7902 13.2967C44.5564 13.1931 44.3468 13.0417 44.175 12.8523C44.0031 12.6629 43.8728 12.4396 43.7924 12.1969C43.7119 11.9541 43.6832 11.6972 43.708 11.4426ZM46.5721 11.4426C46.5721 10.6039 46.1953 10.1134 45.534 10.1134C44.8702 10.1134 44.4968 10.6039 44.4968 11.4426C44.4968 12.2881 44.8703 12.7748 45.534 12.7748C46.1953 12.7748 46.5721 12.2847 46.5721 11.4426H46.5721Z" fill="white"/>
<path d="M52.209 13.379H51.4168L50.6171 10.5291H50.5567L49.7603 13.379H48.9756L47.9091 9.50952H48.6836L49.3768 12.4621H49.4338L50.2294 9.50952H50.962L51.7575 12.4621H51.8179L52.5077 9.50952H53.2714L52.209 13.379Z" fill="white"/>
<path d="M54.1685 9.50953H54.9036V10.1242H54.9606C55.0574 9.90345 55.2207 9.71838 55.4277 9.5948C55.6347 9.47123 55.8751 9.41531 56.1153 9.43484C56.3036 9.42068 56.4927 9.44907 56.6685 9.5179C56.8443 9.58673 57.0024 9.69423 57.131 9.83245C57.2596 9.97066 57.3555 10.136 57.4115 10.3163C57.4676 10.4967 57.4823 10.6872 57.4547 10.874V13.3789H56.691V11.0658C56.691 10.444 56.4208 10.1347 55.856 10.1347C55.7282 10.1288 55.6006 10.1505 55.482 10.1985C55.3633 10.2465 55.2565 10.3195 55.1687 10.4127C55.081 10.5058 55.0144 10.6168 54.9735 10.7381C54.9327 10.8594 54.9186 10.988 54.9321 11.1153V13.379H54.1685L54.1685 9.50953Z" fill="white"/>
<path d="M58.6715 7.99902H59.4352V13.379H58.6715V7.99902Z" fill="white"/>
<path d="M60.4965 11.4426C60.4722 11.1883 60.5013 10.9317 60.582 10.6893C60.6626 10.4469 60.7931 10.224 60.9649 10.035C61.1367 9.84596 61.3462 9.69492 61.5798 9.59156C61.8134 9.4882 62.0661 9.43481 62.3215 9.43481C62.577 9.43481 62.8296 9.4882 63.0633 9.59156C63.2969 9.69492 63.5063 9.84596 63.6781 10.035C63.85 10.224 63.9804 10.4469 64.0611 10.6893C64.1417 10.9317 64.1708 11.1883 64.1465 11.4426C64.1713 11.6971 64.1425 11.9541 64.0621 12.1968C63.9816 12.4396 63.8513 12.6629 63.6794 12.8523C63.5075 13.0417 63.2979 13.193 63.0641 13.2966C62.8302 13.4002 62.5773 13.4537 62.3215 13.4537C62.0658 13.4537 61.8128 13.4002 61.579 13.2966C61.3451 13.193 61.1355 13.0417 60.9637 12.8523C60.7918 12.6629 60.6614 12.4396 60.581 12.1968C60.5005 11.9541 60.4718 11.6971 60.4965 11.4426ZM63.3606 11.4426C63.3606 10.6038 62.9838 10.1133 62.3226 10.1133C61.6588 10.1133 61.2854 10.6038 61.2854 11.4426C61.2854 12.2881 61.6588 12.7748 62.3226 12.7748C62.9838 12.7748 63.3606 12.2847 63.3606 11.4426H63.3606Z" fill="white"/>
<path d="M64.9506 12.2846C64.9506 11.5881 65.4692 11.1866 66.3897 11.1295L67.4379 11.0691V10.7351C67.4379 10.3264 67.1677 10.0957 66.6457 10.0957C66.2194 10.0957 65.924 10.2522 65.8392 10.5257H65.0999C65.178 9.86111 65.8032 9.43481 66.6809 9.43481C67.651 9.43481 68.1982 9.91775 68.1982 10.7351V13.3789H67.4631V12.8352H67.4026C67.28 13.0302 67.1078 13.1892 66.9036 13.296C66.6994 13.4027 66.4705 13.4533 66.2404 13.4427C66.0779 13.4596 65.9138 13.4423 65.7584 13.3918C65.6031 13.3414 65.4601 13.2589 65.3385 13.1498C65.217 13.0407 65.1197 12.9074 65.0529 12.7583C64.9861 12.6093 64.9512 12.448 64.9506 12.2846ZM67.4379 11.954V11.6305L66.493 11.6909C65.9601 11.7266 65.7184 11.9079 65.7184 12.249C65.7184 12.5972 66.0205 12.7999 66.4359 12.7999C66.5576 12.8122 66.6806 12.7999 66.7975 12.7638C66.9143 12.7276 67.0227 12.6683 67.1162 12.5894C67.2097 12.5104 67.2864 12.4135 67.3416 12.3044C67.3969 12.1952 67.4296 12.0761 67.4379 11.954Z" fill="white"/>
<path d="M69.2019 11.4426C69.2019 10.2199 69.8305 9.44535 70.8081 9.44535C71.0499 9.43421 71.2899 9.49213 71.5 9.61235C71.7102 9.73256 71.8817 9.9101 71.9947 10.1242H72.0518V7.99902H72.8154V13.379H72.0836V12.7676H72.0232C71.9015 12.9803 71.724 13.1556 71.5098 13.2746C71.2956 13.3936 71.053 13.4518 70.8081 13.4427C69.8237 13.4428 69.2019 12.6682 69.2019 11.4426ZM69.9908 11.4426C69.9908 12.2633 70.3776 12.7572 71.0246 12.7572C71.6683 12.7572 72.066 12.2562 72.066 11.446C72.066 10.6395 71.6641 10.1314 71.0246 10.1314C70.3818 10.1314 69.9907 10.6286 69.9907 11.4426H69.9908Z" fill="white"/>
<path d="M75.9747 11.4426C75.9504 11.1883 75.9795 10.9318 76.0601 10.6894C76.1407 10.447 76.2711 10.2241 76.443 10.0351C76.6148 9.84607 76.8242 9.69503 77.0578 9.59168C77.2914 9.48833 77.544 9.43494 77.7995 9.43494C78.0549 9.43494 78.3076 9.48833 78.5412 9.59168C78.7748 9.69503 78.9842 9.84607 79.156 10.0351C79.3278 10.2241 79.4582 10.447 79.5389 10.6894C79.6195 10.9318 79.6486 11.1883 79.6243 11.4426C79.6491 11.6972 79.6203 11.9541 79.5399 12.1969C79.4595 12.4396 79.3291 12.6629 79.1573 12.8523C78.9854 13.0417 78.7758 13.1931 78.542 13.2967C78.3082 13.4002 78.0552 13.4537 77.7995 13.4537C77.5437 13.4537 77.2908 13.4002 77.057 13.2967C76.8231 13.1931 76.6135 13.0417 76.4417 12.8523C76.2698 12.6629 76.1395 12.4396 76.0591 12.1969C75.9786 11.9541 75.9499 11.6972 75.9747 11.4426ZM78.8388 11.4426C78.8388 10.6039 78.462 10.1134 77.8007 10.1134C77.137 10.1134 76.7635 10.6039 76.7635 11.4426C76.7635 12.2881 77.137 12.7748 77.8007 12.7748C78.462 12.7748 78.8388 12.2847 78.8388 11.4426Z" fill="white"/>
<path d="M80.649 9.50953H81.3842V10.1242H81.4412C81.538 9.90345 81.7013 9.71838 81.9083 9.5948C82.1153 9.47123 82.3557 9.41531 82.5959 9.43484C82.7842 9.42068 82.9733 9.44907 83.1491 9.5179C83.3249 9.58673 83.483 9.69423 83.6116 9.83245C83.7402 9.97066 83.8361 10.136 83.8921 10.3163C83.9482 10.4967 83.9629 10.6872 83.9353 10.874V13.3789H83.1716V11.0658C83.1716 10.444 82.9014 10.1347 82.3366 10.1347C82.2088 10.1288 82.0812 10.1505 81.9626 10.1985C81.8439 10.2465 81.7371 10.3195 81.6493 10.4127C81.5616 10.5058 81.495 10.6168 81.4541 10.7381C81.4133 10.8594 81.3992 10.988 81.4127 11.1153V13.379H80.649V9.50953Z" fill="white"/>
<path d="M88.2503 8.54614V9.52714H89.0887V10.1704H88.2503V12.1601C88.2503 12.5654 88.4173 12.7429 88.7975 12.7429C88.8948 12.7425 88.992 12.7367 89.0887 12.7252V13.3613C88.9516 13.3859 88.8126 13.3989 88.6733 13.4003C87.824 13.4003 87.4859 13.1016 87.4859 12.3556V10.1703H86.8716V9.5271H87.4859V8.54614H88.2503Z" fill="white"/>
<path d="M90.1317 7.99902H90.8887V10.1314H90.9491C91.0506 9.90853 91.2183 9.72241 91.4295 9.59837C91.6406 9.47433 91.8848 9.41841 92.1289 9.43821C92.3162 9.42802 92.5034 9.45929 92.6773 9.52979C92.8511 9.60029 93.0072 9.70828 93.1345 9.84606C93.2618 9.98385 93.3571 10.148 93.4136 10.3269C93.4701 10.5057 93.4865 10.6949 93.4615 10.8808V13.379H92.6971V11.0691C92.6971 10.4511 92.4092 10.1381 91.8697 10.1381C91.7384 10.1273 91.6064 10.1454 91.4829 10.1909C91.3593 10.2365 91.2472 10.3086 91.1544 10.402C91.0616 10.4954 90.9903 10.608 90.9456 10.7319C90.9009 10.8558 90.8837 10.9879 90.8954 11.1191V13.379H90.1317L90.1317 7.99902Z" fill="white"/>
<path d="M97.9143 12.3342C97.8106 12.6879 97.5858 12.9938 97.2793 13.1984C96.9728 13.4031 96.6041 13.4934 96.2377 13.4537C95.9827 13.4604 95.7294 13.4116 95.4952 13.3106C95.2611 13.2096 95.0517 13.0589 94.8816 12.8688C94.7115 12.6788 94.5849 12.454 94.5104 12.2101C94.4359 11.9663 94.4154 11.7091 94.4502 11.4565C94.4163 11.2031 94.4372 10.9453 94.5115 10.7007C94.5858 10.4561 94.7118 10.2303 94.881 10.0386C95.0502 9.84689 95.2585 9.69378 95.492 9.58963C95.7255 9.48547 95.9786 9.4327 96.2343 9.43488C97.311 9.43488 97.9605 10.1705 97.9605 11.3855V11.652H95.2281V11.6948C95.2162 11.8368 95.234 11.9797 95.2805 12.1144C95.327 12.2491 95.4012 12.3726 95.4982 12.477C95.5952 12.5813 95.713 12.6643 95.8439 12.7205C95.9749 12.7767 96.1161 12.8049 96.2586 12.8033C96.4413 12.8252 96.6264 12.7923 96.7903 12.7088C96.9542 12.6253 97.0896 12.4949 97.1792 12.3342L97.9143 12.3342ZM95.2281 11.0872H97.1825C97.1922 10.9573 97.1745 10.8269 97.1307 10.7043C97.0869 10.5816 97.018 10.4695 96.9283 10.3751C96.8386 10.2807 96.7301 10.2061 96.6099 10.1561C96.4896 10.1061 96.3603 10.0818 96.2301 10.0848C96.098 10.0832 95.9669 10.108 95.8446 10.1578C95.7223 10.2075 95.6111 10.2813 95.5177 10.3747C95.4244 10.4682 95.3506 10.5793 95.3009 10.7017C95.2512 10.8241 95.2264 10.9551 95.2281 11.0872H95.2281Z" fill="white"/>
</g>
<defs>
<clipPath id="clip0_346_5043">
<rect width="116.008" height="34.3726" fill="white" transform="translate(0.992432 0.749023)"/>
</clipPath>
</defs>
</svg>
