<svg width="32" height="32" viewBox="0 0 32 32" fill="none" xmlns="http://www.w3.org/2000/svg">
<path d="M16.9998 8.0013C16.9998 7.44902 16.5521 7.0013 15.9998 7.0013C15.4475 7.0013 14.9998 7.44902 14.9998 8.0013V13.3346C14.9998 13.8869 15.4475 14.3346 15.9998 14.3346C16.5521 14.3346 16.9998 13.8869 16.9998 13.3346V8.0013Z" fill="#1C2534"/>
<path fill-rule="evenodd" clip-rule="evenodd" d="M5.66656 12.0013C5.66656 6.29436 10.2929 1.66797 15.9999 1.66797C21.7068 1.66797 26.3332 6.29436 26.3332 12.0013V12.9401C26.3332 13.8693 26.6083 14.7778 27.1237 15.5509L28.6552 17.8481C30.4327 20.5143 29.0757 24.1384 25.9843 24.9815C24.9767 25.2563 23.9607 25.4887 22.9387 25.6788L22.9362 25.6856C21.9109 28.4214 19.1705 30.3346 15.9998 30.3346C12.8291 30.3346 10.0887 28.4214 9.06341 25.6856L9.06088 25.6787C8.039 25.4887 7.02301 25.2563 6.01553 24.9815C2.92407 24.1384 1.56713 20.5143 3.34459 17.8481L4.87606 15.5509C5.3915 14.7778 5.66656 13.8693 5.66656 12.9401V12.0013ZM11.4978 26.0506C14.4884 26.4079 17.5112 26.4079 20.5018 26.0506C19.5538 27.4126 17.9051 28.3346 15.9998 28.3346C14.0945 28.3346 12.4458 27.4126 11.4978 26.0506ZM15.9999 3.66797C11.3975 3.66797 7.66656 7.39893 7.66656 12.0013V12.9401C7.66656 14.2642 7.27463 15.5586 6.54016 16.6603L5.00869 18.9575C3.98846 20.4879 4.76732 22.568 6.54176 23.052C12.7341 24.7408 19.2657 24.7408 25.458 23.052C27.2325 22.568 28.0113 20.4879 26.9911 18.9575L25.4596 16.6603C24.7252 15.5586 24.3332 14.2642 24.3332 12.9401V12.0013C24.3332 7.39893 20.6023 3.66797 15.9999 3.66797Z" fill="#1C2534"/>
</svg>
