<svg width="32" height="32" viewBox="0 0 32 32" fill="none" xmlns="http://www.w3.org/2000/svg">
<path fill-rule="evenodd" clip-rule="evenodd" d="M14.9842 3.73314C14.1655 3.84134 13.1545 4.07356 11.7164 4.40545L10.0788 4.78335C8.8641 5.06366 8.02759 5.25799 7.38866 5.47727C6.77183 5.68898 6.42287 5.89768 6.15954 6.161C5.89621 6.42433 5.68751 6.77329 5.47581 7.39013C5.25652 8.02906 5.0622 8.86557 4.78188 10.0803L4.40398 11.7178C4.0721 13.156 3.83988 14.167 3.73168 14.9857C3.62627 15.7833 3.65057 16.323 3.79127 16.8136C3.93198 17.3042 4.19739 17.7747 4.70951 18.3952C5.23519 19.0322 5.96793 19.7664 7.01159 20.81L9.45111 23.2496C11.2638 25.0622 12.5536 26.3491 13.6625 27.1951C14.7483 28.0236 15.5423 28.3346 16.3496 28.3346C17.1569 28.3346 17.9509 28.0236 19.0367 27.1951C20.1456 26.3491 21.4354 25.0622 23.2481 23.2496C25.0607 21.4369 26.3476 20.1471 27.1937 19.0382C28.0221 17.9523 28.3332 17.1583 28.3332 16.3511C28.3332 15.5438 28.0221 14.7498 27.1937 13.664C26.3476 12.5551 25.0607 11.2652 23.2481 9.45257L20.8086 7.01306C19.7649 5.9694 19.0307 5.23665 18.3938 4.71098C17.7732 4.19886 17.3027 3.93344 16.8121 3.79274C16.3215 3.65204 15.7819 3.62773 14.9842 3.73314ZM14.7222 1.75038C15.6786 1.62399 16.5173 1.62755 17.3635 1.87024C18.2097 2.11293 18.9228 2.55439 19.6668 3.16848C20.3861 3.76211 21.1871 4.56318 22.1879 5.56393L24.7156 8.09163C26.4631 9.8391 27.8466 11.2226 28.7837 12.4508C29.7479 13.7146 30.3332 14.9307 30.3332 16.3511C30.3332 17.7714 29.7479 18.9876 28.7837 20.2513C27.8466 21.4795 26.4631 22.863 24.7156 24.6105L24.6091 24.717C22.8616 26.4645 21.4781 27.8481 20.2498 28.7852C18.9861 29.7494 17.77 30.3346 16.3496 30.3346C14.9292 30.3346 13.7131 29.7494 12.4494 28.7852C11.2211 27.8481 9.83761 26.4645 8.09012 24.717L5.56245 22.1893C4.5617 21.1886 3.76065 20.3876 3.16701 19.6683C2.55293 18.9242 2.11147 18.2112 1.86878 17.365C1.62609 16.5187 1.62252 15.6801 1.74892 14.7237C1.8711 13.7991 2.12584 12.6953 2.44409 11.3163L2.84497 9.57909C3.11053 8.42828 3.32708 7.48983 3.58412 6.74088C3.85257 5.95871 4.19068 5.30144 4.74533 4.74679C5.29997 4.19215 5.95725 3.85403 6.73942 3.58559C7.48836 3.32854 8.42681 3.11199 9.57763 2.84644L11.3148 2.44555C12.6938 2.12731 13.7976 1.87257 14.7222 1.75038ZM12.6544 10.6615C12.0035 10.0106 10.9483 10.0106 10.2974 10.6615C9.64653 11.3124 9.64653 12.3676 10.2974 13.0185C10.9483 13.6694 12.0035 13.6694 12.6544 13.0185C13.3053 12.3676 13.3053 11.3124 12.6544 10.6615ZM8.88319 9.24728C10.3151 7.81536 12.6367 7.81536 14.0686 9.24728C15.5006 10.6792 15.5006 13.0008 14.0686 14.4327C12.6367 15.8647 10.3151 15.8647 8.88319 14.4327C7.45126 13.0008 7.45126 10.6792 8.88319 9.24728ZM25.4013 14.6549C25.7918 15.0454 25.7918 15.6785 25.4013 16.0691L16.096 25.3747C15.7054 25.7653 15.0723 25.7653 14.6817 25.3748C14.2912 24.9842 14.2912 24.3511 14.6817 23.9606L23.9871 14.6549C24.3776 14.2644 25.0107 14.2643 25.4013 14.6549Z" fill="#1C2534"/>
</svg>
