<svg width="24" height="24" viewBox="0 0 24 24" fill="none" xmlns="http://www.w3.org/2000/svg">
<g clip-path="url(#clip0_1806_795)">
<path d="M12 24.001C18.6274 24.001 24 18.6284 24 12.001C24 5.37358 18.6274 0.000999451 12 0.000999451C5.37258 0.000999451 0 5.37358 0 12.001C0 18.6284 5.37258 24.001 12 24.001Z" fill="#F0F0F0"/>
<path d="M11.4783 12.001H24C24 10.9179 23.8556 9.86866 23.5866 8.87055H11.4783V12.001Z" fill="#D80027"/>
<path d="M11.4783 5.74014H22.2387C21.5041 4.54145 20.5649 3.48194 19.4698 2.60969H11.4783V5.74014Z" fill="#D80027"/>
<path d="M11.9998 24.001C14.824 24.001 17.4198 23.0249 19.4697 21.3923H4.53003C6.57987 23.0249 9.17567 24.001 11.9998 24.001Z" fill="#D80027"/>
<path d="M1.76122 18.2619H22.2387C22.8284 17.2996 23.2857 16.2477 23.5865 15.1314H0.41333C0.714127 16.2477 1.17149 17.2996 1.76122 18.2619Z" fill="#D80027"/>
<path d="M5.55863 1.87497H6.65217L5.63498 2.61395L6.02353 3.80969L5.00639 3.0707L3.98925 3.80969L4.32487 2.7767C3.42928 3.52272 2.64431 4.39675 1.99744 5.37062H2.34783L1.70034 5.84101C1.59947 6.0093 1.50272 6.18025 1.41 6.35373L1.71919 7.30534L1.14234 6.88623C0.998953 7.19003 0.867797 7.50067 0.749906 7.81778L1.09055 8.86628H2.34783L1.33064 9.60527L1.71919 10.801L0.702047 10.062L0.0927656 10.5047C0.0317812 10.9949 0 11.4942 0 12.001H12C12 5.37362 12 4.59231 12 0.000999451C9.62944 0.000999451 7.41961 0.688656 5.55863 1.87497ZM6.02353 10.801L5.00639 10.062L3.98925 10.801L4.3778 9.60527L3.36061 8.86628H4.61789L5.00639 7.67055L5.39489 8.86628H6.65217L5.63498 9.60527L6.02353 10.801ZM5.63498 6.10961L6.02353 7.30534L5.00639 6.56636L3.98925 7.30534L4.3778 6.10961L3.36061 5.37062H4.61789L5.00639 4.17489L5.39489 5.37062H6.65217L5.63498 6.10961ZM10.3279 10.801L9.31073 10.062L8.29359 10.801L8.68214 9.60527L7.66495 8.86628H8.92223L9.31073 7.67055L9.69923 8.86628H10.9565L9.93933 9.60527L10.3279 10.801ZM9.93933 6.10961L10.3279 7.30534L9.31073 6.56636L8.29359 7.30534L8.68214 6.10961L7.66495 5.37062H8.92223L9.31073 4.17489L9.69923 5.37062H10.9565L9.93933 6.10961ZM9.93933 2.61395L10.3279 3.80969L9.31073 3.0707L8.29359 3.80969L8.68214 2.61395L7.66495 1.87497H8.92223L9.31073 0.679234L9.69923 1.87497H10.9565L9.93933 2.61395Z" fill="#0052B4"/>
</g>
<defs>
<clipPath id="clip0_1806_795">
<rect width="24" height="24" fill="white" transform="translate(0 0.000999451)"/>
</clipPath>
</defs>
</svg>
