<svg width="117" height="36" viewBox="0 0 117 36" fill="none" xmlns="http://www.w3.org/2000/svg">
<g clip-path="url(#clip0_346_5044)">
<path d="M112.703 0.870728H5.28901C2.91607 0.870728 0.992432 2.79437 0.992432 5.16731V30.9468C0.992432 33.3197 2.91607 35.2434 5.28901 35.2434H112.703C115.076 35.2434 117 33.3197 117 30.9468V5.16731C117 2.79437 115.076 0.870728 112.703 0.870728Z" fill="#111827"/>
<path d="M41.7397 9.67295C41.7553 9.98827 41.7066 10.3035 41.5965 10.5994C41.4864 10.8953 41.3173 11.1656 41.0993 11.3941C40.8551 11.6474 40.5602 11.8462 40.2338 11.9777C39.9074 12.1091 39.5569 12.1702 39.2053 12.1569C38.8515 12.1601 38.5006 12.0925 38.1732 11.9581C37.8459 11.8237 37.5487 11.6252 37.2991 11.3743C37.0496 11.1234 36.8527 10.8252 36.7201 10.4971C36.5874 10.1691 36.5217 9.81779 36.5268 9.46396C36.5217 9.11012 36.5875 8.75885 36.7201 8.43078C36.8528 8.10271 37.0497 7.80446 37.2992 7.55354C37.5487 7.30263 37.8459 7.10412 38.1732 6.96966C38.5006 6.83521 38.8515 6.76754 39.2053 6.77061C39.5692 6.76951 39.9293 6.84306 40.2636 6.98673C40.574 7.11257 40.8503 7.30995 41.07 7.56281L40.6168 8.01636C40.4441 7.81309 40.227 7.65221 39.9823 7.54614C39.7376 7.44008 39.4717 7.39165 39.2053 7.40461C38.9372 7.40322 38.6715 7.45597 38.4242 7.5597C38.1768 7.66343 37.953 7.81601 37.7661 8.00829C37.5791 8.20057 37.4329 8.4286 37.3362 8.67873C37.2395 8.92885 37.1942 9.19593 37.2031 9.46396C37.1967 9.86543 37.3097 10.2598 37.5277 10.5969C37.7457 10.9341 38.0589 11.199 38.4277 11.3579C38.7964 11.5168 39.204 11.5627 39.5988 11.4896C39.9937 11.4166 40.3579 11.228 40.6454 10.9477C40.9099 10.6626 41.0633 10.2919 41.0775 9.90324H39.2053V9.28393H41.7036C41.7272 9.41227 41.7393 9.54246 41.7397 9.67295Z" fill="white" stroke="white" stroke-width="0.171863" stroke-miterlimit="10"/>
<path d="M45.7008 7.51956H43.3528V9.15424H45.47V9.77363H43.3528V11.4083H45.7008V12.0419H42.6907V6.88599H45.7008V7.51956Z" fill="white" stroke="white" stroke-width="0.171863" stroke-miterlimit="10"/>
<path d="M48.4944 12.0419H47.8314V7.51956H46.3914V6.88599H49.9344V7.51956H48.4944V12.0419Z" fill="white" stroke="white" stroke-width="0.171863" stroke-miterlimit="10"/>
<path d="M52.498 12.0419V6.88599H53.1601V12.0419H52.498Z" fill="white" stroke="white" stroke-width="0.171863" stroke-miterlimit="10"/>
<path d="M56.0989 12.0419H55.4359V7.51956H53.996V6.88599H57.5389V7.51956H56.0989V12.0419Z" fill="white" stroke="white" stroke-width="0.171863" stroke-miterlimit="10"/>
<path d="M64.2459 11.3756C63.7441 11.8759 63.0643 12.1569 62.3557 12.1569C61.647 12.1569 60.9673 11.8759 60.4655 11.3756C60.2172 11.1242 60.022 10.8253 59.8916 10.4969C59.7611 10.1685 59.698 9.81726 59.706 9.46398C59.698 9.11071 59.7611 8.75942 59.8916 8.43102C60.022 8.10262 60.2172 7.80381 60.4655 7.55235C60.7135 7.30424 61.0081 7.10748 61.3322 6.97334C61.6564 6.8392 62.0039 6.77032 62.3547 6.77063C62.7056 6.77094 63.0529 6.84044 63.3768 6.97516C63.7008 7.10987 63.995 7.30715 64.2426 7.5557C64.491 7.8065 64.6866 8.10464 64.8176 8.43245C64.9486 8.76025 65.0125 9.11103 65.0054 9.46398C65.0132 9.81723 64.95 10.1685 64.8195 10.4968C64.6891 10.8252 64.494 11.124 64.2459 11.3756ZM60.9547 10.9439C61.3263 11.3149 61.8301 11.5233 62.3553 11.5233C62.8805 11.5233 63.3842 11.3149 63.7559 10.9439C63.9465 10.7488 64.0955 10.517 64.194 10.2626C64.2925 10.0083 64.3385 9.73659 64.329 9.46398C64.3385 9.19137 64.2925 8.91968 64.194 8.66532C64.0955 8.41095 63.9465 8.1792 63.7559 7.98407C63.3842 7.61302 62.8805 7.40462 62.3553 7.40462C61.8301 7.40462 61.3263 7.61302 60.9547 7.98407C60.7643 8.17936 60.6155 8.41115 60.5172 8.66549C60.4188 8.91983 60.3729 9.19145 60.3824 9.46398C60.3729 9.73651 60.4188 10.0081 60.5172 10.2625C60.6155 10.5168 60.7643 10.7486 60.9547 10.9439Z" fill="white" stroke="white" stroke-width="0.171863" stroke-miterlimit="10"/>
<path d="M65.9354 12.0419V6.88599H66.7419L69.2477 10.8968H69.2762L69.2477 9.90322V6.88599H69.9106V12.0419H69.2191L66.5975 7.83673H66.569L66.5975 8.83036V12.0419H65.9354Z" fill="white" stroke="white" stroke-width="0.171863" stroke-miterlimit="10"/>
<path d="M59.5426 19.5623C58.8204 19.565 58.1151 19.7817 57.5159 20.185C56.9167 20.5882 56.4504 21.16 56.1759 21.8281C55.9014 22.4962 55.831 23.2306 55.9736 23.9386C56.1162 24.6467 56.4653 25.2966 56.977 25.8064C57.4887 26.3161 58.14 26.6628 58.8486 26.8027C59.5572 26.9426 60.2913 26.8694 60.9583 26.5924C61.6254 26.3153 62.1953 25.8469 62.5963 25.2461C62.9973 24.6454 63.2113 23.9393 63.2113 23.2171C63.2184 22.734 63.1282 22.2544 62.9462 21.8069C62.7642 21.3593 62.494 20.953 62.1517 20.612C61.8094 20.271 61.4021 20.0024 60.9538 19.822C60.5056 19.6417 60.0257 19.5534 59.5426 19.5623ZM59.5426 25.4321C59.0978 25.4638 58.6538 25.3609 58.2683 25.1367C57.8828 24.9125 57.5738 24.5775 57.3814 24.1752C57.189 23.7729 57.1222 23.322 57.1896 22.8812C57.2571 22.4404 57.4557 22.0301 57.7596 21.7038C58.0635 21.3774 58.4586 21.1501 58.8935 21.0515C59.3283 20.9528 59.7829 20.9874 60.1978 21.1507C60.6128 21.314 60.969 21.5984 61.22 21.967C61.471 22.3355 61.6053 22.7711 61.6053 23.2171C61.6188 23.4988 61.5758 23.7804 61.4789 24.0452C61.3819 24.3101 61.2329 24.5528 61.0407 24.7592C60.8485 24.9656 60.6169 25.1315 60.3597 25.2471C60.1024 25.3626 59.8246 25.4255 59.5426 25.4321ZM51.5395 19.5623C50.8172 19.565 50.1119 19.7817 49.5127 20.1849C48.9135 20.5882 48.4472 21.16 48.1727 21.828C47.8982 22.4961 47.8278 23.2305 47.9703 23.9386C48.1129 24.6466 48.4621 25.2966 48.9738 25.8063C49.4855 26.3161 50.1367 26.6628 50.8453 26.8027C51.5539 26.9426 52.2881 26.8694 52.9551 26.5924C53.6221 26.3154 54.1921 25.8469 54.5931 25.2462C54.9941 24.6454 55.2081 23.9393 55.2081 23.2171C55.2152 22.734 55.125 22.2544 54.943 21.8069C54.761 21.3593 54.4908 20.953 54.1485 20.612C53.8062 20.271 53.3989 20.0024 52.9507 19.8221C52.5024 19.6417 52.0225 19.5534 51.5395 19.5623ZM51.5395 25.4321C51.0947 25.4638 50.6506 25.3609 50.2651 25.1367C49.8797 24.9125 49.5706 24.5775 49.3782 24.1752C49.1858 23.7729 49.119 23.322 49.1865 22.8812C49.2539 22.4404 49.4525 22.0301 49.7564 21.7038C50.0603 21.3774 50.4554 21.1501 50.8903 21.0515C51.3252 20.9528 51.7797 20.9874 52.1947 21.1507C52.6096 21.314 52.9658 21.5984 53.2169 21.967C53.4679 22.3355 53.6022 22.7711 53.6022 23.2171C53.6157 23.4988 53.5727 23.7804 53.4757 24.0452C53.3788 24.3101 53.2298 24.5528 53.0376 24.7592C52.8454 24.9657 52.6138 25.1315 52.3565 25.2471C52.0992 25.3626 51.8214 25.4256 51.5395 25.4321ZM42.0193 20.6837V22.2342H45.7295C45.676 22.9614 45.3784 23.6493 44.885 24.1862C44.5132 24.5652 44.0661 24.862 43.5725 25.0575C43.0789 25.2531 42.5498 25.3429 42.0193 25.3214C40.9348 25.3067 39.8997 24.8656 39.138 24.0935C38.3763 23.3214 37.9493 22.2804 37.9493 21.1959C37.9493 20.1113 38.3763 19.0703 39.138 18.2983C39.8997 17.5262 40.9348 17.0851 42.0193 17.0704C43.061 17.0568 44.0659 17.4548 44.8158 18.1779L45.9095 17.0842C45.3978 16.5777 44.7902 16.1784 44.1221 15.9097C43.4541 15.6411 42.7392 15.5085 42.0193 15.5198C41.2669 15.5089 40.5199 15.6476 39.8217 15.9279C39.1234 16.2083 38.4879 16.6246 37.952 17.1528C37.4161 17.6809 36.9905 18.3103 36.7001 19.0044C36.4096 19.6985 36.26 20.4434 36.26 21.1959C36.26 21.9483 36.4096 22.6932 36.7001 23.3873C36.9905 24.0814 37.4161 24.7108 37.952 25.239C38.4879 25.7671 39.1234 26.1835 39.8217 26.4638C40.5199 26.7441 41.2669 26.8829 42.0193 26.8719C42.7544 26.9024 43.4876 26.7762 44.1702 26.5017C44.8528 26.2272 45.4693 25.8107 45.9787 25.2799C46.883 24.2927 47.3651 22.9908 47.3216 21.6528C47.3251 21.3278 47.2973 21.0033 47.2384 20.6837H42.0193ZM80.9534 21.888C80.7338 21.2261 80.3157 20.6477 79.7559 20.2316C79.1961 19.8155 78.5218 19.5818 77.8246 19.5623C77.3551 19.5652 76.8909 19.6633 76.4603 19.8507C76.0298 20.0381 75.6416 20.3108 75.3194 20.6524C74.9972 20.994 74.7476 21.3974 74.5857 21.8382C74.4239 22.2791 74.3531 22.7481 74.3776 23.2171C74.367 23.6976 74.4534 24.1753 74.6316 24.6217C74.8097 25.0681 75.0761 25.4739 75.4146 25.8151C75.7532 26.1562 76.157 26.4257 76.602 26.6072C77.047 26.7888 77.5241 26.8788 78.0047 26.8719C78.6067 26.8752 79.2002 26.729 79.7318 26.4463C80.2634 26.1636 80.7164 25.7533 81.0503 25.2522L79.8043 24.4216C79.6177 24.7315 79.3536 24.9877 79.0381 25.1648C78.7226 25.342 78.3665 25.4341 78.0047 25.4321C77.6323 25.4464 77.2643 25.3484 76.9483 25.1509C76.6323 24.9534 76.383 24.6656 76.2326 24.3246L81.1196 22.3034L80.9534 21.888ZM75.9696 23.1064C75.9524 22.8404 75.9884 22.5736 76.0756 22.3217C76.1627 22.0698 76.2992 21.8378 76.4771 21.6392C76.655 21.4407 76.8707 21.2797 77.1116 21.1655C77.3525 21.0514 77.6137 20.9864 77.88 20.9744C78.1573 20.9562 78.4338 21.02 78.6751 21.1578C78.9163 21.2957 79.1117 21.5015 79.2368 21.7497L75.9696 23.1064ZM71.9963 26.6504H73.6022V15.9076H71.9963V26.6504ZM69.366 20.3791H69.3106C69.0665 20.1138 68.7685 19.9037 68.4367 19.7629C68.1048 19.622 67.7467 19.5536 67.3863 19.5623C66.4439 19.6024 65.5534 20.005 64.9007 20.686C64.2481 21.367 63.8837 22.2738 63.8837 23.2171C63.8837 24.1604 64.2481 25.0672 64.9007 25.7482C65.5534 26.4292 66.4439 26.8318 67.3863 26.8719C67.7481 26.8815 68.1077 26.8122 68.44 26.6688C68.7724 26.5253 69.0695 26.3112 69.3106 26.0413H69.366V26.5674C69.366 27.9656 68.6185 28.7132 67.4139 28.7132C67.0125 28.7036 66.6231 28.5747 66.2952 28.3429C65.9673 28.1111 65.7158 27.787 65.5728 27.4118L64.1745 27.9933C64.438 28.6349 64.8872 29.1833 65.4643 29.568C66.0414 29.9528 66.7203 30.1565 67.4139 30.1529C69.2968 30.1529 70.8889 29.0455 70.8889 26.3458V19.7838H69.366V20.3791ZM67.5248 25.4321C66.9697 25.3851 66.4526 25.1313 66.0757 24.7211C65.6988 24.3109 65.4897 23.7742 65.4897 23.2171C65.4897 22.6601 65.6988 22.1233 66.0757 21.7131C66.4526 21.3029 66.9697 21.0492 67.5248 21.0021C67.8009 21.0156 68.0716 21.0845 68.3205 21.2048C68.5694 21.3251 68.7916 21.4943 68.9737 21.7023C69.1559 21.9103 69.2943 22.1528 69.3807 22.4154C69.4671 22.6781 69.4998 22.9554 69.4767 23.2309C69.4983 23.5047 69.4645 23.7801 69.3772 24.0405C69.2899 24.3009 69.151 24.541 68.9688 24.7465C68.7866 24.952 68.5648 25.1187 68.3167 25.2365C68.0685 25.3543 67.7992 25.4208 67.5248 25.4321ZM88.4758 15.9077H84.6336V26.6504H86.2368V22.5803H88.4758C88.9293 22.6052 89.3831 22.5373 89.8095 22.3809C90.2359 22.2244 90.6259 21.9827 90.9558 21.6705C91.2856 21.3582 91.5483 20.982 91.7278 20.5648C91.9074 20.1476 92 19.6982 92 19.244C92 18.7898 91.9074 18.3404 91.7278 17.9232C91.5483 17.506 91.2856 17.1298 90.9558 16.8176C90.6259 16.5053 90.2359 16.2636 89.8095 16.1072C89.3831 15.9507 88.9293 15.8829 88.4758 15.9077ZM88.5172 21.0853H86.2368V17.4028H88.5172C88.7622 17.3978 89.0057 17.4416 89.2336 17.5319C89.4614 17.6221 89.6689 17.757 89.844 17.9284C90.0191 18.0999 90.1581 18.3046 90.2531 18.5305C90.348 18.7564 90.397 18.999 90.397 19.2441C90.397 19.4891 90.348 19.7317 90.2531 19.9576C90.1581 20.1835 90.0191 20.3882 89.844 20.5597C89.6689 20.7312 89.4614 20.866 89.2336 20.9562C89.0057 21.0465 88.7622 21.0904 88.5172 21.0853ZM98.4266 19.5425C97.8414 19.5084 97.2589 19.6458 96.7507 19.938C96.2425 20.2301 95.8306 20.6643 95.5656 21.1872L96.9892 21.7815C97.1303 21.522 97.3441 21.3092 97.6043 21.1693C97.8645 21.0294 98.1598 20.9683 98.4541 20.9937C98.8609 20.954 99.2668 21.0771 99.5829 21.3362C99.8989 21.5953 100.099 21.9691 100.14 22.3757V22.4863C99.6254 22.2128 99.051 22.0703 98.468 22.0717C96.9339 22.0717 95.3722 22.9148 95.3722 24.4903C95.3871 24.8224 95.4686 25.148 95.6117 25.448C95.7549 25.748 95.9569 26.0161 96.2056 26.2365C96.4544 26.457 96.7449 26.6252 97.06 26.7312C97.375 26.8372 97.7081 26.8788 98.0395 26.8536C98.4432 26.8774 98.8459 26.7925 99.2057 26.6077C99.5655 26.423 99.8691 26.1452 100.085 25.8033H100.14V26.6325H101.688V22.514C101.688 20.6067 100.265 19.5425 98.4266 19.5425ZM98.233 25.4301C97.7078 25.4301 96.9753 25.1675 96.9753 24.5179C96.9753 23.6887 97.8875 23.3708 98.6753 23.3708C99.187 23.3572 99.693 23.4813 100.14 23.7302C100.081 24.1961 99.8558 24.625 99.5052 24.9375C99.1546 25.25 98.7027 25.425 98.233 25.4301ZM107.327 19.7775L105.489 24.435H105.434L103.526 19.7775H101.799L104.66 26.287L103.029 29.908H104.701L109.11 19.7775H107.327ZM92.8845 26.6504H94.4876V15.9077H92.8845V26.6504Z" fill="white"/>
<path d="M9.95953 7.3484C9.67775 7.68531 9.53547 8.11722 9.56184 8.55565V27.5604C9.53539 27.9988 9.67768 28.4307 9.95953 28.7676L10.0231 28.8296L20.6692 18.1836V17.9324L10.0231 7.28601L9.95953 7.3484Z" fill="url(#paint0_linear_346_5044)"/>
<path d="M24.2179 21.7337L20.6694 18.1836V17.9324L24.2188 14.3831L24.2988 14.4287L28.5032 16.8177C29.7042 17.5 29.7042 18.6164 28.5032 19.2991L24.2988 21.6881L24.2179 21.7337Z" fill="url(#paint1_linear_346_5044)"/>
<path d="M24.2984 21.6876L20.6691 18.058L9.95947 28.7675C10.2042 28.9834 10.5167 29.1068 10.8428 29.1164C11.169 29.1261 11.4882 29.0213 11.7452 28.8203L24.2984 21.6876Z" fill="url(#paint2_linear_346_5044)"/>
<path d="M24.2984 14.4282L11.7452 7.29551C11.4882 7.09451 11.169 6.98975 10.8428 6.99939C10.5167 7.00903 10.2042 7.13245 9.95947 7.34827L20.6691 18.0579L24.2984 14.4282Z" fill="url(#paint3_linear_346_5044)"/>
<path opacity="0.2" d="M24.2184 21.6077L11.7452 28.6947C11.4981 28.8828 11.1965 28.9855 10.8859 28.9871C10.5753 28.9888 10.2726 28.8894 10.0235 28.7039L9.95947 28.7679L10.0231 28.8299L10.0235 28.8294C10.2726 29.015 10.5753 29.1145 10.8859 29.1128C11.1965 29.1112 11.4981 29.0085 11.7452 28.8202L24.2984 21.6876L24.2184 21.6077Z" fill="#111827"/>
<path opacity="0.12" d="M9.95951 28.6424C9.67776 28.3055 9.53548 27.8736 9.56182 27.4352V27.5607C9.53546 27.9992 9.67774 28.4311 9.95951 28.768L10.0235 28.704L9.95951 28.6424Z" fill="#111827"/>
<path opacity="0.12" d="M28.5032 19.1731L24.2188 21.6078L24.2988 21.6877L28.5032 19.2987C28.7505 19.1914 28.9646 19.0197 29.123 18.8015C29.2814 18.5834 29.3785 18.3267 29.404 18.0583C29.3509 18.3014 29.2418 18.5287 29.0854 18.7222C28.929 18.9157 28.7297 19.0701 28.5032 19.1731Z" fill="#111827"/>
<path opacity="0.25" d="M11.7456 7.42152L28.5033 16.9427C28.7298 17.0457 28.9292 17.2002 29.0856 17.3938C29.242 17.5874 29.351 17.8148 29.4041 18.058C29.3787 17.7895 29.2817 17.5327 29.1233 17.3144C28.9648 17.0962 28.7507 16.9245 28.5033 16.8172L11.7456 7.29598C10.5446 6.61359 9.56213 7.1804 9.56213 8.55599V8.68154C9.56213 7.30603 10.5446 6.73922 11.7456 7.42152Z" fill="white"/>
</g>
<defs>
<linearGradient id="paint0_linear_346_5044" x1="19.7251" y1="8.35527" x2="5.3037" y2="22.7767" gradientUnits="userSpaceOnUse">
<stop stop-color="#00A0FF"/>
<stop offset="0.00657" stop-color="#00A1FF"/>
<stop offset="0.2601" stop-color="#00BEFF"/>
<stop offset="0.5122" stop-color="#00D2FF"/>
<stop offset="0.7604" stop-color="#00DFFF"/>
<stop offset="1" stop-color="#00E3FF"/>
</linearGradient>
<linearGradient id="paint1_linear_346_5044" x1="30.0669" y1="18.0584" x2="9.27412" y2="18.0584" gradientUnits="userSpaceOnUse">
<stop stop-color="#FFE000"/>
<stop offset="0.4087" stop-color="#FFBD00"/>
<stop offset="0.7754" stop-color="#FFA500"/>
<stop offset="1" stop-color="#FF9C00"/>
</linearGradient>
<linearGradient id="paint2_linear_346_5044" x1="22.3264" y1="20.0302" x2="2.76981" y2="39.5867" gradientUnits="userSpaceOnUse">
<stop stop-color="#FF3A44"/>
<stop offset="1" stop-color="#C31162"/>
</linearGradient>
<linearGradient id="paint3_linear_346_5044" x1="7.26288" y1="1.02214" x2="15.9957" y2="9.75496" gradientUnits="userSpaceOnUse">
<stop stop-color="#32A071"/>
<stop offset="0.0685" stop-color="#2DA771"/>
<stop offset="0.4762" stop-color="#15CF74"/>
<stop offset="0.8009" stop-color="#06E775"/>
<stop offset="1" stop-color="#00F076"/>
</linearGradient>
<clipPath id="clip0_346_5044">
<rect width="116.008" height="34.3728" fill="white" transform="translate(0.992432 0.870728)"/>
</clipPath>
</defs>
</svg>
