<svg width="40" height="40" viewBox="0 0 40 40" fill="none" xmlns="http://www.w3.org/2000/svg">
<rect width="40" height="40" rx="20" fill="#374151"/>
<path d="M16.3518 28.2418C17.1929 29.311 18.5142 30 20 30C21.4858 30 22.8071 29.311 23.6482 28.2418C21.2264 28.57 18.7736 28.57 16.3518 28.2418Z" fill="white"/>
<path fill-rule="evenodd" clip-rule="evenodd" d="M26.7491 17.7041V17C26.7491 13.134 23.7274 10 20 10C16.2726 10 13.2509 13.134 13.2509 17V17.7041C13.2509 18.5491 13.0097 19.3752 12.5578 20.0782L11.4504 21.8012C10.4388 23.3749 11.211 25.5139 12.9704 26.0116C17.5727 27.3134 22.4273 27.3134 27.0296 26.0116C28.789 25.5139 29.5612 23.3749 28.5496 21.8012L27.4422 20.0782C26.9903 19.3752 26.7491 18.5491 26.7491 17.7041ZM20 13.25C20.4142 13.25 20.75 13.5858 20.75 14V18C20.75 18.4142 20.4142 18.75 20 18.75C19.5858 18.75 19.25 18.4142 19.25 18V14C19.25 13.5858 19.5858 13.25 20 13.25Z" fill="white"/>
</svg>
