<svg width="32" height="32" viewBox="0 0 32 32" fill="none" xmlns="http://www.w3.org/2000/svg">
<path fill-rule="evenodd" clip-rule="evenodd" d="M15.9323 2H16.0677H16.0678C17.2379 1.99996 18.2136 1.99993 18.9882 2.10407C19.8058 2.214 20.5439 2.4558 21.1371 3.04897C21.7302 3.64214 21.9721 4.3803 22.082 5.19789C22.1589 5.77039 22.179 6.45277 22.1842 7.24229C23.0288 7.2694 23.7817 7.31878 24.4508 7.40874C25.9777 7.61402 27.2135 8.04655 28.1881 9.02116C29.1628 9.99577 29.5953 11.2316 29.8006 12.7585C30 14.2421 30 16.1378 30 18.5311V18.5312V18.6781V18.6782C30 21.0715 30 22.9672 29.8006 24.4508C29.5953 25.9777 29.1628 27.2135 28.1881 28.1882C27.2135 29.1628 25.9777 29.5953 24.4508 29.8006C22.9672 30 21.0715 30 18.6782 30H18.6781H18.6781H13.3219H13.3219H13.3218C10.9285 30 9.0328 30 7.54918 29.8006C6.02231 29.5953 4.78646 29.1628 3.81185 28.1882C2.83724 27.2135 2.40472 25.9777 2.19943 24.4508C1.99996 22.9672 1.99998 21.0715 2 18.6781V18.6781V18.5312V18.5312C1.99998 16.1378 1.99996 14.2421 2.19943 12.7585C2.40472 11.2316 2.83724 9.99577 3.81185 9.02116C4.78646 8.04655 6.02231 7.61402 7.54918 7.40874C8.21828 7.31878 8.9712 7.2694 9.81577 7.24229C9.82099 6.45277 9.84105 5.77039 9.91802 5.19789C10.0279 4.3803 10.2697 3.64214 10.8629 3.04897C11.4561 2.4558 12.1942 2.214 13.0118 2.10407C13.7864 1.99993 14.7621 1.99996 15.9322 2H15.9323ZM13.3216 7.20931H13.3217H13.3219H18.6781H18.6783H18.6784C19.2209 7.2093 19.7379 7.2093 20.2302 7.21162C20.2247 6.46888 20.2065 5.90861 20.1459 5.45819C20.0651 4.85722 19.9255 4.60001 19.7558 4.4303C19.586 4.26058 19.3288 4.12094 18.7279 4.04014C18.0988 3.95557 17.2555 3.95349 16 3.95349C14.7445 3.95349 13.9012 3.95557 13.2721 4.04014C12.6712 4.12094 12.414 4.26058 12.2442 4.4303C12.0745 4.60001 11.9349 4.85722 11.8541 5.45819C11.7935 5.90861 11.7753 6.46887 11.7698 7.21162C12.2621 7.2093 12.7791 7.2093 13.3216 7.20931ZM5.19318 10.4025C5.65537 9.94029 6.26083 9.63337 7.21693 9.44244V27.7669C6.26083 27.5759 5.65537 27.269 5.19318 26.8068C4.64202 26.2557 4.31166 25.5008 4.1355 24.1905C3.95556 22.8522 3.95349 21.088 3.95349 18.6047C3.95349 16.1214 3.95556 14.3571 4.1355 13.0188C4.31166 11.7085 4.64202 10.9536 5.19318 10.4025ZM13.3953 28.0465C11.6741 28.0465 10.2984 28.0455 9.17042 27.985V9.22432C10.2984 9.16379 11.6741 9.16279 13.3953 9.16279H18.6047C20.3299 9.16279 21.7081 9.1638 22.8375 9.22475V27.9846C21.7081 28.0455 20.3299 28.0465 18.6047 28.0465H13.3953ZM24.791 27.7653C25.7425 27.5742 26.3459 27.2677 26.8068 26.8068C27.358 26.2557 27.6883 25.5008 27.8645 24.1905C28.0444 22.8522 28.0465 21.088 28.0465 18.6047C28.0465 16.1214 28.0444 14.3571 27.8645 13.0188C27.6883 11.7085 27.358 10.9536 26.8068 10.4025C26.3459 9.94157 25.7425 9.63507 24.791 9.44403V27.7653Z" fill="#1C2534"/>
</svg>
