<svg width="32" height="32" viewBox="0 0 32 32" fill="none" xmlns="http://www.w3.org/2000/svg">
<rect width="32" height="32" rx="16" fill="white"/>
<path d="M16.8866 8.52835C17.3793 8.07084 18.1456 8.08503 18.621 8.56045L20.4396 10.3791C20.9151 10.8545 20.9292 11.6208 20.4717 12.1135L14.2996 18.7604C14.1577 18.9132 13.9586 19.0001 13.75 19.0001H10.75C10.3358 19.0001 10 18.6643 10 18.2501V15.2501C10 15.0415 10.0868 14.8424 10.2397 14.7005L16.8866 8.52835Z" fill="#160042"/>
<path d="M10 21.2501C10 20.8359 10.3358 20.5001 10.75 20.5001H21.25C21.6642 20.5001 22 20.8359 22 21.2501C22 21.6643 21.6642 22.0001 21.25 22.0001H10.75C10.3358 22.0001 10 21.6643 10 21.2501Z" fill="#160042"/>
</svg>
