<svg width="16" height="16" viewBox="0 0 16 16" fill="none" xmlns="http://www.w3.org/2000/svg">
<path fill-rule="evenodd" clip-rule="evenodd" d="M2.67144 6.07001L6.67144 2.51446C7.42921 1.84088 8.57112 1.84088 9.32889 2.51446L13.3289 6.07001C13.7559 6.44955 14.0002 6.99356 14.0002 7.56483V14.1667H14.6668C14.943 14.1667 15.1668 14.3906 15.1668 14.6667C15.1668 14.9428 14.943 15.1667 14.6668 15.1667H1.3335C1.05735 15.1667 0.833496 14.9428 0.833496 14.6667C0.833496 14.3906 1.05735 14.1667 1.3335 14.1667H2.00016V7.56483C2.00016 6.99356 2.24446 6.44955 2.67144 6.07001ZM6.16683 6.00003C6.16683 5.72389 6.39069 5.50003 6.66683 5.50003H9.3335C9.60964 5.50003 9.8335 5.72389 9.8335 6.00003C9.8335 6.27618 9.60964 6.50003 9.3335 6.50003H6.66683C6.39069 6.50003 6.16683 6.27618 6.16683 6.00003ZM9.36816 7.50003C9.96715 7.50001 10.4666 7.5 10.8631 7.55331C11.2817 7.60958 11.6595 7.73336 11.9632 8.03701C12.2668 8.34065 12.3906 8.71852 12.4469 9.13705C12.5002 9.53357 12.5002 10.033 12.5002 10.632L12.5002 14.1667H11.5002V10.6667C11.5002 10.024 11.4991 9.59232 11.4558 9.2703C11.4144 8.96265 11.343 8.83099 11.2561 8.74411C11.1692 8.65723 11.0375 8.58575 10.7299 8.54439C10.4079 8.5011 9.97617 8.50003 9.3335 8.50003H6.66683C6.02416 8.50003 5.59245 8.5011 5.27042 8.54439C4.96278 8.58575 4.83112 8.65723 4.74424 8.74411C4.65736 8.83099 4.58588 8.96265 4.54452 9.2703C4.50122 9.59232 4.50016 10.024 4.50016 10.6667V14.1667H3.50016L3.50016 10.632C3.50014 10.033 3.50013 9.53357 3.55344 9.13705C3.60971 8.71852 3.73349 8.34065 4.03713 8.037C4.34078 7.73336 4.71865 7.60958 5.13718 7.55331C5.5337 7.5 6.03318 7.50001 6.63216 7.50003H9.36816ZM5.50016 10.3334C5.50016 10.0572 5.72402 9.83337 6.00016 9.83337H10.0002C10.2763 9.83337 10.5002 10.0572 10.5002 10.3334C10.5002 10.6095 10.2763 10.8334 10.0002 10.8334H6.00016C5.72402 10.8334 5.50016 10.6095 5.50016 10.3334ZM5.50016 12.3334C5.50016 12.0572 5.72402 11.8334 6.00016 11.8334H10.0002C10.2763 11.8334 10.5002 12.0572 10.5002 12.3334C10.5002 12.6095 10.2763 12.8334 10.0002 12.8334H6.00016C5.72402 12.8334 5.50016 12.6095 5.50016 12.3334Z" fill="#4B92FF"/>
</svg>
