<svg width="24" height="24" viewBox="0 0 24 24" fill="none" xmlns="http://www.w3.org/2000/svg">
<path fill-rule="evenodd" clip-rule="evenodd" d="M12 4C7.58172 4 4 7.58172 4 12C4 16.4183 7.58172 20 12 20C16.4183 20 20 16.4183 20 12C20 7.58172 16.4183 4 12 4ZM10.7803 9.71967C10.4874 9.42678 10.0126 9.42678 9.71967 9.71967C9.42678 10.0126 9.42678 10.4874 9.71967 10.7803L10.9393 12L9.71967 13.2197C9.42678 13.5126 9.42678 13.9874 9.71967 14.2803C10.0126 14.5732 10.4874 14.5732 10.7803 14.2803L12 13.0607L13.2197 14.2803C13.5126 14.5732 13.9874 14.5732 14.2803 14.2803C14.5732 13.9874 14.5732 13.5126 14.2803 13.2197L13.0607 12L14.2803 10.7803C14.5732 10.4874 14.5732 10.0126 14.2803 9.71967C13.9874 9.42678 13.5126 9.42678 13.2197 9.71967L12 10.9393L10.7803 9.71967Z" fill="#9CA3AF"/>
</svg>
