<svg width="36" height="36" viewBox="0 0 36 36" fill="none" xmlns="http://www.w3.org/2000/svg">
<path fill-rule="evenodd" clip-rule="evenodd" d="M18 6C11.3726 6 6 11.3726 6 18C6 24.6274 11.3726 30 18 30C24.6274 30 30 24.6274 30 18C30 11.3726 24.6274 6 18 6ZM18 13.125C18.6213 13.125 19.125 13.6287 19.125 14.25V16.875H21.75C22.3713 16.875 22.875 17.3787 22.875 18C22.875 18.6213 22.3713 19.125 21.75 19.125H19.125V21.75C19.125 22.3713 18.6213 22.875 18 22.875C17.3787 22.875 16.875 22.3713 16.875 21.75V19.125H14.25C13.6287 19.125 13.125 18.6213 13.125 18C13.125 17.3787 13.6287 16.875 14.25 16.875H16.875V14.25C16.875 13.6287 17.3787 13.125 18 13.125Z" fill="#FBD1A5"/>
</svg>
