<svg width="16" height="16" viewBox="0 0 16 16" fill="none" xmlns="http://www.w3.org/2000/svg">
<path d="M8.5252 14.335L1.99854 7.80829V9.14163C1.99854 9.49496 2.13854 9.83496 2.39187 10.0816L7.5852 15.275C8.1052 15.795 8.95187 15.795 9.47187 15.275L13.6119 11.135C14.1319 10.615 14.1319 9.76829 13.6119 9.24829L8.5252 14.335Z" fill="#F68B1F"/>
<path d="M7.5852 11.9416C8.1052 12.4616 8.95187 12.4616 9.47187 11.9416L13.6119 7.80163C14.1319 7.28163 14.1319 6.43496 13.6119 5.91496L8.41853 0.721628C8.1652 0.474961 7.8252 0.334961 7.47187 0.334961H3.33187C2.59854 0.334961 1.99854 0.934961 1.99854 1.66829V5.80829C1.99854 6.16163 2.13854 6.50163 2.39187 6.74829L7.5852 11.9416ZM4.83187 2.33496C5.29187 2.33496 5.6652 2.70829 5.6652 3.16829C5.6652 3.62829 5.29187 4.00163 4.83187 4.00163C4.37187 4.00163 3.99854 3.62829 3.99854 3.16829C3.99854 2.70829 4.37187 2.33496 4.83187 2.33496Z" fill="#F68B1F"/>
</svg>
