<svg width="21" height="20" viewBox="0 0 21 20" fill="none" xmlns="http://www.w3.org/2000/svg">
<path fill-rule="evenodd" clip-rule="evenodd" d="M10.4998 6.87492C8.77395 6.87492 7.37484 8.27403 7.37484 9.99992C7.37484 11.7258 8.77395 13.1249 10.4998 13.1249C12.2257 13.1249 13.6248 11.7258 13.6248 9.99992C13.6248 8.27403 12.2257 6.87492 10.4998 6.87492ZM8.62484 9.99992C8.62484 8.96438 9.4643 8.12492 10.4998 8.12492C11.5354 8.12492 12.3748 8.96438 12.3748 9.99992C12.3748 11.0355 11.5354 11.8749 10.4998 11.8749C9.4643 11.8749 8.62484 11.0355 8.62484 9.99992Z" fill="#F6F7F9"/>
<path fill-rule="evenodd" clip-rule="evenodd" d="M10.4998 2.70825C6.73806 2.70825 4.20425 4.96175 2.73364 6.8723L2.70712 6.90675C2.37454 7.3387 2.06822 7.73652 1.86041 8.20692C1.63787 8.71064 1.5415 9.25966 1.5415 9.99992C1.5415 10.7402 1.63787 11.2892 1.86041 11.7929C2.06822 12.2633 2.37454 12.6611 2.70713 13.0931L2.73364 13.1275C4.20425 15.0381 6.73806 17.2916 10.4998 17.2916C14.2616 17.2916 16.7954 15.0381 18.266 13.1275L18.2925 13.0931C18.6251 12.6612 18.9314 12.2633 19.1393 11.7929C19.3618 11.2892 19.4582 10.7402 19.4582 9.99992C19.4582 9.25966 19.3618 8.71064 19.1393 8.20692C18.9314 7.73651 18.6251 7.33868 18.2925 6.90673L18.266 6.8723C16.7954 4.96175 14.2616 2.70825 10.4998 2.70825ZM3.72419 7.63475C5.08203 5.87068 7.2918 3.95825 10.4998 3.95825C13.7079 3.95825 15.9176 5.87068 17.2755 7.63475C17.641 8.10958 17.8551 8.3933 17.9959 8.71204C18.1275 9.00993 18.2082 9.37403 18.2082 9.99992C18.2082 10.6258 18.1275 10.9899 17.9959 11.2878C17.8551 11.6065 17.641 11.8903 17.2755 12.3651C15.9176 14.1292 13.7079 16.0416 10.4998 16.0416C7.2918 16.0416 5.08204 14.1292 3.72419 12.3651C3.3587 11.8903 3.14462 11.6065 3.0038 11.2878C2.8722 10.9899 2.7915 10.6258 2.7915 9.99992C2.7915 9.37403 2.8722 9.00993 3.0038 8.71204C3.14462 8.3933 3.3587 8.10958 3.72419 7.63475Z" fill="#F6F7F9"/>
<path fill-rule="evenodd" clip-rule="evenodd" d="M10.4998 6.87492C8.77395 6.87492 7.37484 8.27403 7.37484 9.99992C7.37484 11.7258 8.77395 13.1249 10.4998 13.1249C12.2257 13.1249 13.6248 11.7258 13.6248 9.99992C13.6248 8.27403 12.2257 6.87492 10.4998 6.87492ZM8.62484 9.99992C8.62484 8.96438 9.4643 8.12492 10.4998 8.12492C11.5354 8.12492 12.3748 8.96438 12.3748 9.99992C12.3748 11.0355 11.5354 11.8749 10.4998 11.8749C9.4643 11.8749 8.62484 11.0355 8.62484 9.99992Z" stroke="#F6F7F9"/>
<path fill-rule="evenodd" clip-rule="evenodd" d="M10.4998 2.70825C6.73806 2.70825 4.20425 4.96175 2.73364 6.8723L2.70712 6.90675C2.37454 7.3387 2.06822 7.73652 1.86041 8.20692C1.63787 8.71064 1.5415 9.25966 1.5415 9.99992C1.5415 10.7402 1.63787 11.2892 1.86041 11.7929C2.06822 12.2633 2.37454 12.6611 2.70713 13.0931L2.73364 13.1275C4.20425 15.0381 6.73806 17.2916 10.4998 17.2916C14.2616 17.2916 16.7954 15.0381 18.266 13.1275L18.2925 13.0931C18.6251 12.6612 18.9314 12.2633 19.1393 11.7929C19.3618 11.2892 19.4582 10.7402 19.4582 9.99992C19.4582 9.25966 19.3618 8.71064 19.1393 8.20692C18.9314 7.73651 18.6251 7.33868 18.2925 6.90673L18.266 6.8723C16.7954 4.96175 14.2616 2.70825 10.4998 2.70825ZM3.72419 7.63475C5.08203 5.87068 7.2918 3.95825 10.4998 3.95825C13.7079 3.95825 15.9176 5.87068 17.2755 7.63475C17.641 8.10958 17.8551 8.3933 17.9959 8.71204C18.1275 9.00993 18.2082 9.37403 18.2082 9.99992C18.2082 10.6258 18.1275 10.9899 17.9959 11.2878C17.8551 11.6065 17.641 11.8903 17.2755 12.3651C15.9176 14.1292 13.7079 16.0416 10.4998 16.0416C7.2918 16.0416 5.08204 14.1292 3.72419 12.3651C3.3587 11.8903 3.14462 11.6065 3.0038 11.2878C2.8722 10.9899 2.7915 10.6258 2.7915 9.99992C2.7915 9.37403 2.8722 9.00993 3.0038 8.71204C3.14462 8.3933 3.3587 8.10958 3.72419 7.63475Z" stroke="#F6F7F9"/>
</svg>
