<svg width="16" height="16" viewBox="0 0 16 16" fill="none" xmlns="http://www.w3.org/2000/svg">
<g clip-path="url(#clip0_1781_25289)">
<path d="M5.99992 11.4999C5.72378 11.4999 5.49992 11.7238 5.49992 11.9999C5.49992 12.2761 5.72378 12.4999 5.99992 12.4999H9.99992C10.2761 12.4999 10.4999 12.2761 10.4999 11.9999C10.4999 11.7238 10.2761 11.4999 9.99992 11.4999H5.99992Z" fill="#9CA3AF"/>
<path fill-rule="evenodd" clip-rule="evenodd" d="M7.99992 0.833252C7.52784 0.833252 7.09894 0.968465 6.63362 1.19475C6.18382 1.41348 5.6642 1.73598 5.01516 2.1388L3.63744 2.99385C3.02331 3.37499 2.53155 3.68019 2.15252 3.97046C1.76002 4.27105 1.45855 4.57718 1.24079 4.97501C1.02349 5.372 0.92563 5.79441 0.878712 6.29372C0.833242 6.77761 0.833247 7.36933 0.833252 8.11141V9.18649C0.833243 10.4558 0.833235 11.4576 0.935054 12.241C1.0395 13.0446 1.25896 13.6933 1.75482 14.2062C2.25297 14.7215 2.88689 14.9517 3.67166 15.0608C4.43224 15.1666 5.40363 15.1666 6.62782 15.1666H9.37198C10.5962 15.1666 11.5676 15.1666 12.3282 15.0608C13.1129 14.9517 13.7469 14.7215 14.245 14.2062C14.7409 13.6933 14.9603 13.0446 15.0648 12.241C15.1666 11.4576 15.1666 10.4558 15.1666 9.18649V8.11139C15.1666 7.36934 15.1666 6.7776 15.1211 6.29372C15.0742 5.79441 14.9763 5.372 14.759 4.97501C14.5413 4.57718 14.2398 4.27105 13.8473 3.97046C13.4683 3.68019 12.9765 3.375 12.3624 2.99386L10.9847 2.1388C10.3356 1.73598 9.81602 1.41348 9.36622 1.19475C8.9009 0.968465 8.472 0.833252 7.99992 0.833252ZM5.5196 3.00266C6.19678 2.58239 6.67292 2.28761 7.07095 2.09405C7.45874 1.90547 7.73337 1.83325 7.99992 1.83325C8.26647 1.83325 8.5411 1.90547 8.92889 2.09405C9.32692 2.28761 9.80306 2.58239 10.4802 3.00266L11.8136 3.83017C12.4541 4.22771 12.9039 4.50748 13.2393 4.76438C13.5657 5.01435 13.7535 5.22062 13.8819 5.45515C14.0107 5.69051 14.0859 5.96569 14.1255 6.38728C14.1661 6.81898 14.1666 7.3638 14.1666 8.13587V9.14989C14.1666 10.4639 14.1656 11.4007 14.0731 12.1121C13.9823 12.8108 13.8112 13.2162 13.5261 13.5112C13.2432 13.8038 12.858 13.9775 12.1904 14.0704C11.5067 14.1655 10.6049 14.1666 9.33325 14.1666H6.66658C5.3949 14.1666 4.49314 14.1655 3.8094 14.0704C3.14182 13.9775 2.75668 13.8038 2.47378 13.5112C2.18859 13.2162 2.01753 12.8108 1.92671 12.1121C1.83425 11.4007 1.83325 10.4639 1.83325 9.14989V8.13587C1.83325 7.3638 1.83376 6.81898 1.87433 6.38728C1.91394 5.96569 1.98915 5.69051 2.11798 5.45515C2.24635 5.22062 2.43414 5.01435 2.76053 4.76438C3.09598 4.50749 3.54571 4.22772 4.18627 3.83017L5.5196 3.00266Z" fill="#9CA3AF"/>
</g>
<defs>
<clipPath id="clip0_1781_25289">
<rect width="16" height="16" fill="white"/>
</clipPath>
</defs>
</svg>
