<svg width="16" height="16" viewBox="0 0 16 16" fill="none" xmlns="http://www.w3.org/2000/svg">
<path d="M12.3335 2H10.6668C10.4828 2 10.3335 2.14924 10.3335 2.33333V2.3726L12.6668 4.23927V2.33333C12.6668 2.14924 12.5176 2 12.3335 2Z" fill="#4B92FF"/>
<path fill-rule="evenodd" clip-rule="evenodd" d="M7.16685 6.33333C7.16685 5.8731 7.53994 5.5 8.00018 5.5C8.46042 5.5 8.83352 5.8731 8.83352 6.33333C8.83352 6.79357 8.46042 7.16667 8.00018 7.16667C7.53994 7.16667 7.16685 6.79357 7.16685 6.33333Z" fill="#4B92FF"/>
<path fill-rule="evenodd" clip-rule="evenodd" d="M13.8335 7.30698L14.3545 7.72377C14.5701 7.89627 14.8848 7.86131 15.0573 7.64568C15.2298 7.43005 15.1948 7.1154 14.9792 6.9429L9.56192 2.60908C8.64887 1.87864 7.35149 1.87864 6.43844 2.60908L1.02117 6.9429C0.805536 7.1154 0.770575 7.43005 0.94308 7.64568C1.11558 7.86131 1.43023 7.89627 1.64586 7.72377L2.16685 7.30698V14.1667H1.33351C1.05737 14.1667 0.833515 14.3905 0.833515 14.6667C0.833515 14.9428 1.05737 15.1667 1.33351 15.1667H14.6668C14.943 15.1667 15.1668 14.9428 15.1668 14.6667C15.1668 14.3905 14.943 14.1667 14.6668 14.1667H13.8335V7.30698ZM6.16685 6.33333C6.16685 5.32081 6.98766 4.5 8.00018 4.5C9.0127 4.5 9.83352 5.32081 9.83352 6.33333C9.83352 7.34586 9.0127 8.16667 8.00018 8.16667C6.98766 8.16667 6.16685 7.34586 6.16685 6.33333ZM8.03309 8.83333C8.47634 8.83331 8.85825 8.83329 9.16408 8.8744C9.49184 8.91847 9.80601 9.01784 10.0608 9.27267C10.3157 9.5275 10.415 9.84168 10.4591 10.1694C10.4977 10.4562 10.5 10.8097 10.5002 11.218C10.5002 11.2452 10.5002 11.2727 10.5002 11.3004L10.5002 14.1667H9.50018V11.3333C9.50018 10.8478 9.49912 10.5339 9.46803 10.3027C9.43887 10.0858 9.3918 10.0178 9.35373 9.97978C9.31567 9.94172 9.2477 9.89464 9.03083 9.86549C8.79958 9.83439 8.48572 9.83333 8.00018 9.83333C7.51464 9.83333 7.20079 9.83439 6.96953 9.86549C6.75266 9.89464 6.68469 9.94172 6.64663 9.97978C6.60857 10.0178 6.56149 10.0858 6.53233 10.3027C6.50124 10.5339 6.50018 10.8478 6.50018 11.3333V14.1667H5.50018L5.50018 11.3004C5.50015 10.8572 5.50013 10.4753 5.54125 10.1694C5.58532 9.84168 5.68469 9.5275 5.93952 9.27267C6.19435 9.01784 6.50853 8.91847 6.83629 8.8744C7.14212 8.83329 7.52402 8.83331 7.96727 8.83333H8.03309Z" fill="#4B92FF"/>
<path fill-rule="evenodd" clip-rule="evenodd" d="M7.16685 6.33333C7.16685 5.8731 7.53994 5.5 8.00018 5.5C8.46042 5.5 8.83352 5.8731 8.83352 6.33333C8.83352 6.79357 8.46042 7.16667 8.00018 7.16667C7.53994 7.16667 7.16685 6.79357 7.16685 6.33333Z" fill="#4B92FF"/>
</svg>
