<svg width="24" height="24" viewBox="0 0 24 24" fill="none" xmlns="http://www.w3.org/2000/svg">
<path fill-rule="evenodd" clip-rule="evenodd" d="M13.75 8.25H16.75V6.75C16.75 5.50736 15.7426 4.5 14.5 4.5H7.75C6.23122 4.5 5 5.73122 5 7.25V18H4.25C3.83579 18 3.5 18.3358 3.5 18.75C3.5 19.1642 3.83579 19.5 4.25 19.5H11V11C11 9.48122 12.2312 8.25 13.75 8.25ZM8.25 9C8.66421 9 9 8.66421 9 8.25C9 7.83579 8.66421 7.5 8.25 7.5C7.83579 7.5 7.5 7.83579 7.5 8.25C7.5 8.66421 7.83579 9 8.25 9ZM9 11.25C9 11.6642 8.66421 12 8.25 12C7.83579 12 7.5 11.6642 7.5 11.25C7.5 10.8358 7.83579 10.5 8.25 10.5C8.66421 10.5 9 10.8358 9 11.25ZM8.25 15C8.66421 15 9 14.6642 9 14.25C9 13.8358 8.66421 13.5 8.25 13.5C7.83579 13.5 7.5 13.8358 7.5 14.25C7.5 14.6642 7.83579 15 8.25 15Z" fill="#F68B1F"/>
<path d="M17.25 9.25H13.75C12.7835 9.25 12 10.0335 12 11V19.5H14.75V16C14.75 15.5858 15.0858 15.25 15.5 15.25C15.9142 15.25 16.25 15.5858 16.25 16V19.5H19.75C20.1642 19.5 20.5 19.1642 20.5 18.75C20.5 18.3358 20.1642 18 19.75 18H19V11C19 10.0335 18.2165 9.25 17.25 9.25Z" fill="#F68B1F"/>
</svg>
