<svg width="24" height="24" viewBox="0 0 24 24" fill="none" xmlns="http://www.w3.org/2000/svg">
<path fill-rule="evenodd" clip-rule="evenodd" d="M8.75 4.5C9.16421 4.5 9.5 4.83579 9.5 5.25V6.75H14.5V5.25C14.5 4.83579 14.8358 4.5 15.25 4.5C15.6642 4.5 16 4.83579 16 5.25V6.75H16.75C18.2688 6.75 19.5 7.98122 19.5 9.5V12.1692C19.5 12.5846 19.0082 12.8346 18.6309 12.6608C18.0586 12.3971 17.4215 12.25 16.75 12.25C14.2647 12.25 12.25 14.2647 12.25 16.75C12.25 17.4215 12.3971 18.0586 12.6608 18.6309C12.8346 19.0082 12.5846 19.5 12.1692 19.5H6.5C5.39543 19.5 4.5 18.6046 4.5 17.5V9.5C4.5 7.98122 5.73122 6.75 7.25 6.75H8V5.25C8 4.83579 8.33579 4.5 8.75 4.5ZM18 9.5C18 8.80964 17.4404 8.25 16.75 8.25H7.25C6.55964 8.25 6 8.80964 6 9.5V10H18V9.5Z" fill="#F68B1F"/>
<path d="M14 16.75C14 16.3358 14.3358 16 14.75 16H16V14.75C16 14.3358 16.3358 14 16.75 14C17.1642 14 17.5 14.3358 17.5 14.75V16H18.75C19.1642 16 19.5 16.3358 19.5 16.75C19.5 17.1642 19.1642 17.5 18.75 17.5H17.5V18.75C17.5 19.1642 17.1642 19.5 16.75 19.5C16.3358 19.5 16 19.1642 16 18.75V17.5H14.75C14.3358 17.5 14 17.1642 14 16.75Z" fill="#F68B1F"/>
</svg>
