<svg width="16" height="16" viewBox="0 0 16 16" fill="none" xmlns="http://www.w3.org/2000/svg">
<g clip-path="url(#clip0_1781_25293)">
<path d="M8.33325 4.66659C8.33325 4.39044 8.55711 4.16659 8.83325 4.16659H11.3333C11.6094 4.16659 11.8333 4.39044 11.8333 4.66659V7.16659C11.8333 7.44273 11.6094 7.66659 11.3333 7.66659C11.0571 7.66659 10.8333 7.44273 10.8333 7.16659V5.87369L5.87369 10.8333H7.16659C7.44273 10.8333 7.66659 11.0571 7.66659 11.3333C7.66659 11.6094 7.44273 11.8333 7.16659 11.8333H4.66659C4.39044 11.8333 4.16659 11.6094 4.16659 11.3333V8.83325C4.16659 8.55711 4.39044 8.33325 4.66659 8.33325C4.94273 8.33325 5.16659 8.55711 5.16659 8.83325V10.1261L10.1261 5.16659H8.83325C8.55711 5.16659 8.33325 4.94273 8.33325 4.66659Z" fill="#9CA3AF"/>
<path fill-rule="evenodd" clip-rule="evenodd" d="M7.96167 0.833252C6.42274 0.833244 5.21671 0.833237 4.27572 0.95975C3.31257 1.08924 2.55255 1.35947 1.95601 1.95601C1.35947 2.55255 1.08924 3.31257 0.95975 4.27572C0.833237 5.21671 0.833244 6.42274 0.833252 7.96167V8.03817C0.833244 9.5771 0.833237 10.7831 0.95975 11.7241C1.08924 12.6873 1.35947 13.4473 1.95601 14.0438C2.55255 14.6404 3.31257 14.9106 4.27572 15.0401C5.21671 15.1666 6.42274 15.1666 7.96167 15.1666H8.03817C9.5771 15.1666 10.7831 15.1666 11.7241 15.0401C12.6873 14.9106 13.4473 14.6404 14.0438 14.0438C14.6404 13.4473 14.9106 12.6873 15.0401 11.7241C15.1666 10.7831 15.1666 9.5771 15.1666 8.03817V7.96167C15.1666 6.42274 15.1666 5.21671 15.0401 4.27572C14.9106 3.31257 14.6404 2.55255 14.0438 1.95601C13.4473 1.35947 12.6873 1.08924 11.7241 0.95975C10.7831 0.833237 9.5771 0.833244 8.03817 0.833252H7.96167ZM2.66312 2.66312C3.04289 2.28335 3.5567 2.06542 4.40897 1.95083C5.27562 1.83431 6.41444 1.83325 7.99992 1.83325C9.5854 1.83325 10.7242 1.83431 11.5909 1.95083C12.4431 2.06542 12.957 2.28335 13.3367 2.66312C13.7165 3.04289 13.9344 3.5567 14.049 4.40897C14.1655 5.27562 14.1666 6.41444 14.1666 7.99992C14.1666 9.5854 14.1655 10.7242 14.049 11.5909C13.9344 12.4431 13.7165 12.957 13.3367 13.3367C12.957 13.7165 12.4431 13.9344 11.5909 14.049C10.7242 14.1655 9.5854 14.1666 7.99992 14.1666C6.41444 14.1666 5.27562 14.1655 4.40897 14.049C3.5567 13.9344 3.04289 13.7165 2.66312 13.3367C2.28335 12.957 2.06542 12.4431 1.95083 11.5909C1.83431 10.7242 1.83325 9.5854 1.83325 7.99992C1.83325 6.41444 1.83431 5.27562 1.95083 4.40897C2.06542 3.5567 2.28335 3.04289 2.66312 2.66312Z" fill="#9CA3AF"/>
</g>
<defs>
<clipPath id="clip0_1781_25293">
<rect width="16" height="16" rx="5" fill="white"/>
</clipPath>
</defs>
</svg>
