<svg width="24" height="24" viewBox="0 0 24 24" fill="none" xmlns="http://www.w3.org/2000/svg">
<path d="M6 7.75C6 7.33579 6.33579 7 6.75 7H12C12.4142 7 12.75 7.33579 12.75 7.75C12.75 8.16421 12.4142 8.5 12 8.5H6.75C6.33579 8.5 6 8.16421 6 7.75Z" fill="#111827"/>
<path d="M6 12C6 11.5858 6.33579 11.25 6.75 11.25H12C12.4142 11.25 12.75 11.5858 12.75 12C12.75 12.4142 12.4142 12.75 12 12.75H6.75C6.33579 12.75 6 12.4142 6 12Z" fill="#111827"/>
<path d="M6.75 15.5C6.33579 15.5 6 15.8358 6 16.25C6 16.6642 6.33579 17 6.75 17H17.25C17.6642 17 18 16.6642 18 16.25C18 15.8358 17.6642 15.5 17.25 15.5H6.75Z" fill="#111827"/>
<path d="M15.7803 7.46969C15.5658 7.25519 15.2432 7.19103 14.963 7.30711C14.6827 7.4232 14.5 7.69668 14.5 8.00002V12C14.5 12.3034 14.6827 12.5768 14.963 12.6929C15.2432 12.809 15.5658 12.7449 15.7803 12.5304L17.7803 10.5304C18.0732 10.2375 18.0732 9.76259 17.7803 9.46969L15.7803 7.46969Z" fill="#111827"/>
</svg>
