<svg width="14" height="14" viewBox="0 0 14 14" fill="none" xmlns="http://www.w3.org/2000/svg">
<g clip-path="url(#clip0_2117_24515)">
<path d="M5.25008 10.0623C5.00846 10.0623 4.81258 10.2582 4.81258 10.4998C4.81258 10.7415 5.00846 10.9373 5.25008 10.9373H8.75008C8.99171 10.9373 9.18758 10.7415 9.18758 10.4998C9.18758 10.2582 8.99171 10.0623 8.75008 10.0623H5.25008Z" fill="#F68B1F"/>
<path fill-rule="evenodd" clip-rule="evenodd" d="M7.00008 0.729004C6.58701 0.729004 6.21172 0.847315 5.80457 1.04531C5.41099 1.23671 4.95633 1.51889 4.38842 1.87136L3.18291 2.61953C2.64555 2.95303 2.21526 3.22007 1.88361 3.47406C1.54017 3.73707 1.27638 4.00494 1.08585 4.35304C0.895705 4.70041 0.810079 5.07002 0.769026 5.50691C0.72924 5.93032 0.729244 6.44807 0.729248 7.09739V8.03809C0.72924 9.14869 0.729234 10.0253 0.818325 10.7108C0.909715 11.4139 1.10174 11.9815 1.53562 12.4303C1.97151 12.8812 2.52618 13.0826 3.21285 13.1781C3.87837 13.2707 4.72833 13.2707 5.79949 13.2707H8.20064C9.27181 13.2707 10.1218 13.2707 10.7873 13.1781C11.474 13.0826 12.0287 12.8812 12.4645 12.4303C12.8984 11.9815 13.0904 11.4139 13.1818 10.7108C13.2709 10.0253 13.2709 9.14869 13.2709 8.03809V7.09738C13.2709 6.44808 13.2709 5.93031 13.2311 5.50691C13.1901 5.07002 13.1045 4.70041 12.9143 4.35304C12.7238 4.00494 12.46 3.73707 12.1166 3.47406C11.7849 3.22007 11.3546 2.95303 10.8173 2.61954L9.61174 1.87135C9.04384 1.51889 8.58917 1.2367 8.19559 1.04531C7.78844 0.847315 7.41315 0.729004 7.00008 0.729004ZM4.82981 2.62724C5.42233 2.2595 5.83896 2.00157 6.18723 1.8322C6.52655 1.66719 6.76685 1.604 7.00008 1.604C7.23331 1.604 7.47362 1.66719 7.81293 1.8322C8.16121 2.00156 8.57783 2.2595 9.17036 2.62724L10.337 3.3513C10.8975 3.69916 11.291 3.94396 11.5845 4.16874C11.8701 4.38746 12.0345 4.56795 12.1468 4.77317C12.2595 4.97911 12.3253 5.21988 12.36 5.58877C12.3955 5.96651 12.3959 6.44323 12.3959 7.11879V8.00606C12.3959 9.15579 12.395 9.97552 12.3141 10.598C12.2347 11.2094 12.085 11.5641 11.8355 11.8222C11.5879 12.0782 11.2509 12.2302 10.6668 12.3115C10.0685 12.3947 9.27947 12.3957 8.16675 12.3957H5.83342C4.72069 12.3957 3.93165 12.3947 3.33338 12.3115C2.74925 12.2302 2.41224 12.0782 2.16471 11.8222C1.91517 11.5641 1.76549 11.2094 1.68603 10.598C1.60512 9.97552 1.60425 9.15579 1.60425 8.00606V7.11879C1.60425 6.44323 1.60469 5.96651 1.64019 5.58877C1.67485 5.21988 1.74066 4.97911 1.85338 4.77317C1.96571 4.56795 2.13002 4.38746 2.41562 4.16875C2.70914 3.94396 3.10265 3.69916 3.66314 3.35131L4.82981 2.62724Z" fill="#F68B1F"/>
</g>
<defs>
<clipPath id="clip0_2117_24515">
<rect width="14" height="14" fill="white"/>
</clipPath>
</defs>
</svg>
