<svg width="20" height="20" viewBox="0 0 20 20" fill="none" xmlns="http://www.w3.org/2000/svg">
<path d="M12.9165 16.667H4.58317V5.83366C4.58317 5.37533 4.20817 5.00033 3.74984 5.00033C3.2915 5.00033 2.9165 5.37533 2.9165 5.83366V16.667C2.9165 17.5837 3.6665 18.3337 4.58317 18.3337H12.9165C13.3748 18.3337 13.7498 17.9587 13.7498 17.5003C13.7498 17.042 13.3748 16.667 12.9165 16.667ZM17.0832 13.3337V3.33366C17.0832 2.41699 16.3332 1.66699 15.4165 1.66699H7.9165C6.99984 1.66699 6.24984 2.41699 6.24984 3.33366V13.3337C6.24984 14.2503 6.99984 15.0003 7.9165 15.0003H15.4165C16.3332 15.0003 17.0832 14.2503 17.0832 13.3337ZM15.4165 13.3337H7.9165V3.33366H15.4165V13.3337Z" fill="#4B92FF"/>
</svg>
