<svg width="14" height="14" viewBox="0 0 14 14" fill="none" xmlns="http://www.w3.org/2000/svg">
<path fill-rule="evenodd" clip-rule="evenodd" d="M5.24984 0.729004C3.71955 0.729004 2.479 1.96955 2.479 3.49984C2.479 5.03013 3.71955 6.27067 5.24984 6.27067C6.78013 6.27067 8.02067 5.03013 8.02067 3.49984C8.02067 1.96955 6.78013 0.729004 5.24984 0.729004ZM3.354 3.49984C3.354 2.4528 4.2028 1.604 5.24984 1.604C6.29688 1.604 7.14567 2.4528 7.14567 3.49984C7.14567 4.54688 6.29688 5.39567 5.24984 5.39567C4.2028 5.39567 3.354 4.54688 3.354 3.49984Z" fill="#F68B1F"/>
<path d="M8.74984 1.31234C8.50821 1.31234 8.31234 1.50821 8.31234 1.74984C8.31234 1.99146 8.50821 2.18734 8.74984 2.18734C9.47471 2.18734 10.0623 2.77496 10.0623 3.49984C10.0623 4.22471 9.47471 4.81234 8.74984 4.81234C8.50821 4.81234 8.31234 5.00821 8.31234 5.24984C8.31234 5.49146 8.50821 5.68734 8.74984 5.68734C9.95796 5.68734 10.9373 4.70796 10.9373 3.49984C10.9373 2.29171 9.95796 1.31234 8.74984 1.31234Z" fill="#F68B1F"/>
<path fill-rule="evenodd" clip-rule="evenodd" d="M2.14542 7.88673C2.96172 7.42028 4.06023 7.14567 5.24984 7.14567C6.43945 7.14567 7.53795 7.42028 8.35425 7.88673C9.15817 8.34612 9.77067 9.04742 9.77067 9.9165C9.77067 10.7856 9.15817 11.4869 8.35425 11.9463C7.53795 12.4127 6.43945 12.6873 5.24984 12.6873C4.06023 12.6873 2.96172 12.4127 2.14542 11.9463C1.3415 11.4869 0.729004 10.7856 0.729004 9.9165C0.729004 9.04742 1.3415 8.34612 2.14542 7.88673ZM2.57955 8.64644C1.90559 9.03156 1.604 9.49693 1.604 9.9165C1.604 10.3361 1.90559 10.8014 2.57955 11.1866C3.24112 11.5646 4.18429 11.8123 5.24984 11.8123C6.31539 11.8123 7.25855 11.5646 7.92013 11.1866C8.59408 10.8014 8.89567 10.3361 8.89567 9.9165C8.89567 9.49693 8.59408 9.03156 7.92013 8.64644C7.25855 8.2684 6.31539 8.02067 5.24984 8.02067C4.18429 8.02067 3.24112 8.2684 2.57955 8.64644Z" fill="#F68B1F"/>
<path d="M10.5936 7.73916C10.3575 7.6874 10.1242 7.83677 10.0725 8.07279C10.0207 8.30881 10.1701 8.54209 10.4061 8.59385C10.8683 8.69521 11.2377 8.86931 11.4815 9.0688C11.7256 9.26857 11.8123 9.46366 11.8123 9.62484C11.8123 9.77108 11.742 9.94278 11.548 10.1229C11.3527 10.3044 11.0525 10.4721 10.6654 10.5887C10.434 10.6583 10.3029 10.9024 10.3726 11.1337C10.4422 11.3651 10.6863 11.4962 10.9176 11.4265C11.3975 11.282 11.8265 11.0586 12.1436 10.764C12.462 10.4682 12.6873 10.079 12.6873 9.62484C12.6873 9.12039 12.4107 8.69852 12.0356 8.39163C11.6603 8.08446 11.1546 7.8622 10.5936 7.73916Z" fill="#F68B1F"/>
</svg>
