<svg width="12" height="12" viewBox="0 0 12 12" fill="none" xmlns="http://www.w3.org/2000/svg">
<path d="M9.25001 1.5H8.00001C7.86194 1.5 7.75001 1.61193 7.75001 1.75V1.77945L9.50001 3.17945V1.75C9.50001 1.61193 9.38809 1.5 9.25001 1.5Z" fill="#4B92FF"/>
<path fill-rule="evenodd" clip-rule="evenodd" d="M5.37501 4.75C5.37501 4.40482 5.65484 4.125 6.00001 4.125C6.34519 4.125 6.62501 4.40482 6.62501 4.75C6.62501 5.09518 6.34519 5.375 6.00001 5.375C5.65484 5.375 5.37501 5.09518 5.37501 4.75Z" fill="#4B92FF"/>
<path fill-rule="evenodd" clip-rule="evenodd" d="M10.375 5.48023L10.7658 5.79283C10.9275 5.9222 11.1635 5.89598 11.2928 5.73426C11.4222 5.57254 11.396 5.33655 11.2343 5.20717L7.17132 1.95681C6.48653 1.40898 5.51349 1.40898 4.82871 1.95681L0.765753 5.20717C0.60403 5.33655 0.577809 5.57254 0.707188 5.73426C0.836567 5.89598 1.07255 5.9222 1.23427 5.79283L1.62501 5.48023V10.625H1.00001C0.792907 10.625 0.625014 10.7929 0.625014 11C0.625014 11.2071 0.792907 11.375 1.00001 11.375H11C11.2071 11.375 11.375 11.2071 11.375 11C11.375 10.7929 11.2071 10.625 11 10.625H10.375V5.48023ZM4.62501 4.75C4.62501 3.99061 5.24062 3.375 6.00001 3.375C6.75941 3.375 7.37501 3.99061 7.37501 4.75C7.37501 5.50939 6.75941 6.125 6.00001 6.125C5.24062 6.125 4.62501 5.50939 4.62501 4.75ZM6.0247 6.625C6.35713 6.62498 6.64356 6.62496 6.87294 6.6558C7.11875 6.68885 7.35439 6.76338 7.54551 6.9545C7.73663 7.14563 7.81116 7.38126 7.84421 7.62708C7.87312 7.84211 7.87491 8.1073 7.87501 8.41352C7.87502 8.43393 7.87502 8.45454 7.87501 8.47531L7.87501 10.625H7.12501V8.5C7.12501 8.13584 7.12422 7.90045 7.1009 7.72701C7.07903 7.56436 7.04373 7.51338 7.01518 7.48483C6.98663 7.45629 6.93565 7.42098 6.773 7.39911C6.59956 7.3758 6.36417 7.375 6.00001 7.375C5.63586 7.375 5.40047 7.3758 5.22703 7.39911C5.06438 7.42098 5.01339 7.45629 4.98485 7.48483C4.9563 7.51338 4.921 7.56436 4.89913 7.72701C4.87581 7.90045 4.87501 8.13584 4.87501 8.5V10.625H4.12501L4.12501 8.47531C4.12499 8.14288 4.12498 7.85645 4.15582 7.62708C4.18887 7.38126 4.2634 7.14563 4.45452 6.9545C4.64564 6.76338 4.88127 6.68885 5.12709 6.6558C5.35646 6.62496 5.6429 6.62498 5.97533 6.625H6.0247Z" fill="#4B92FF"/>
<path fill-rule="evenodd" clip-rule="evenodd" d="M5.37501 4.75C5.37501 4.40482 5.65484 4.125 6.00001 4.125C6.34519 4.125 6.62501 4.40482 6.62501 4.75C6.62501 5.09518 6.34519 5.375 6.00001 5.375C5.65484 5.375 5.37501 5.09518 5.37501 4.75Z" fill="#4B92FF"/>
</svg>
