<svg width="14" height="14" viewBox="0 0 14 14" fill="none" xmlns="http://www.w3.org/2000/svg">
<g clip-path="url(#clip0_2117_24519)">
<path d="M7.29175 4.08317C7.29175 3.84155 7.48762 3.64567 7.72925 3.64567H9.91675C10.1584 3.64567 10.3542 3.84155 10.3542 4.08317V6.27067C10.3542 6.51229 10.1584 6.70817 9.91675 6.70817C9.67512 6.70817 9.47925 6.51229 9.47925 6.27067V5.13939L5.13963 9.479H6.27091C6.51254 9.479 6.70841 9.67488 6.70841 9.9165C6.70841 10.1581 6.51254 10.354 6.27091 10.354H4.08341C3.84179 10.354 3.64591 10.1581 3.64591 9.9165V7.729C3.64591 7.48738 3.84179 7.2915 4.08341 7.2915C4.32504 7.2915 4.52091 7.48738 4.52091 7.729V8.86028L8.86053 4.52067H7.72925C7.48762 4.52067 7.29175 4.3248 7.29175 4.08317Z" fill="#F68B1F"/>
<path fill-rule="evenodd" clip-rule="evenodd" d="M6.96661 0.729004C5.62005 0.728997 4.56478 0.728991 3.74141 0.839689C2.89865 0.952996 2.23363 1.18944 1.71166 1.71142C1.18969 2.23339 0.95324 2.8984 0.839934 3.74117C0.729235 4.56453 0.729241 5.6198 0.729248 6.96637V7.03331C0.729241 8.37987 0.729235 9.43514 0.839934 10.2585C0.95324 11.1013 1.18969 11.7663 1.71166 12.2883C2.23363 12.8102 2.89865 13.0467 3.74141 13.16C4.56478 13.2707 5.62005 13.2707 6.96661 13.2707H7.03355C8.38011 13.2707 9.43538 13.2707 10.2588 13.16C11.1015 13.0467 11.7665 12.8102 12.2885 12.2883C12.8105 11.7663 13.0469 11.1013 13.1602 10.2585C13.2709 9.43514 13.2709 8.37987 13.2709 7.0333V6.96637C13.2709 5.61981 13.2709 4.56453 13.1602 3.74117C13.0469 2.8984 12.8105 2.23339 12.2885 1.71142C11.7665 1.18944 11.1015 0.952996 10.2588 0.839689C9.43539 0.728991 8.38011 0.728997 7.03355 0.729004H6.96661ZM2.33038 2.33014C2.66268 1.99784 3.11227 1.80715 3.858 1.70689C4.61632 1.60493 5.61278 1.604 7.00008 1.604C8.38738 1.604 9.38384 1.60493 10.1422 1.70689C10.8879 1.80715 11.3375 1.99784 11.6698 2.33014C12.0021 2.66243 12.1928 3.11202 12.293 3.85776C12.395 4.61608 12.3959 5.61254 12.3959 6.99984C12.3959 8.38714 12.395 9.3836 12.293 10.1419C12.1928 10.8877 12.0021 11.3372 11.6698 11.6695C11.3375 12.0018 10.8879 12.1925 10.1422 12.2928C9.38384 12.3947 8.38738 12.3957 7.00008 12.3957C5.61278 12.3957 4.61632 12.3947 3.858 12.2928C3.11227 12.1925 2.66268 12.0018 2.33038 11.6695C1.99808 11.3372 1.80739 10.8877 1.70713 10.1419C1.60518 9.3836 1.60425 8.38714 1.60425 6.99984C1.60425 5.61254 1.60518 4.61608 1.70713 3.85776C1.80739 3.11202 1.99808 2.66243 2.33038 2.33014Z" fill="#F68B1F"/>
</g>
<defs>
<clipPath id="clip0_2117_24519">
<rect width="14" height="14" rx="5" fill="white"/>
</clipPath>
</defs>
</svg>
