<svg width="380" height="142" viewBox="0 0 380 142" fill="none" xmlns="http://www.w3.org/2000/svg">
<g filter="url(#filter0_d_10_250)">
<path fill-rule="evenodd" clip-rule="evenodd" d="M8 15.7284C10.8701 15.7284 13.2195 11.3712 13.2195 6H328.059C328.059 9.2591 329.465 11.8958 331.212 11.8958C332.958 11.8958 334.373 9.2591 334.373 6H366.764C366.764 11.3712 369.113 15.7284 372 15.7284V17.4139C371.851 17.3983 371.703 17.4348 371.563 17.5211C371.423 17.6073 371.294 17.7416 371.186 17.9155C371.078 18.0895 370.991 18.2995 370.932 18.5325C370.873 18.7656 370.842 19.0168 370.842 19.2707C370.842 19.5246 370.873 19.7758 370.932 20.0089C370.991 20.242 371.078 20.4519 371.186 20.6259C371.294 20.7998 371.423 20.9341 371.563 21.0204C371.703 21.1066 371.851 21.1431 372 21.1276V24.4566C371.851 24.441 371.703 24.4775 371.563 24.5638C371.423 24.6501 371.294 24.7843 371.186 24.9583C371.078 25.1322 370.991 25.3422 370.932 25.5753C370.873 25.8083 370.842 26.0595 370.842 26.3134C370.842 26.5674 370.873 26.8186 370.932 27.0516C370.991 27.2847 371.078 27.4947 371.186 27.6686C371.294 27.8426 371.423 27.9768 371.563 28.0631C371.703 28.1494 371.851 28.1859 372 28.1703V31.4993C371.851 31.4838 371.703 31.5203 371.563 31.6065C371.423 31.6928 371.294 31.8271 371.186 32.001C371.078 32.175 370.991 32.3849 370.932 32.618C370.873 32.8511 370.842 33.1023 370.842 33.3562C370.842 33.6101 370.873 33.8613 370.932 34.0944C370.991 34.3274 371.078 34.5374 371.186 34.7114C371.294 34.8853 371.423 35.0196 371.563 35.1058C371.703 35.1921 371.851 35.2286 372 35.213V38.5421C371.851 38.5265 371.703 38.563 371.563 38.6493C371.423 38.7355 371.294 38.8698 371.186 39.0438C371.078 39.2177 370.991 39.4277 370.932 39.6607C370.873 39.8938 370.842 40.145 370.842 40.3989C370.842 40.6528 370.873 40.904 370.932 41.1371C370.991 41.3702 371.078 41.5801 371.186 41.7541C371.294 41.928 371.423 42.0623 371.563 42.1486C371.703 42.2349 371.851 42.2713 372 42.2558V45.5848C371.851 45.5693 371.703 45.6057 371.563 45.692C371.423 45.7783 371.294 45.9125 371.186 46.0865C371.078 46.2604 370.991 46.4704 370.932 46.7035C370.873 46.9365 370.842 47.1878 370.842 47.4417C370.842 47.6956 370.873 47.9468 370.932 48.1799C370.991 48.4129 371.078 48.6229 371.186 48.7968C371.294 48.9708 371.423 49.105 371.563 49.1913C371.703 49.2776 371.851 49.3141 372 49.2985V52.6415C371.851 52.626 371.703 52.6625 371.563 52.7487C371.423 52.835 371.294 52.9693 371.186 53.1432C371.078 53.3172 370.991 53.5271 370.932 53.7602C370.873 53.9933 370.842 54.2445 370.842 54.4984C370.842 54.7523 370.873 55.0035 370.932 55.2366C370.991 55.4696 371.078 55.6796 371.186 55.8536C371.294 56.0275 371.423 56.1618 371.563 56.248C371.703 56.3343 371.851 56.3708 372 56.3552V59.6423C371.712 59.6423 371.435 59.8376 371.232 60.1852C371.028 60.5327 370.913 61.0041 370.913 61.4957C370.913 61.9872 371.028 62.4586 371.232 62.8062C371.435 63.1538 371.712 63.349 372 63.349V66.713C371.712 66.713 371.435 66.9083 371.232 67.2559C371.028 67.6034 370.913 68.0748 370.913 68.5664C370.913 69.0579 371.028 69.5293 371.232 69.8769C371.435 70.2245 371.712 70.4197 372 70.4197V73.7488C371.851 73.7332 371.703 73.7697 371.563 73.856C371.423 73.9423 371.294 74.0765 371.186 74.2505C371.078 74.4244 370.991 74.6344 370.932 74.8674C370.873 75.1005 370.842 75.3517 370.842 75.6056C370.842 75.8595 370.873 76.1107 370.932 76.3438C370.991 76.5769 371.078 76.7868 371.186 76.9608C371.294 77.1348 371.423 77.269 371.563 77.3553C371.703 77.4416 371.851 77.478 372 77.4625V80.7915C371.851 80.776 371.703 80.8124 371.563 80.8987C371.423 80.985 371.294 81.1192 371.186 81.2932C371.078 81.4671 370.991 81.6771 370.932 81.9102C370.873 82.1432 370.842 82.3945 370.842 82.6484C370.842 82.9023 370.873 83.1535 370.932 83.3866C370.991 83.6196 371.078 83.8296 371.186 84.0035C371.294 84.1775 371.423 84.3117 371.563 84.398C371.703 84.4843 371.851 84.5208 372 84.5052V87.8343C371.851 87.8187 371.703 87.8552 371.563 87.9415C371.423 88.0277 371.294 88.162 371.186 88.3359C371.078 88.5099 370.991 88.7199 370.932 88.9529C370.873 89.186 370.842 89.4372 370.842 89.6911C370.842 89.945 370.873 90.1962 370.932 90.4293C370.991 90.6624 371.078 90.8723 371.186 91.0463C371.294 91.2202 371.423 91.3545 371.563 91.4408C371.703 91.527 371.851 91.5635 372 91.548V94.877C371.851 94.8614 371.703 94.8979 371.563 94.9842C371.423 95.0705 371.294 95.2047 371.186 95.3787C371.078 95.5526 370.991 95.7626 370.932 95.9957C370.873 96.2287 370.842 96.4799 370.842 96.7338C370.842 96.9878 370.873 97.239 370.932 97.472C370.991 97.7051 371.078 97.9151 371.186 98.089C371.294 98.263 371.423 98.3972 371.563 98.4835C371.703 98.5698 371.851 98.6063 372 98.5907V101.92C371.851 101.904 371.703 101.941 371.563 102.027C371.423 102.113 371.294 102.247 371.186 102.421C371.078 102.595 370.991 102.805 370.932 103.038C370.873 103.271 370.842 103.523 370.842 103.777C370.842 104.03 370.873 104.282 370.932 104.515C370.991 104.748 371.078 104.958 371.186 105.132C371.294 105.306 371.423 105.44 371.563 105.526C371.703 105.613 371.851 105.649 372 105.633V108.962C371.851 108.947 371.703 108.983 371.563 109.07C371.423 109.156 371.294 109.29 371.186 109.464C371.078 109.638 370.991 109.848 370.932 110.081C370.873 110.314 370.842 110.565 370.842 110.819C370.842 111.073 370.873 111.324 370.932 111.558C370.991 111.791 371.078 112.001 371.186 112.174C371.294 112.348 371.423 112.483 371.563 112.569C371.703 112.655 371.851 112.692 372 112.676V116.005C371.851 115.99 371.703 116.026 371.563 116.112C371.423 116.199 371.294 116.333 371.186 116.507C371.078 116.681 370.991 116.891 370.932 117.124C370.873 117.357 370.842 117.608 370.842 117.862C370.842 118.116 370.873 118.367 370.932 118.6C370.991 118.833 371.078 119.043 371.186 119.217C371.294 119.391 371.423 119.525 371.563 119.612C371.703 119.698 371.851 119.734 372 119.719V121.488C369.113 121.488 366.776 125.845 366.776 131.217C366.776 131.35 366.782 131.482 366.787 131.614C366.792 131.743 366.797 131.871 366.797 132H334.385C334.385 128.748 332.966 126.104 331.22 126.104C329.473 126.104 328.059 128.748 328.059 132H13.199C13.2195 131.741 13.2195 131.482 13.2195 131.217C13.2195 125.845 10.8701 121.488 8 121.488V119.719C8.14303 119.719 8.28466 119.671 8.41675 119.577C8.54884 119.484 8.66881 119.346 8.76975 119.174C8.8707 119.001 8.95065 118.796 9.00501 118.57C9.05938 118.344 9.08708 118.103 9.08654 117.859C9.08654 117.367 8.97207 116.896 8.7683 116.548C8.56454 116.2 8.28817 116.005 8 116.005V112.676C8.14303 112.676 8.28466 112.628 8.41675 112.534C8.54884 112.441 8.66881 112.304 8.76975 112.131C8.8707 111.958 8.95065 111.753 9.00501 111.527C9.05938 111.302 9.08708 111.06 9.08654 110.816C9.08654 110.324 8.97207 109.853 8.7683 109.505C8.56454 109.158 8.28817 108.962 8 108.962V105.633C8.14303 105.633 8.28466 105.585 8.41675 105.492C8.54884 105.398 8.66881 105.261 8.76975 105.088C8.8707 104.915 8.95065 104.71 9.00501 104.484C9.05938 104.259 9.08708 104.017 9.08654 103.773C9.08654 103.282 8.97207 102.81 8.7683 102.463C8.56454 102.115 8.28817 101.92 8 101.92V98.5907C8.28817 98.5907 8.56454 98.3954 8.7683 98.0479C8.97207 97.7003 9.08654 97.2289 9.08654 96.7373C9.08708 96.4934 9.05938 96.2516 9.00501 96.026C8.95065 95.8003 8.8707 95.5951 8.76975 95.4223C8.66881 95.2495 8.54884 95.1123 8.41675 95.0187C8.28466 94.9252 8.14303 94.877 8 94.877V91.548C8.14303 91.548 8.28466 91.4998 8.41675 91.4062C8.54884 91.3126 8.66881 91.1755 8.76975 91.0026C8.8707 90.8298 8.95065 90.6247 9.00501 90.399C9.05938 90.1733 9.08708 89.9316 9.08654 89.6876C9.08708 89.4436 9.05938 89.2019 9.00501 88.9762C8.95065 88.7505 8.8707 88.5454 8.76975 88.3726C8.66881 88.1997 8.54884 88.0626 8.41675 87.969C8.28466 87.8754 8.14303 87.8273 8 87.8273V84.5052C8.28817 84.5052 8.56454 84.31 8.7683 83.9624C8.97207 83.6148 9.08654 83.1434 9.08654 82.6519C9.08708 82.4079 9.05938 82.1661 9.00501 81.9405C8.95065 81.7148 8.8707 81.5097 8.76975 81.3368C8.66881 81.164 8.54884 81.0268 8.41675 80.9333C8.28466 80.8397 8.14303 80.7915 8 80.7915V77.4625C8.14408 77.4625 8.28672 77.4137 8.41963 77.3188C8.55253 77.2239 8.67305 77.0849 8.77416 76.9098C8.87527 76.7347 8.95496 76.5271 9.00859 76.299C9.06222 76.0709 9.08872 75.8269 9.08654 75.5811C9.08708 75.3372 9.05938 75.0954 9.00501 74.8698C8.95065 74.6441 8.8707 74.4389 8.76975 74.2661C8.66881 74.0933 8.54884 73.9561 8.41675 73.8625C8.28466 73.769 8.14303 73.7208 8 73.7208V70.3918C8.28817 70.3918 8.56454 70.1965 8.7683 69.8489C8.97207 69.5014 9.08654 69.0299 9.08654 68.5384C9.08654 68.0469 8.97207 67.5755 8.7683 67.2279C8.56454 66.8803 8.28817 66.6851 8 66.6851V63.349C8.25698 63.2825 8.49146 63.0611 8.6609 62.7249C8.83034 62.3887 8.92351 61.96 8.92351 61.5166C8.92351 61.0733 8.83034 60.6446 8.6609 60.3084C8.49146 59.9723 8.25698 59.7508 8 59.6843V56.3552C8.14373 56.3553 8.28603 56.3066 8.41866 56.2122C8.5513 56.1177 8.67163 55.9793 8.77268 55.805C8.87374 55.6307 8.95352 55.4239 9.00739 55.1966C9.06127 54.9693 9.08817 54.7261 9.08654 54.4809C9.08654 53.9894 8.97207 53.518 8.7683 53.1704C8.56454 52.8228 8.28817 52.6276 8 52.6276V49.2985C8.14303 49.2985 8.28466 49.2503 8.41675 49.1568C8.54884 49.0632 8.66881 48.926 8.76975 48.7532C8.8707 48.5804 8.95065 48.3752 9.00501 48.1496C9.05938 47.9239 9.08708 47.6821 9.08654 47.4382C9.08654 46.9466 8.97207 46.4752 8.7683 46.1276C8.56454 45.7801 8.28817 45.5848 8 45.5848V42.2558C8.14303 42.2558 8.28466 42.2076 8.41675 42.114C8.54884 42.0205 8.66881 41.8833 8.76975 41.7105C8.8707 41.5376 8.95065 41.3325 9.00501 41.1068C9.05938 40.8812 9.08708 40.6394 9.08654 40.3954C9.08654 39.9039 8.97207 39.4325 8.7683 39.0849C8.56454 38.7373 8.28817 38.5421 8 38.5421V35.213C8.14303 35.213 8.28466 35.1649 8.41675 35.0713C8.54884 34.9777 8.66881 34.8406 8.76975 34.6677C8.8707 34.4949 8.95065 34.2897 9.00501 34.0641C9.05938 33.8384 9.08708 33.5967 9.08654 33.3527C9.08654 32.8611 8.97207 32.3897 8.7683 32.0422C8.56454 31.6946 8.28817 31.4993 8 31.4993V28.1703C8.28817 28.1703 8.56454 27.975 8.7683 27.6275C8.97207 27.2799 9.08654 26.8085 9.08654 26.3169C9.08708 26.073 9.05938 25.8312 9.00501 25.6055C8.95065 25.3799 8.8707 25.1747 8.76975 25.0019C8.66881 24.8291 8.54884 24.6919 8.41675 24.5983C8.28466 24.5048 8.14303 24.4566 8 24.4566V21.1276C8.28675 21.1276 8.56188 20.9342 8.76542 20.5897C8.96895 20.2451 9.08438 19.7773 9.08654 19.2882C9.08817 19.043 9.06127 18.7998 9.00739 18.5725C8.95352 18.3452 8.87374 18.1384 8.77268 17.9641C8.67163 17.7898 8.5513 17.6514 8.41866 17.5569C8.28603 17.4625 8.14373 17.4138 8 17.4139V15.7284ZM331.632 119.328C331.752 119.021 331.815 118.661 331.814 118.292C331.813 117.903 331.741 117.528 331.61 117.216H329.837C329.789 117.33 329.749 117.453 329.717 117.584C329.634 117.924 329.612 118.299 329.654 118.66C329.696 119.022 329.8 119.354 329.952 119.615C330.105 119.875 330.3 120.053 330.512 120.124C330.724 120.196 330.943 120.158 331.143 120.017C331.342 119.875 331.513 119.635 331.632 119.328Z" fill="#F3F4F6"/>
</g>
<defs>
<filter id="filter0_d_10_250" x="0.25" y="0.1875" width="379.5" height="141.5" filterUnits="userSpaceOnUse" color-interpolation-filters="sRGB">
<feFlood flood-opacity="0" result="BackgroundImageFix"/>
<feColorMatrix in="SourceAlpha" type="matrix" values="0 0 0 0 0 0 0 0 0 0 0 0 0 0 0 0 0 0 127 0" result="hardAlpha"/>
<feOffset dy="1.9375"/>
<feGaussianBlur stdDeviation="3.875"/>
<feComposite in2="hardAlpha" operator="out"/>
<feColorMatrix type="matrix" values="0 0 0 0 0 0 0 0 0 0 0 0 0 0 0 0 0 0 0.1 0"/>
<feBlend mode="normal" in2="BackgroundImageFix" result="effect1_dropShadow_10_250"/>
<feBlend mode="normal" in="SourceGraphic" in2="effect1_dropShadow_10_250" result="shape"/>
</filter>
</defs>
</svg>
