<svg width="392" height="83" viewBox="0 0 392 83" fill="none" xmlns="http://www.w3.org/2000/svg">
<g filter="url(#filter0_d_11_238)">
<path fill-rule="evenodd" clip-rule="evenodd" d="M8 11.173C10.9647 11.173 13.3916 8.85613 13.3916 6H338.61C338.61 7.73301 340.063 9.13505 341.867 9.13505C343.671 9.13505 345.132 7.73301 345.132 6H378.591C378.591 8.85613 381.018 11.173 384 11.173V12.0693C383.847 12.061 383.693 12.0804 383.548 12.1263C383.404 12.1721 383.271 12.2435 383.159 12.336C383.047 12.4285 382.958 12.5402 382.897 12.6641C382.836 12.788 382.804 12.9216 382.804 13.0566C382.804 13.1917 382.836 13.3252 382.897 13.4492C382.958 13.5731 383.047 13.6848 383.159 13.7772C383.271 13.8697 383.404 13.9411 383.548 13.987C383.693 14.0329 383.847 14.0523 384 14.044V15.8142C383.847 15.8059 383.693 15.8253 383.548 15.8712C383.404 15.9171 383.271 15.9885 383.159 16.081C383.047 16.1735 382.958 16.2851 382.897 16.4091C382.836 16.533 382.804 16.6666 382.804 16.8016C382.804 16.9366 382.836 17.0702 382.897 17.1941C382.958 17.318 383.047 17.4297 383.159 17.5222C383.271 17.6147 383.404 17.6861 383.548 17.732C383.693 17.7778 383.847 17.7972 384 17.789V19.5592C383.847 19.5509 383.693 19.5703 383.548 19.6162C383.404 19.662 383.271 19.7334 383.159 19.8259C383.047 19.9184 382.958 20.0301 382.897 20.154C382.836 20.2779 382.804 20.4115 382.804 20.5465C382.804 20.6815 382.836 20.8151 382.897 20.9391C382.958 21.063 383.047 21.1746 383.159 21.2671C383.271 21.3596 383.404 21.431 383.548 21.4769C383.693 21.5228 383.847 21.5422 384 21.5339V23.3041C383.847 23.2958 383.693 23.3152 383.548 23.3611C383.404 23.407 383.271 23.4784 383.159 23.5709C383.047 23.6634 382.958 23.775 382.897 23.899C382.836 24.0229 382.804 24.1565 382.804 24.2915C382.804 24.4265 382.836 24.5601 382.897 24.684C382.958 24.8079 383.047 24.9196 383.159 25.0121C383.271 25.1046 383.404 25.176 383.548 25.2218C383.693 25.2677 383.847 25.2871 384 25.2789V27.0491C383.847 27.0408 383.693 27.0602 383.548 27.1061C383.404 27.1519 383.271 27.2233 383.159 27.3158C383.047 27.4083 382.958 27.52 382.897 27.6439C382.836 27.7678 382.804 27.9014 382.804 28.0364C382.804 28.1714 382.836 28.305 382.897 28.429C382.958 28.5529 383.047 28.6645 383.159 28.757C383.271 28.8495 383.404 28.9209 383.548 28.9668C383.693 29.0127 383.847 29.0321 384 29.0238V30.8014C383.847 30.7932 383.693 30.8126 383.548 30.8584C383.404 30.9043 383.271 30.9757 383.159 31.0682C383.047 31.1607 382.958 31.2724 382.897 31.3963C382.836 31.5202 382.804 31.6538 382.804 31.7888C382.804 31.9238 382.836 32.0574 382.897 32.1813C382.958 32.3053 383.047 32.4169 383.159 32.5094C383.271 32.6019 383.404 32.6733 383.548 32.7192C383.693 32.7651 383.847 32.7845 384 32.7762V34.5241C383.702 34.5241 383.417 34.6279 383.206 34.8127C382.996 34.9975 382.878 35.2482 382.878 35.5096C382.878 35.771 382.996 36.0216 383.206 36.2064C383.417 36.3913 383.702 36.4951 384 36.4951V38.2839C383.702 38.2839 383.417 38.3877 383.206 38.5725C382.996 38.7574 382.878 39.008 382.878 39.2694C382.878 39.5308 382.996 39.7815 383.206 39.9663C383.417 40.1511 383.702 40.2549 384 40.2549V42.0251C383.847 42.0168 383.693 42.0362 383.548 42.0821C383.404 42.128 383.271 42.1994 383.159 42.2919C383.047 42.3844 382.958 42.496 382.897 42.62C382.836 42.7439 382.804 42.8775 382.804 43.0125C382.804 43.1475 382.836 43.2811 382.897 43.405C382.958 43.529 383.047 43.6406 383.159 43.7331C383.271 43.8256 383.404 43.897 383.548 43.9429C383.693 43.9887 383.847 44.0081 384 43.9999V45.7701C383.847 45.7618 383.693 45.7812 383.548 45.8271C383.404 45.873 383.271 45.9443 383.159 46.0368C383.047 46.1293 382.958 46.241 382.897 46.3649C382.836 46.4888 382.804 46.6224 382.804 46.7574C382.804 46.8925 382.836 47.026 382.897 47.15C382.958 47.2739 383.047 47.3856 383.159 47.4781C383.271 47.5705 383.404 47.6419 383.548 47.6878C383.693 47.7337 383.847 47.7531 384 47.7448V49.515C383.847 49.5067 383.693 49.5261 383.548 49.572C383.404 49.6179 383.271 49.6893 383.159 49.7818C383.047 49.8743 382.958 49.9859 382.897 50.1099C382.836 50.2338 382.804 50.3674 382.804 50.5024C382.804 50.6374 382.836 50.771 382.897 50.8949C382.958 51.0188 383.047 51.1305 383.159 51.223C383.271 51.3155 383.404 51.3869 383.548 51.4328C383.693 51.4786 383.847 51.498 384 51.4898V53.26C383.847 53.2517 383.693 53.2711 383.548 53.317C383.404 53.3628 383.271 53.4342 383.159 53.5267C383.047 53.6192 382.958 53.7309 382.897 53.8548C382.836 53.9787 382.804 54.1123 382.804 54.2473C382.804 54.3824 382.836 54.5159 382.897 54.6399C382.958 54.7638 383.047 54.8754 383.159 54.9679C383.271 55.0604 383.404 55.1318 383.548 55.1777C383.693 55.2236 383.847 55.243 384 55.2347V57.0049C383.847 56.9966 383.693 57.016 383.548 57.0619C383.404 57.1078 383.271 57.1792 383.159 57.2717C383.047 57.3642 382.958 57.4758 382.897 57.5998C382.836 57.7237 382.804 57.8573 382.804 57.9923C382.804 58.1273 382.836 58.2609 382.897 58.3848C382.958 58.5087 383.047 58.6204 383.159 58.7129C383.271 58.8054 383.404 58.8768 383.548 58.9226C383.693 58.9685 383.847 58.9879 384 58.9797V60.7499C383.847 60.7416 383.693 60.761 383.548 60.8069C383.404 60.8527 383.271 60.9241 383.159 61.0166C383.047 61.1091 382.958 61.2208 382.897 61.3447C382.836 61.4686 382.804 61.6022 382.804 61.7372C382.804 61.8722 382.836 62.0058 382.897 62.1298C382.958 62.2537 383.047 62.3653 383.159 62.4578C383.271 62.5503 383.404 62.6217 383.548 62.6676C383.693 62.7135 383.847 62.7329 384 62.7246V64.4948C383.847 64.4865 383.693 64.5059 383.548 64.5518C383.404 64.5977 383.271 64.6691 383.159 64.7616C383.047 64.8541 382.958 64.9657 382.897 65.0896C382.836 65.2136 382.804 65.3472 382.804 65.4822C382.804 65.6172 382.836 65.7508 382.897 65.8747C382.958 65.9986 383.047 66.1103 383.159 66.2028C383.271 66.2953 383.404 66.3667 383.548 66.4125C383.693 66.4584 383.847 66.4778 384 66.4696V67.4104C381.018 67.4104 378.604 69.7273 378.604 72.5834C378.604 72.6546 378.61 72.7248 378.615 72.7945C378.62 72.8633 378.625 72.9316 378.625 73H345.145C345.145 71.2707 343.68 69.8649 341.875 69.8649C340.071 69.8649 338.61 71.2707 338.61 73H13.3704C13.3916 72.8624 13.3916 72.7248 13.3916 72.5834C13.3916 69.7273 10.9647 67.4104 8 67.4104V66.4696C8.14775 66.4696 8.29404 66.4439 8.43049 66.3942C8.56694 66.3444 8.69085 66.2715 8.79513 66.1796C8.89941 66.0877 8.98199 65.9786 9.03815 65.8586C9.0943 65.7386 9.12292 65.6101 9.12236 65.4803C9.12236 65.2189 9.00411 64.9683 8.79363 64.7835C8.58315 64.5986 8.29767 64.4948 8 64.4948V62.7246C8.14775 62.7246 8.29404 62.699 8.43049 62.6492C8.56694 62.5995 8.69085 62.5265 8.79513 62.4346C8.89941 62.3427 8.98199 62.2336 9.03815 62.1136C9.0943 61.9937 9.12292 61.8651 9.12236 61.7354C9.12236 61.474 9.00411 61.2233 8.79363 61.0385C8.58315 60.8537 8.29767 60.7499 8 60.7499V58.9797C8.14775 58.9797 8.29404 58.954 8.43049 58.9043C8.56694 58.8545 8.69085 58.7816 8.79513 58.6897C8.89941 58.5978 8.98199 58.4887 9.03815 58.3687C9.0943 58.2487 9.12292 58.1202 9.12236 57.9904C9.12236 57.729 9.00411 57.4784 8.79363 57.2936C8.58315 57.1087 8.29767 57.0049 8 57.0049V55.2347C8.29767 55.2347 8.58315 55.1309 8.79363 54.9461C9.00411 54.7612 9.12236 54.5106 9.12236 54.2492C9.12292 54.1195 9.0943 53.9909 9.03815 53.8709C8.98199 53.7509 8.89941 53.6418 8.79513 53.5499C8.69085 53.458 8.56694 53.3851 8.43049 53.3353C8.29404 53.2856 8.14775 53.26 8 53.26V51.4898C8.14775 51.4898 8.29404 51.4641 8.43049 51.4144C8.56694 51.3646 8.69085 51.2917 8.79513 51.1998C8.89941 51.1079 8.98199 50.9988 9.03815 50.8788C9.0943 50.7588 9.12292 50.6303 9.12236 50.5005C9.12292 50.3708 9.0943 50.2422 9.03815 50.1222C8.98199 50.0023 8.89941 49.8932 8.79513 49.8013C8.69085 49.7094 8.56694 49.6364 8.43049 49.5867C8.29404 49.5369 8.14775 49.5113 8 49.5113V47.7448C8.29767 47.7448 8.58315 47.641 8.79363 47.4562C9.00411 47.2713 9.12236 47.0207 9.12236 46.7593C9.12292 46.6296 9.0943 46.501 9.03815 46.381C8.98199 46.261 8.89941 46.1519 8.79513 46.06C8.69085 45.9681 8.56694 45.8952 8.43049 45.8454C8.29404 45.7957 8.14775 45.7701 8 45.7701V43.9999C8.14883 43.9999 8.29617 43.9739 8.43346 43.9235C8.57075 43.873 8.69524 43.7991 8.79968 43.706C8.90413 43.6129 8.98644 43.5025 9.04184 43.3812C9.09724 43.2599 9.12461 43.1301 9.12236 42.9995C9.12292 42.8697 9.0943 42.7412 9.03815 42.6212C8.98199 42.5012 8.89941 42.3921 8.79513 42.3002C8.69085 42.2083 8.56694 42.1354 8.43049 42.0856C8.29404 42.0359 8.14775 42.0102 8 42.0103V40.24C8.29767 40.24 8.58315 40.1362 8.79363 39.9514C9.00411 39.7666 9.12236 39.5159 9.12236 39.2545C9.12236 38.9932 9.00411 38.7425 8.79363 38.5577C8.58315 38.3728 8.29767 38.269 8 38.269V36.4951C8.26545 36.4597 8.50766 36.342 8.68269 36.1632C8.85771 35.9844 8.95396 35.7565 8.95396 35.5207C8.95396 35.285 8.85771 35.0571 8.68269 34.8783C8.50766 34.6995 8.26545 34.5818 8 34.5464V32.7762C8.14847 32.7762 8.29546 32.7503 8.43246 32.7001C8.56947 32.6499 8.69377 32.5763 8.79816 32.4836C8.90255 32.3909 8.98495 32.2809 9.0406 32.1601C9.09625 32.0392 9.12404 31.9099 9.12236 31.7795C9.12236 31.5181 9.00411 31.2675 8.79363 31.0827C8.58315 30.8978 8.29767 30.794 8 30.794V29.0238C8.14775 29.0238 8.29404 28.9982 8.43049 28.9484C8.56694 28.8987 8.69085 28.8257 8.79513 28.7338C8.89941 28.6419 8.98199 28.5328 9.03815 28.4128C9.0943 28.2929 9.12292 28.1643 9.12236 28.0346C9.12236 27.7732 9.00411 27.5225 8.79363 27.3377C8.58315 27.1529 8.29767 27.0491 8 27.0491V25.2789C8.14775 25.2789 8.29404 25.2532 8.43049 25.2035C8.56694 25.1537 8.69085 25.0808 8.79513 24.9889C8.89941 24.897 8.98199 24.7879 9.03815 24.6679C9.0943 24.5479 9.12292 24.4194 9.12236 24.2896C9.12236 24.0282 9.00411 23.7776 8.79363 23.5928C8.58315 23.4079 8.29767 23.3041 8 23.3041V21.5339C8.14775 21.5339 8.29404 21.5083 8.43049 21.4585C8.56694 21.4088 8.69085 21.3358 8.79513 21.2439C8.89941 21.152 8.98199 21.043 9.03815 20.923C9.0943 20.803 9.12292 20.6744 9.12236 20.5447C9.12236 20.2833 9.00411 20.0326 8.79363 19.8478C8.58315 19.663 8.29767 19.5592 8 19.5592V17.789C8.29767 17.789 8.58315 17.6851 8.79363 17.5003C9.00411 17.3155 9.12236 17.0648 9.12236 16.8034C9.12292 16.6737 9.0943 16.5452 9.03815 16.4252C8.98199 16.3052 8.89941 16.1961 8.79513 16.1042C8.69085 16.0123 8.56694 15.9393 8.43049 15.8896C8.29404 15.8398 8.14775 15.8142 8 15.8142V14.044C8.29621 14.044 8.58041 13.9412 8.79065 13.758C9.00089 13.5748 9.12013 13.326 9.12236 13.0659C9.12404 12.9356 9.09625 12.8062 9.0406 12.6854C8.98495 12.5645 8.90255 12.4545 8.79816 12.3619C8.69377 12.2692 8.56947 12.1956 8.43246 12.1453C8.29546 12.0951 8.14847 12.0693 8 12.0693V11.173Z" fill="white"/>
</g>
<defs>
<filter id="filter0_d_11_238" x="0" y="0" width="392" height="83" filterUnits="userSpaceOnUse" color-interpolation-filters="sRGB">
<feFlood flood-opacity="0" result="BackgroundImageFix"/>
<feColorMatrix in="SourceAlpha" type="matrix" values="0 0 0 0 0 0 0 0 0 0 0 0 0 0 0 0 0 0 127 0" result="hardAlpha"/>
<feOffset dy="2"/>
<feGaussianBlur stdDeviation="4"/>
<feComposite in2="hardAlpha" operator="out"/>
<feColorMatrix type="matrix" values="0 0 0 0 0 0 0 0 0 0 0 0 0 0 0 0 0 0 0.1 0"/>
<feBlend mode="normal" in2="BackgroundImageFix" result="effect1_dropShadow_11_238"/>
<feBlend mode="normal" in="SourceGraphic" in2="effect1_dropShadow_11_238" result="shape"/>
</filter>
</defs>
</svg>
