<svg width="16" height="16" viewBox="0 0 16 16" fill="none" xmlns="http://www.w3.org/2000/svg">
<path fill-rule="evenodd" clip-rule="evenodd" d="M6.00016 0.833252C4.25126 0.833252 2.8335 2.25102 2.8335 3.99992C2.8335 5.74882 4.25126 7.16659 6.00016 7.16659C7.74906 7.16659 9.16683 5.74882 9.16683 3.99992C9.16683 2.25102 7.74906 0.833252 6.00016 0.833252ZM3.8335 3.99992C3.8335 2.8033 4.80355 1.83325 6.00016 1.83325C7.19678 1.83325 8.16683 2.8033 8.16683 3.99992C8.16683 5.19654 7.19678 6.16659 6.00016 6.16659C4.80355 6.16659 3.8335 5.19654 3.8335 3.99992Z" fill="#9CA3AF"/>
<path d="M10.0002 1.49992C9.72402 1.49992 9.50016 1.72378 9.50016 1.99992C9.50016 2.27606 9.72402 2.49992 10.0002 2.49992C10.8286 2.49992 11.5002 3.17149 11.5002 3.99992C11.5002 4.82835 10.8286 5.49992 10.0002 5.49992C9.72402 5.49992 9.50016 5.72378 9.50016 5.99992C9.50016 6.27606 9.72402 6.49992 10.0002 6.49992C11.3809 6.49992 12.5002 5.38063 12.5002 3.99992C12.5002 2.61921 11.3809 1.49992 10.0002 1.49992Z" fill="#9CA3AF"/>
<path fill-rule="evenodd" clip-rule="evenodd" d="M2.45226 9.01351C3.38517 8.48042 4.64061 8.16659 6.00016 8.16659C7.35972 8.16659 8.61515 8.48042 9.54806 9.01351C10.4668 9.53852 11.1668 10.34 11.1668 11.3333C11.1668 12.3265 10.4668 13.128 9.54806 13.653C8.61515 14.1861 7.35972 14.4999 6.00016 14.4999C4.64061 14.4999 3.38517 14.1861 2.45226 13.653C1.53349 13.128 0.833496 12.3265 0.833496 11.3333C0.833496 10.34 1.53349 9.53852 2.45226 9.01351ZM2.9484 9.88176C2.17817 10.3219 1.8335 10.8537 1.8335 11.3333C1.8335 11.8128 2.17817 12.3446 2.9484 12.7847C3.70449 13.2168 4.78239 13.4999 6.00016 13.4999C7.21794 13.4999 8.29584 13.2168 9.05193 12.7847C9.82216 12.3446 10.1668 11.8128 10.1668 11.3333C10.1668 10.8537 9.82216 10.3219 9.05193 9.88176C8.29584 9.44971 7.21794 9.16659 6.00016 9.16659C4.78239 9.16659 3.70449 9.44971 2.9484 9.88176Z" fill="#9CA3AF"/>
<path d="M12.1073 8.84486C11.8375 8.78571 11.5709 8.95642 11.5118 9.22615C11.4526 9.49588 11.6233 9.7625 11.8931 9.82165C12.4213 9.93749 12.8435 10.1365 13.1221 10.3645C13.4011 10.5928 13.5002 10.8157 13.5002 10.9999C13.5002 11.1671 13.4198 11.3633 13.1981 11.5692C12.9748 11.7766 12.6318 11.9682 12.1893 12.1014C11.9249 12.1811 11.7751 12.4599 11.8547 12.7244C11.9343 12.9888 12.2132 13.1386 12.4777 13.059C13.026 12.8939 13.5163 12.6385 13.8787 12.3018C14.2427 11.9637 14.5002 11.519 14.5002 10.9999C14.5002 10.4234 14.184 9.94128 13.7554 9.59053C13.3264 9.23948 12.7485 8.98548 12.1073 8.84486Z" fill="#9CA3AF"/>
</svg>
