<svg width="25" height="24" viewBox="0 0 25 24" fill="none" xmlns="http://www.w3.org/2000/svg">
<path d="M12.5992 6.00164C12.2054 5.98861 11.813 6.05327 11.4442 6.19192C11.0755 6.33056 10.7376 6.54049 10.45 6.8097C10.1623 7.07891 9.93055 7.40214 9.76784 7.76094C9.60512 8.11973 9.51467 8.50706 9.50164 8.90081C9.48861 9.29456 9.55327 9.68702 9.69192 10.0558C9.83056 10.4245 10.0405 10.7624 10.3097 11.05C10.5789 11.3377 10.9021 11.5694 11.2609 11.7322C11.6197 11.8949 12.0071 11.9853 12.4008 11.9984C12.7946 12.0114 13.187 11.9467 13.5558 11.8081C13.9245 11.6694 14.2624 11.4595 14.55 11.1903C14.8377 10.9211 15.0694 10.5979 15.2322 10.2391C15.3949 9.88027 15.4853 9.49294 15.4984 9.09919C15.5114 8.70544 15.4467 8.31298 15.3081 7.94422C15.1694 7.57546 14.9595 7.23761 14.6903 6.94998C14.4211 6.66235 14.0979 6.43055 13.7391 6.26784C13.3803 6.10512 12.9929 6.01467 12.5992 6.00164Z" fill="#111827"/>
<path d="M19.7803 14.7803L16.7803 17.7803C16.4874 18.0732 16.0126 18.0732 15.7197 17.7803L14.4697 16.5303C14.1768 16.2374 14.1768 15.7626 14.4697 15.4697C14.7626 15.1768 15.2374 15.1768 15.5303 15.4697L16.25 16.1893L18.7197 13.7197C19.0126 13.4268 19.4874 13.4268 19.7803 13.7197C20.0732 14.0126 20.0732 14.4874 19.7803 14.7803Z" fill="#111827"/>
<path d="M12.5 13.5C11.3887 13.5 10.3022 13.8288 9.37793 14.445C8.45362 15.0612 7.73296 15.9372 7.30732 16.9624C7.21124 17.1939 7.2371 17.458 7.37623 17.6664C7.51537 17.8748 7.74941 18 8 18H12.5C12.9142 18 13.25 17.6642 13.25 17.25V14.25C13.25 13.8358 12.9142 13.5 12.5 13.5Z" fill="#111827"/>
</svg>
