<svg width="89" height="116" viewBox="0 0 89 116" fill="none" xmlns="http://www.w3.org/2000/svg">
<g clip-path="url(#clip0_1938_28110)">
<path d="M62.5911 0H27.3938C12.8127 0 0.992432 11.8681 0.992432 26.5082V61.8477C0.992432 76.4878 12.8127 88.3559 27.3938 88.3559H62.5911C77.1721 88.3559 88.9924 76.4878 88.9924 61.8477V26.5082C88.9924 11.8681 77.1721 0 62.5911 0Z" fill="url(#paint0_linear_1938_28110)"/>
<path d="M12.4173 104.386C13.5115 104.355 14.5732 104.761 15.37 105.515C15.7549 105.875 16.0591 106.313 16.2625 106.801C16.4659 107.288 16.5638 107.813 16.5497 108.341C16.5577 108.861 16.4554 109.377 16.2497 109.855C16.0439 110.333 15.7393 110.761 15.3562 111.112C14.5411 111.866 13.4628 112.266 12.3552 112.227C11.8258 112.244 11.2983 112.154 10.8041 111.962C10.3099 111.771 9.85911 111.482 9.47849 111.112C9.1049 110.756 8.80944 110.326 8.61105 109.848C8.41266 109.371 8.3157 108.858 8.32639 108.341C8.31063 107.811 8.40563 107.284 8.60526 106.794C8.80489 106.304 9.10471 105.861 9.48537 105.494C9.87583 105.122 10.3364 104.833 10.8399 104.643C11.3434 104.452 11.8797 104.365 12.4173 104.386ZM12.4656 105.432C12.0691 105.418 11.6738 105.483 11.303 105.625C10.9321 105.766 10.5933 105.981 10.3063 106.256C10.0283 106.524 9.8091 106.847 9.66295 107.205C9.51681 107.563 9.44693 107.947 9.45779 108.334C9.44693 108.721 9.51681 109.105 9.66295 109.463C9.8091 109.821 10.0283 110.144 10.3063 110.412C10.8875 110.946 11.6468 111.242 12.4346 111.242C13.2224 111.242 13.9816 110.946 14.5628 110.412C14.8401 110.143 15.0592 109.82 15.2064 109.463C15.3536 109.105 15.4257 108.721 15.4183 108.334C15.4282 107.947 15.3573 107.562 15.2099 107.204C15.0626 106.846 14.8422 106.523 14.5628 106.256C14.286 105.985 13.9577 105.772 13.5975 105.63C13.2372 105.489 12.8523 105.421 12.4656 105.432Z" fill="#374151"/>
<path d="M25.6541 104.496H26.6889V112.171H25.7507L20.6387 106.262V112.171H19.6108V104.496H20.4939L25.6541 110.46V104.496Z" fill="#374151"/>
<path d="M32.7739 104.484H39.1621V105.468H36.4992V112.173H35.3954V105.468H32.7739V104.484Z" fill="#374151"/>
<path d="M47.2614 104.496H48.3583V112.171H47.2614V108.86H42.9635V112.198H41.8735V104.496H42.9635V107.814H47.2614V104.496Z" fill="#374151"/>
<path d="M51.7117 104.496H56.051V105.473H52.781V107.814H55.913V108.797H52.781V111.187H56.1269V112.164H51.6841L51.7117 104.496Z" fill="#374151"/>
<path d="M67.9571 108.396H70.5234V111.63C69.6418 112.027 68.6884 112.237 67.7226 112.247C67.168 112.275 66.6134 112.191 66.092 111.999C65.5705 111.807 65.0927 111.512 64.6871 111.132C64.3143 110.776 64.0203 110.345 63.8242 109.868C63.6281 109.391 63.5342 108.877 63.5488 108.361C63.5355 107.828 63.6336 107.298 63.8368 106.805C64.04 106.312 64.3438 105.868 64.7285 105.5C65.1185 105.122 65.5801 104.826 66.0861 104.629C66.5921 104.433 67.1321 104.341 67.6743 104.357C68.0877 104.353 68.5001 104.399 68.9023 104.496C69.4049 104.627 69.8963 104.799 70.3717 105.009V106.131C69.5526 105.627 68.6141 105.352 67.6536 105.334C67.2633 105.329 66.8759 105.401 66.514 105.548C66.1522 105.695 65.8231 105.913 65.5462 106.189C65.2692 106.465 65.05 106.794 64.9013 107.156C64.7526 107.518 64.6774 107.907 64.6802 108.299C64.6677 108.695 64.7379 109.09 64.8864 109.457C65.0349 109.825 65.2585 110.157 65.5426 110.432C65.8374 110.711 66.1844 110.927 66.5633 111.07C66.9423 111.213 67.3457 111.278 67.7502 111.263C68.2874 111.248 68.8187 111.145 69.3231 110.959H69.4266V109.358H67.9571V108.396Z" fill="#374151"/>
<path d="M77.5267 104.386C78.0688 104.368 78.6091 104.459 79.116 104.653C79.6229 104.846 80.0863 105.14 80.4794 105.515C80.8643 105.875 81.1685 106.313 81.3719 106.801C81.5753 107.288 81.6731 107.813 81.659 108.341C81.6684 108.861 81.5674 109.377 81.3628 109.855C81.1582 110.332 80.8547 110.761 80.4725 111.112C79.6574 111.866 78.579 112.266 77.4715 112.227C76.941 112.244 76.4126 112.154 75.9173 111.962C75.422 111.771 74.97 111.481 74.5878 111.112C74.2143 110.756 73.9188 110.326 73.7204 109.848C73.522 109.371 73.4251 108.858 73.4358 108.341C73.42 107.811 73.515 107.284 73.7146 106.794C73.9143 106.304 74.2141 105.861 74.5947 105.494C74.9852 105.122 75.4458 104.833 75.9493 104.643C76.4528 104.452 76.9891 104.365 77.5267 104.386ZM77.575 105.432C77.1786 105.418 76.7835 105.484 76.4128 105.626C76.042 105.767 75.7031 105.982 75.4157 106.256C75.1376 106.524 74.9185 106.847 74.7723 107.205C74.6262 107.563 74.5563 107.947 74.5672 108.334C74.5563 108.721 74.6262 109.105 74.7723 109.463C74.9185 109.821 75.1376 110.144 75.4157 110.412C75.6976 110.684 76.0307 110.897 76.3956 111.039C76.7604 111.18 77.1496 111.247 77.5405 111.236C77.9338 111.249 78.3256 111.181 78.6921 111.037C79.0585 110.893 79.392 110.676 79.6722 110.398C79.9504 110.13 80.1705 109.807 80.3189 109.449C80.4673 109.092 80.5407 108.707 80.5345 108.32C80.5436 107.932 80.4716 107.547 80.323 107.189C80.1745 106.831 79.9528 106.509 79.6722 106.242C79.3942 105.973 79.0655 105.763 78.7053 105.624C78.3451 105.485 77.9607 105.419 77.575 105.432Z" fill="#374151"/>
<path d="M45.2552 19.1381C45.2552 19.1381 36.2869 22.546 33.8585 30.5393C33.8585 30.5393 38.3772 34.8892 48.5114 26.9444C58.6456 18.9996 67.0689 18.2862 72.3464 20.8421C72.3464 20.8421 62.8331 9.96036 42.1025 12.5648C42.1025 12.5648 19.1574 15.8272 24.3383 34.6053C24.3383 34.6053 21.089 33.3793 20.7096 26.7089C20.7096 26.7089 5.82214 51.6863 27.1668 69.4253C27.1668 69.4253 36.8733 79.4482 57.8867 75.0982C57.8867 75.0982 74.2781 71.0323 74.3264 62.1386V45.674C74.3264 45.674 74.1401 39.9041 68.7177 39.5301L50.7811 39.6686C50.7811 39.6686 46.1175 39.7171 48.5252 46.8584C48.5252 46.8584 50.8776 51.4508 54.2235 51.2084H61.3361V56.7496C61.3361 56.7496 61.6672 62.3325 53.989 63.6139C46.3107 64.8954 43.2753 63.8356 40.1364 62.3325C36.1282 60.4207 31.168 57.4839 29.3468 48.1884C27.5255 38.8928 29.7124 22.7815 45.2552 19.1381Z" fill="white"/>
</g>
<defs>
<linearGradient id="paint0_linear_1938_28110" x1="5.15926" y1="84.1722" x2="80.3193" y2="9.31486" gradientUnits="userSpaceOnUse">
<stop stop-color="#F37243"/>
<stop offset="0.13" stop-color="#F0556A"/>
<stop offset="0.28" stop-color="#D53C96"/>
<stop offset="0.45" stop-color="#8B4A9D"/>
<stop offset="0.54" stop-color="#6055A4"/>
<stop offset="0.7" stop-color="#6455A4"/>
<stop offset="0.91" stop-color="#00C1EE"/>
<stop offset="1" stop-color="#78CCC6"/>
</linearGradient>
<clipPath id="clip0_1938_28110">
<rect width="88" height="116" fill="white" transform="translate(0.992432)"/>
</clipPath>
</defs>
</svg>
