<svg width="44" height="44" viewBox="0 0 44 44" fill="none" xmlns="http://www.w3.org/2000/svg">
<path d="M20.0303 18.9697C19.7374 18.6768 19.2625 18.6768 18.9696 18.9697C18.6767 19.2625 18.6767 19.7374 18.9696 20.0303L20.9393 22L18.9697 23.9697C18.6768 24.2625 18.6768 24.7374 18.9697 25.0303C19.2626 25.3232 19.7374 25.3232 20.0303 25.0303L22 23.0607L23.9696 25.0303C24.2625 25.3232 24.7374 25.3232 25.0303 25.0303C25.3232 24.7374 25.3232 24.2625 25.0303 23.9696L23.0606 22L25.0303 20.0303C25.3232 19.7374 25.3232 19.2626 25.0303 18.9697C24.7374 18.6768 24.2625 18.6768 23.9696 18.9697L22 20.9393L20.0303 18.9697Z" fill="#111827"/>
<path fill-rule="evenodd" clip-rule="evenodd" d="M22 11.25C16.0629 11.25 11.25 16.0629 11.25 22C11.25 27.9371 16.0629 32.75 22 32.75C27.9371 32.75 32.75 27.9371 32.75 22C32.75 16.0629 27.9371 11.25 22 11.25ZM12.75 22C12.75 16.8914 16.8914 12.75 22 12.75C27.1086 12.75 31.25 16.8914 31.25 22C31.25 27.1086 27.1086 31.25 22 31.25C16.8914 31.25 12.75 27.1086 12.75 22Z" fill="#111827"/>
</svg>
