<svg width="16" height="16" viewBox="0 0 16 16" fill="none" xmlns="http://www.w3.org/2000/svg">
<g clip-path="url(#clip0_1197_150692)">
<rect width="16" height="16" rx="8" fill="white"/>
<path fill-rule="evenodd" clip-rule="evenodd" d="M18 8C18 13.5228 13.5228 18 8 18C2.47715 18 -2 13.5228 -2 8C-2 2.47715 2.47715 -2 8 -2C13.5228 -2 18 2.47715 18 8ZM4.96963 4.96965C5.26252 4.67676 5.73739 4.67676 6.03029 4.96965L7.99997 6.93933L9.96963 4.96967C10.2625 4.67678 10.7374 4.67678 11.0303 4.96967C11.3232 5.26256 11.3232 5.73744 11.0303 6.03033L9.06063 7.99999L11.0303 9.96963C11.3232 10.2625 11.3232 10.7374 11.0303 11.0303C10.7374 11.3232 10.2625 11.3232 9.96961 11.0303L7.99997 9.06065L6.03031 11.0303C5.73742 11.3232 5.26254 11.3232 4.96965 11.0303C4.67676 10.7374 4.67676 10.2625 4.96965 9.96965L6.93931 7.99999L4.96963 6.03031C4.67673 5.73742 4.67673 5.26254 4.96963 4.96965Z" fill="#9CA3AF"/>
</g>
<rect x="0.5" y="0.5" width="15" height="15" rx="7.5" stroke="#E5E7EB"/>
<defs>
<clipPath id="clip0_1197_150692">
<rect width="16" height="16" rx="8" fill="white"/>
</clipPath>
</defs>
</svg>
