<svg width="24" height="24" viewBox="0 0 24 24" fill="none" xmlns="http://www.w3.org/2000/svg">
<path d="M12.8866 4.52932C13.3793 4.07182 14.1456 4.08601 14.621 4.56143L16.4396 6.38003C16.9151 6.85545 16.9292 7.62178 16.4717 8.11447L10.2996 14.7614C10.1577 14.9142 9.95855 15.0011 9.75 15.0011H6.75C6.33579 15.0011 6 14.6653 6 14.2511V11.2511C6 11.0425 6.08684 10.8434 6.23966 10.7015L12.8866 4.52932Z" fill="#160042"/>
<path d="M6 17.2511C6 16.8368 6.33579 16.5011 6.75 16.5011H17.25C17.6642 16.5011 18 16.8368 18 17.2511C18 17.6653 17.6642 18.0011 17.25 18.0011H6.75C6.33579 18.0011 6 17.6653 6 17.2511Z" fill="#160042"/>
</svg>
