<svg width="24" height="24" viewBox="0 0 24 24" fill="none" xmlns="http://www.w3.org/2000/svg">
<path d="M12.8866 4.52822C13.3793 4.07072 14.1456 4.08491 14.621 4.56033L16.4396 6.37893C16.9151 6.85435 16.9292 7.62068 16.4717 8.11338L10.2996 14.7603C10.1577 14.9131 9.95855 15 9.75 15H6.75C6.33579 15 6 14.6642 6 14.25V11.25C6 11.0414 6.08684 10.8423 6.23966 10.7004L12.8866 4.52822Z" fill="#4B92FF"/>
<path d="M6 17.25C6 16.8357 6.33579 16.5 6.75 16.5H17.25C17.6642 16.5 18 16.8357 18 17.25C18 17.6642 17.6642 18 17.25 18H6.75C6.33579 18 6 17.6642 6 17.25Z" fill="#4B92FF"/>
</svg>
