<svg width="21" height="20" viewBox="0 0 21 20" fill="none" xmlns="http://www.w3.org/2000/svg">
<path fill-rule="evenodd" clip-rule="evenodd" d="M10.5003 6.87504C8.77444 6.87504 7.37533 8.27415 7.37533 10C7.37533 11.7259 8.77444 13.125 10.5003 13.125C12.2262 13.125 13.6253 11.7259 13.6253 10C13.6253 8.27415 12.2262 6.87504 10.5003 6.87504ZM8.62533 10C8.62533 8.96451 9.46479 8.12504 10.5003 8.12504C11.5359 8.12504 12.3753 8.96451 12.3753 10C12.3753 11.0356 11.5359 11.875 10.5003 11.875C9.46479 11.875 8.62533 11.0356 8.62533 10Z" fill="#F6F7F9"/>
<path fill-rule="evenodd" clip-rule="evenodd" d="M10.5003 2.70837C6.73855 2.70837 4.20474 4.96187 2.73413 6.87243L2.70761 6.90687C2.37502 7.33882 2.06871 7.73664 1.8609 8.20704C1.63836 8.71077 1.54199 9.25978 1.54199 10C1.54199 10.7403 1.63836 11.2893 1.8609 11.793C2.06871 12.2634 2.37503 12.6613 2.70761 13.0932L2.73413 13.1277C4.20474 15.0382 6.73855 17.2917 10.5003 17.2917C14.2621 17.2917 16.7959 15.0382 18.2665 13.1277L18.293 13.0932C18.6256 12.6613 18.9319 12.2634 19.1398 11.793C19.3623 11.2893 19.4587 10.7403 19.4587 10C19.4587 9.25978 19.3623 8.71077 19.1398 8.20704C18.9319 7.73663 18.6256 7.33881 18.293 6.90685L18.2665 6.87243C16.7959 4.96187 14.2621 2.70837 10.5003 2.70837ZM3.72467 7.63487C5.08252 5.87081 7.29229 3.95837 10.5003 3.95837C13.7084 3.95837 15.9181 5.87081 17.276 7.63487C17.6415 8.1097 17.8555 8.39342 17.9964 8.71216C18.128 9.01005 18.2087 9.37415 18.2087 10C18.2087 10.6259 18.128 10.99 17.9964 11.2879C17.8555 11.6067 17.6415 11.8904 17.276 12.3652C15.9181 14.1293 13.7084 16.0417 10.5003 16.0417C7.29229 16.0417 5.08252 14.1293 3.72467 12.3652C3.35919 11.8904 3.14511 11.6067 3.00429 11.2879C2.87269 10.99 2.79199 10.6259 2.79199 10C2.79199 9.37415 2.87269 9.01005 3.00429 8.71216C3.1451 8.39342 3.35919 8.1097 3.72467 7.63487Z" fill="#F6F7F9"/>
<path fill-rule="evenodd" clip-rule="evenodd" d="M10.5003 6.87504C8.77444 6.87504 7.37533 8.27415 7.37533 10C7.37533 11.7259 8.77444 13.125 10.5003 13.125C12.2262 13.125 13.6253 11.7259 13.6253 10C13.6253 8.27415 12.2262 6.87504 10.5003 6.87504ZM8.62533 10C8.62533 8.96451 9.46479 8.12504 10.5003 8.12504C11.5359 8.12504 12.3753 8.96451 12.3753 10C12.3753 11.0356 11.5359 11.875 10.5003 11.875C9.46479 11.875 8.62533 11.0356 8.62533 10Z" stroke="#F6F7F9"/>
<path fill-rule="evenodd" clip-rule="evenodd" d="M10.5003 2.70837C6.73855 2.70837 4.20474 4.96187 2.73413 6.87243L2.70761 6.90687C2.37502 7.33882 2.06871 7.73664 1.8609 8.20704C1.63836 8.71077 1.54199 9.25978 1.54199 10C1.54199 10.7403 1.63836 11.2893 1.8609 11.793C2.06871 12.2634 2.37503 12.6613 2.70761 13.0932L2.73413 13.1277C4.20474 15.0382 6.73855 17.2917 10.5003 17.2917C14.2621 17.2917 16.7959 15.0382 18.2665 13.1277L18.293 13.0932C18.6256 12.6613 18.9319 12.2634 19.1398 11.793C19.3623 11.2893 19.4587 10.7403 19.4587 10C19.4587 9.25978 19.3623 8.71077 19.1398 8.20704C18.9319 7.73663 18.6256 7.33881 18.293 6.90685L18.2665 6.87243C16.7959 4.96187 14.2621 2.70837 10.5003 2.70837ZM3.72467 7.63487C5.08252 5.87081 7.29229 3.95837 10.5003 3.95837C13.7084 3.95837 15.9181 5.87081 17.276 7.63487C17.6415 8.1097 17.8555 8.39342 17.9964 8.71216C18.128 9.01005 18.2087 9.37415 18.2087 10C18.2087 10.6259 18.128 10.99 17.9964 11.2879C17.8555 11.6067 17.6415 11.8904 17.276 12.3652C15.9181 14.1293 13.7084 16.0417 10.5003 16.0417C7.29229 16.0417 5.08252 14.1293 3.72467 12.3652C3.35919 11.8904 3.14511 11.6067 3.00429 11.2879C2.87269 10.99 2.79199 10.6259 2.79199 10C2.79199 9.37415 2.87269 9.01005 3.00429 8.71216C3.1451 8.39342 3.35919 8.1097 3.72467 7.63487Z" stroke="#F6F7F9"/>
</svg>
