<svg width="56" height="56" viewBox="0 0 56 56" fill="none" xmlns="http://www.w3.org/2000/svg">
<rect x="4" y="4" width="48" height="48" rx="24" fill="#FEF3E9"/>
<path fill-rule="evenodd" clip-rule="evenodd" d="M19.3072 14.5375C19.3072 14.5375 19.3072 14.5374 19.3072 14.5375C19.2452 14.2245 18.97 13.9989 18.6509 14C18.3317 14.0011 18.0581 14.2282 17.9983 14.5417L17.9979 14.544L17.9953 14.5568C17.9929 14.5687 17.9891 14.5874 17.9838 14.6121C17.9732 14.6614 17.9568 14.7346 17.9346 14.8256C17.8899 15.0083 17.8223 15.2597 17.7308 15.5342C17.5379 16.1131 17.275 16.681 16.9733 16.9847C16.6717 17.2885 16.1056 17.5551 15.5279 17.752C15.2541 17.8453 15.0031 17.9146 14.8207 17.9605C14.7299 17.9834 14.6569 18.0002 14.6076 18.0112C14.5829 18.0166 14.5643 18.0206 14.5523 18.0231L14.5396 18.0257L14.5375 18.0261C14.2244 18.0881 13.9989 18.3633 14 18.6824C14.0011 19.0016 14.2282 19.2752 14.5417 19.335L14.544 19.3355L14.5568 19.338C14.5687 19.3404 14.5874 19.3443 14.6121 19.3496C14.6614 19.3602 14.7346 19.3765 14.8256 19.3988C15.0083 19.4434 15.2597 19.5111 15.5342 19.6025C16.1131 19.7955 16.681 20.0583 16.9847 20.36C17.2885 20.6617 17.5551 21.2278 17.752 21.8054C17.8453 22.0793 17.9146 22.3302 17.9605 22.5126C17.9834 22.6035 18.0002 22.6765 18.0112 22.7258C18.0166 22.7504 18.0206 22.7691 18.0231 22.781L18.0257 22.7938L18.0261 22.7959C18.0881 23.1089 18.3633 23.3344 18.6824 23.3333C19.0016 23.3323 19.2752 23.1051 19.335 22.7916L19.3355 22.7893L19.338 22.7766C19.3404 22.7646 19.3443 22.7459 19.3496 22.7213C19.3602 22.6719 19.3765 22.5988 19.3988 22.5078C19.4434 22.325 19.5111 22.0736 19.6025 21.7991C19.7955 21.2202 20.0583 20.6523 20.36 20.3486C20.6617 20.0449 21.2278 19.7782 21.8054 19.5814C22.0793 19.488 22.3302 19.4187 22.5126 19.3728C22.6035 19.3499 22.6765 19.3331 22.7258 19.3222C22.7504 19.3167 22.7691 19.3127 22.781 19.3102L22.7938 19.3076L22.7959 19.3072C22.7958 19.3072 22.7959 19.3072 22.7959 19.3072C23.1088 19.2451 23.3344 18.97 23.3333 18.6509C23.3323 18.3317 23.1051 18.0581 22.7916 17.9983L22.7893 17.9979L22.7766 17.9953C22.7646 17.9929 22.7459 17.9891 22.7213 17.9838C22.6719 17.9732 22.5988 17.9568 22.5078 17.9346C22.325 17.8899 22.0736 17.8223 21.7991 17.7308C21.2202 17.5379 20.6523 17.275 20.3486 16.9733C20.0449 16.6717 19.7782 16.1056 19.5814 15.5279C19.488 15.2541 19.4187 15.0031 19.3728 14.8207C19.3499 14.7299 19.3331 14.6569 19.3222 14.6076C19.3167 14.5829 19.3127 14.5643 19.3102 14.5523L19.3076 14.5396L19.3072 14.5375ZM20.5282 18.6604C20.1245 18.4707 19.7189 18.2272 19.409 17.9193C19.099 17.6115 18.8528 17.2076 18.6604 16.8051C18.4707 17.2089 18.2272 17.6144 17.9193 17.9244C17.6115 18.2343 17.2076 18.4806 16.8051 18.673C17.2089 18.8626 17.6144 19.1062 17.9244 19.414C18.2343 19.7219 18.4806 20.1257 18.673 20.5282C18.8626 20.1245 19.1062 19.7189 19.414 19.409C19.7219 19.099 20.1257 18.8528 20.5282 18.6604Z" fill="#FEB744"/>
<path fill-rule="evenodd" clip-rule="evenodd" d="M37.3333 16.3333C37.8856 16.3333 38.3333 16.781 38.3333 17.3333V17.6667H38.6667C39.219 17.6667 39.6667 18.1144 39.6667 18.6667C39.6667 19.219 39.219 19.6667 38.6667 19.6667H38.3333V20C38.3333 20.5523 37.8856 21 37.3333 21C36.781 21 36.3333 20.5523 36.3333 20V19.6667H36C35.4477 19.6667 35 19.219 35 18.6667C35 18.1144 35.4477 17.6667 36 17.6667H36.3333V17.3333C36.3333 16.781 36.781 16.3333 37.3333 16.3333ZM27.9833 20.2404C27.5453 20.8123 27.0478 21.6996 26.3137 23.0164L25.9423 23.6826C25.9184 23.7256 25.8946 23.7684 25.8711 23.8108C25.5362 24.4141 25.2333 24.9595 24.7436 25.3313C24.2479 25.7076 23.6449 25.8429 22.9919 25.9893C22.9459 25.9996 22.8998 26.01 22.8534 26.0205L22.1322 26.1836C20.7044 26.5067 19.7502 26.7255 19.1006 26.9815C18.4698 27.2301 18.3853 27.4149 18.3533 27.5177C18.3179 27.6314 18.2887 27.8533 18.6672 28.4545C19.0525 29.0665 19.7058 29.8344 20.6774 30.9707L21.1691 31.5456C21.1998 31.5815 21.2303 31.6171 21.2606 31.6524C21.7102 32.1764 22.1113 32.6439 22.2955 33.2365C22.4786 33.825 22.4178 34.4419 22.349 35.1416C22.3443 35.1888 22.3396 35.2364 22.335 35.2843L22.2607 36.0514C22.1139 37.5661 22.0168 38.5928 22.0496 39.3285C22.0823 40.0625 22.2361 40.2111 22.3071 40.2651C22.3619 40.3066 22.5088 40.4144 23.1655 40.2263C23.835 40.0344 24.7306 39.6252 26.0675 39.0096L26.7428 38.6987C26.7871 38.6783 26.8312 38.6579 26.8751 38.6376C27.4821 38.3566 28.0477 38.0948 28.6667 38.0948C29.2856 38.0948 29.8512 38.3566 30.4583 38.6376C30.5021 38.6579 30.5462 38.6783 30.5905 38.6987L31.2658 39.0097C32.6027 39.6252 33.4983 40.0344 34.1679 40.2263C34.8245 40.4144 34.9714 40.3066 35.0262 40.2651C35.0972 40.2111 35.251 40.0625 35.2837 39.3285C35.3165 38.5928 35.2194 37.5661 35.0727 36.0514L34.9983 35.2843C34.9937 35.2364 34.989 35.1888 34.9844 35.1417C34.9155 34.4419 34.8548 33.8251 35.0378 33.2365C35.2221 32.6439 35.6231 32.1764 36.0727 31.6524C36.103 31.6171 36.1335 31.5815 36.1642 31.5456L36.6559 30.9707C37.6276 29.8344 38.2809 29.0665 38.6661 28.4545C39.0446 27.8533 39.0154 27.6314 38.98 27.5177C38.9481 27.4149 38.8635 27.2301 38.2328 26.9815C37.5831 26.7255 36.629 26.5067 35.2012 26.1836L34.48 26.0205C34.4336 26.01 34.3874 25.9996 34.3415 25.9893C33.6884 25.8429 33.0854 25.7076 32.5898 25.3313C32.1 24.9595 31.7972 24.4141 31.4623 23.8108C31.4387 23.7684 31.415 23.7256 31.391 23.6826L31.0196 23.0164C30.2856 21.6996 29.788 20.8123 29.35 20.2404C28.9125 19.6691 28.7237 19.6667 28.6667 19.6667C28.6097 19.6667 28.4208 19.6691 27.9833 20.2404ZM26.3954 19.0244C26.944 18.308 27.6506 17.6667 28.6667 17.6667C29.6828 17.6667 30.3893 18.308 30.9379 19.0244C31.4755 19.7263 32.0429 20.7443 32.7263 21.9704L33.1379 22.7088C33.5893 23.5186 33.6872 23.6535 33.799 23.7384C33.9046 23.8185 34.0432 23.8711 34.9213 24.0698L35.7253 24.2517C37.0485 24.551 38.1558 24.8015 38.966 25.1208C39.812 25.4542 40.5902 25.9603 40.8898 26.9238C41.1861 27.8765 40.8475 28.7434 40.3587 29.5199C39.8858 30.2711 39.1339 31.1503 38.2288 32.2086L37.6842 32.8454C37.0902 33.5401 36.9938 33.6816 36.9476 33.8304C36.9 33.9834 36.8993 34.1655 36.989 35.0914L37.0711 35.9383C37.2082 37.3529 37.3216 38.5227 37.2817 39.4175C37.2411 40.3308 37.0326 41.253 36.2355 41.8581C35.4221 42.4756 34.4824 42.3969 33.617 42.1489C32.7818 41.9096 31.7458 41.4325 30.5071 40.8622L29.7541 40.5154C28.9285 40.1353 28.7892 40.0948 28.6667 40.0948C28.5441 40.0948 28.4048 40.1353 27.5792 40.5154L26.8262 40.8622C25.5875 41.4325 24.5515 41.9096 23.7164 42.1489C22.851 42.3969 21.9113 42.4756 21.0979 41.8581C20.3008 41.253 20.0923 40.3308 20.0516 39.4175C20.0117 38.5227 20.1251 37.3529 20.2622 35.9384L20.3443 35.0914C20.434 34.1655 20.4333 33.9834 20.3857 33.8304C20.3395 33.6816 20.2431 33.5401 19.6491 32.8454L19.1045 32.2086C18.1994 31.1502 17.4475 30.2711 16.9746 29.5199C16.4858 28.7434 16.1473 27.8765 16.4435 26.9238C16.7431 25.9603 17.5213 25.4542 18.3673 25.1208C19.1776 24.8015 20.2848 24.551 21.608 24.2517L22.412 24.0698C23.2901 23.8711 23.4288 23.8185 23.5343 23.7384C23.6461 23.6535 23.744 23.5186 24.1954 22.7088L24.607 21.9704C25.2905 20.7443 25.8579 19.7263 26.3954 19.0244Z" fill="#FEB744"/>
<rect x="4" y="4" width="48" height="48" rx="24" stroke="#FFF9F4" stroke-width="8"/>
</svg>
