<svg width="16" height="16" viewBox="0 0 16 16" fill="none" xmlns="http://www.w3.org/2000/svg">
<path fill-rule="evenodd" clip-rule="evenodd" d="M14.6663 8.00065C14.6663 11.6825 11.6816 14.6673 7.99967 14.6673C4.31778 14.6673 1.33301 11.6825 1.33301 8.00065C1.33301 4.31875 4.31778 1.33398 7.99967 1.33398C11.6816 1.33398 14.6663 4.31875 14.6663 8.00065ZM10.6866 5.98043C10.8818 6.17569 10.8818 6.49228 10.6866 6.68754L7.35323 10.0209C7.15797 10.2161 6.84138 10.2161 6.64612 10.0209L5.31279 8.68754C5.11753 8.49228 5.11753 8.17569 5.31279 7.98043C5.50805 7.78517 5.82463 7.78517 6.01989 7.98043L6.99967 8.96021L8.48956 7.47032L9.97945 5.98043C10.1747 5.78517 10.4913 5.78517 10.6866 5.98043Z" fill="#08CB66"/>
</svg>
