<svg width="16" height="16" viewBox="0 0 16 16" fill="none" xmlns="http://www.w3.org/2000/svg">
<path d="M12.333 2H10.6664C10.4823 2 10.333 2.14924 10.333 2.33333V2.3726L12.6664 4.23927V2.33333C12.6664 2.14924 12.5171 2 12.333 2Z" fill="#4B92FF"/>
<path fill-rule="evenodd" clip-rule="evenodd" d="M7.16636 6.33333C7.16636 5.8731 7.53946 5.5 7.99969 5.5C8.45993 5.5 8.83303 5.8731 8.83303 6.33333C8.83303 6.79357 8.45993 7.16667 7.99969 7.16667C7.53946 7.16667 7.16636 6.79357 7.16636 6.33333Z" fill="#4B92FF"/>
<path fill-rule="evenodd" clip-rule="evenodd" d="M13.833 7.30698L14.354 7.72377C14.5696 7.89627 14.8843 7.86131 15.0568 7.64568C15.2293 7.43005 15.1943 7.1154 14.9787 6.9429L9.56143 2.60908C8.64839 1.87864 7.351 1.87864 6.43795 2.60908L1.02068 6.9429C0.805048 7.1154 0.770087 7.43005 0.942592 7.64568C1.1151 7.86131 1.42974 7.89627 1.64537 7.72377L2.16636 7.30698V14.1667H1.33303C1.05688 14.1667 0.833026 14.3905 0.833026 14.6667C0.833026 14.9428 1.05688 15.1667 1.33303 15.1667H14.6664C14.9425 15.1667 15.1664 14.9428 15.1664 14.6667C15.1664 14.3905 14.9425 14.1667 14.6664 14.1667H13.833V7.30698ZM6.16636 6.33333C6.16636 5.32081 6.98717 4.5 7.99969 4.5C9.01222 4.5 9.83303 5.32081 9.83303 6.33333C9.83303 7.34586 9.01222 8.16667 7.99969 8.16667C6.98717 8.16667 6.16636 7.34586 6.16636 6.33333ZM8.03261 8.83333C8.47585 8.83331 8.85776 8.83329 9.16359 8.8744C9.49135 8.91847 9.80552 9.01784 10.0604 9.27267C10.3152 9.5275 10.4146 9.84168 10.4586 10.1694C10.4972 10.4562 10.4996 10.8097 10.4997 11.218C10.4997 11.2452 10.4997 11.2727 10.4997 11.3004L10.4997 14.1667H9.49969V11.3333C9.49969 10.8478 9.49863 10.5339 9.46754 10.3027C9.43838 10.0858 9.39131 10.0178 9.35325 9.97978C9.31518 9.94172 9.24721 9.89464 9.03034 9.86549C8.79909 9.83439 8.48523 9.83333 7.99969 9.83333C7.51415 9.83333 7.2003 9.83439 6.96905 9.86549C6.75218 9.89464 6.6842 9.94172 6.64614 9.97978C6.60808 10.0178 6.561 10.0858 6.53185 10.3027C6.50075 10.5339 6.49969 10.8478 6.49969 11.3333V14.1667H5.49969L5.49969 11.3004C5.49967 10.8572 5.49965 10.4753 5.54076 10.1694C5.58483 9.84168 5.6842 9.5275 5.93903 9.27267C6.19386 9.01784 6.50804 8.91847 6.8358 8.8744C7.14163 8.83329 7.52354 8.83331 7.96678 8.83333H8.03261Z" fill="#4B92FF"/>
<path fill-rule="evenodd" clip-rule="evenodd" d="M7.16636 6.33333C7.16636 5.8731 7.53946 5.5 7.99969 5.5C8.45993 5.5 8.83303 5.8731 8.83303 6.33333C8.83303 6.79357 8.45993 7.16667 7.99969 7.16667C7.53946 7.16667 7.16636 6.79357 7.16636 6.33333Z" fill="#4B92FF"/>
</svg>
