<svg width="14" height="14" viewBox="0 0 14 14" fill="none" xmlns="http://www.w3.org/2000/svg">
<path fill-rule="evenodd" clip-rule="evenodd" d="M6.99967 1.16663C4.42235 1.16663 2.33301 3.50147 2.33301 6.12496C2.33301 8.72789 3.82245 11.5572 6.1463 12.6434C6.68802 12.8966 7.31132 12.8966 7.85305 12.6434C10.1769 11.5572 11.6663 8.72789 11.6663 6.12496C11.6663 3.50147 9.577 1.16663 6.99967 1.16663ZM6.99967 6.99996C7.64401 6.99996 8.16634 6.47762 8.16634 5.83329C8.16634 5.18896 7.64401 4.66663 6.99967 4.66663C6.35534 4.66663 5.83301 5.18896 5.83301 5.83329C5.83301 6.47762 6.35534 6.99996 6.99967 6.99996Z" fill="#9CA3AF"/>
</svg>
