<svg width="16" height="16" viewBox="0 0 16 16" fill="none" xmlns="http://www.w3.org/2000/svg">
<g clip-path="url(#clip0_1699_200411)">
<path d="M10.6866 6.68754C10.8818 6.49228 10.8818 6.17569 10.6866 5.98043C10.4913 5.78517 10.1747 5.78517 9.97945 5.98043L6.99967 8.96021L6.01989 7.98043C5.82463 7.78517 5.50805 7.78517 5.31279 7.98043C5.11753 8.17569 5.11753 8.49228 5.31279 8.68754L6.64612 10.0209C6.84138 10.2161 7.15797 10.2161 7.35323 10.0209L10.6866 6.68754Z" fill="#08CB66"/>
<path fill-rule="evenodd" clip-rule="evenodd" d="M7.99967 0.833984C4.04163 0.833984 0.833008 4.04261 0.833008 8.00065C0.833008 11.9587 4.04163 15.1673 7.99967 15.1673C11.9577 15.1673 15.1663 11.9587 15.1663 8.00065C15.1663 4.04261 11.9577 0.833984 7.99967 0.833984ZM1.83301 8.00065C1.83301 4.5949 4.59392 1.83398 7.99967 1.83398C11.4054 1.83398 14.1663 4.5949 14.1663 8.00065C14.1663 11.4064 11.4054 14.1673 7.99967 14.1673C4.59392 14.1673 1.83301 11.4064 1.83301 8.00065Z" fill="#08CB66"/>
</g>
<defs>
<clipPath id="clip0_1699_200411">
<rect width="16" height="16" fill="white"/>
</clipPath>
</defs>
</svg>
