<svg width="36" height="36" viewBox="0 0 36 36" fill="none" xmlns="http://www.w3.org/2000/svg">
<path d="M21 6H9C8.20435 6 7.44129 6.31607 6.87868 6.87868C6.31607 7.44129 6 8.20435 6 9V24M6 24V27C6 27.7956 6.31607 28.5587 6.87868 29.1213C7.44129 29.6839 8.20435 30 9 30H27C27.7956 30 28.5587 29.6839 29.1213 29.1213C29.6839 28.5587 30 27.7956 30 27V21M6 24L12.879 17.121C13.4416 16.5586 14.2045 16.2426 15 16.2426C15.7955 16.2426 16.5584 16.5586 17.121 17.121L21 21M30 15V21M30 21L27.621 18.621C27.0584 18.0586 26.2955 17.7426 25.5 17.7426C24.7045 17.7426 23.9416 18.0586 23.379 18.621L21 21M21 21L24 24M27 6H33M30 3V9M21 12H21.015" stroke="#D1D5DB" stroke-width="1.45946" stroke-linecap="round" stroke-linejoin="round"/>
</svg>
