<svg width="60" height="60" viewBox="0 0 60 60" fill="none" xmlns="http://www.w3.org/2000/svg">
<g clip-path="url(#clip0_2144_17884)">
<path d="M29.5401 26.0669L5.717 13.7814C4.99211 13.4076 4.98491 12.3731 5.70525 11.9904C7.79311 10.8815 13.2263 8.11725 28.1326 0.451162C29.3028 -0.150387 30.698 -0.150387 31.8682 0.451162C46.9065 8.18512 52.316 10.933 54.3783 12.0358C55.0979 12.4206 55.0882 13.4549 54.3619 13.8269L30.4644 26.0682C30.1742 26.2169 29.83 26.2164 29.5401 26.0669ZM31.0114 28.6779V58.9874C31.0114 59.7398 31.8039 60.229 32.4761 59.8908C34.484 58.8807 39.814 56.1203 54.8661 48.3791C56.2335 47.6765 57.0828 46.2851 57.0828 44.7483C57.0828 25.1414 57.1094 18.6544 57.0737 16.3461C57.062 15.5974 56.2683 15.122 55.6019 15.4634L31.5615 27.7779C31.2238 27.9511 31.0114 28.2985 31.0114 28.6779ZM28.4418 27.7755L4.40472 15.3797C3.73897 15.0363 2.94495 15.5104 2.93054 16.2593C2.88669 18.5349 2.91816 24.9628 2.91816 44.7485C2.91816 46.2852 3.7674 47.6766 5.13479 48.3792C20.181 56.1172 25.5146 58.8789 27.5248 59.8902C28.197 60.2284 28.9895 59.7392 28.9895 58.9867V28.6742C28.9894 28.2957 28.7781 27.949 28.4418 27.7755Z" fill="white"/>
</g>
<defs>
<clipPath id="clip0_2144_17884">
<rect width="60" height="60" fill="white"/>
</clipPath>
</defs>
</svg>
