<svg width="16" height="17" viewBox="0 0 16 17" fill="none" xmlns="http://www.w3.org/2000/svg">
<path fill-rule="evenodd" clip-rule="evenodd" d="M5.29691 3.04761H10.7034C11.6151 3.04759 12.35 3.04758 12.928 3.12529C13.5281 3.20597 14.0333 3.37856 14.4346 3.77984C14.8359 4.18112 15.0085 4.68637 15.0891 5.28644C15.1669 5.86442 15.1668 6.5993 15.1668 7.51103V7.58522C15.1668 8.81039 15.1668 9.78081 15.0647 10.5403C14.9597 11.3219 14.7382 11.9545 14.2393 12.4534C13.7404 12.9524 13.1078 13.1738 12.3262 13.2789C11.5667 13.381 10.5963 13.381 9.3711 13.3809H6.62922C5.40405 13.381 4.43362 13.381 3.67415 13.2789C2.89253 13.1738 2.2599 12.9524 1.76099 12.4534C1.26208 11.9545 1.04067 11.3219 0.935587 10.5403C0.833478 9.78081 0.833486 8.81039 0.833497 7.58522L0.833496 7.51102C0.833483 6.5993 0.833472 5.86442 0.911179 5.28644C0.991856 4.68637 1.16445 4.18112 1.56573 3.77984C1.96701 3.37856 2.47226 3.20597 3.07233 3.12529C3.65031 3.04758 4.38519 3.04759 5.29691 3.04761ZM3.20558 4.11637C2.71639 4.18214 2.45735 4.30244 2.27284 4.48695C2.08833 4.67146 1.96803 4.9305 1.90226 5.41969C1.83456 5.92326 1.8335 6.59066 1.8335 7.54761C1.8335 8.81882 1.83456 9.72193 1.92667 10.407C2.01685 11.0778 2.18596 11.4642 2.4681 11.7463C2.70412 11.9824 3.01312 12.1393 3.50049 12.2371C3.50164 11.9146 3.50692 11.6366 3.53082 11.4016C3.56293 11.086 3.63274 10.7931 3.80914 10.5291C3.94289 10.3289 4.11477 10.157 4.31495 10.0232C4.57895 9.84685 4.87186 9.77704 5.18751 9.74493C5.48906 9.71425 5.86154 9.71426 6.30792 9.71427H9.6924C10.1388 9.71426 10.5113 9.71425 10.8128 9.74493C11.1285 9.77704 11.4214 9.84685 11.6854 10.0232C11.8856 10.157 12.0574 10.3289 12.1912 10.5291C12.3676 10.7931 12.4374 11.086 12.4695 11.4016C12.4934 11.6366 12.4987 11.9146 12.4998 12.2371C12.9872 12.1393 13.2962 11.9824 13.5322 11.7463C13.8144 11.4642 13.9835 11.0778 14.0737 10.407C14.1658 9.72193 14.1668 8.81882 14.1668 7.54761C14.1668 6.59066 14.1658 5.92326 14.0981 5.41969C14.0323 4.9305 13.912 4.67146 13.7275 4.48695C13.543 4.30244 13.2839 4.18214 12.7947 4.11637C12.2912 4.04867 11.6238 4.04761 10.6668 4.04761H5.3335C4.37655 4.04761 3.70914 4.04867 3.20558 4.11637ZM11.5001 12.3492C11.4995 11.9775 11.4959 11.7123 11.4746 11.5028C11.4506 11.2662 11.408 11.1569 11.3597 11.0846C11.2989 10.9936 11.2208 10.9155 11.1298 10.8547C11.0575 10.8064 10.9482 10.7639 10.7116 10.7398C10.4667 10.7149 10.1454 10.7143 9.66683 10.7143H6.3335C5.85494 10.7143 5.53365 10.7149 5.28871 10.7398C5.05213 10.7639 4.94282 10.8064 4.87052 10.8547C4.77953 10.9155 4.7014 10.9936 4.64061 11.0846C4.5923 11.1569 4.54975 11.2662 4.52568 11.5028C4.50438 11.7123 4.50085 11.9775 4.50027 12.3492C5.07838 12.3804 5.7838 12.3809 6.66683 12.3809H9.3335C10.2165 12.3809 10.9219 12.3804 11.5001 12.3492ZM3.50016 6.21427C3.50016 5.93813 3.72402 5.71427 4.00016 5.71427H12.0002C12.2763 5.71427 12.5002 5.93813 12.5002 6.21427C12.5002 6.49042 12.2763 6.71427 12.0002 6.71427H4.00016C3.72402 6.71427 3.50016 6.49042 3.50016 6.21427ZM3.50016 7.88094C3.50016 7.6048 3.72402 7.38094 4.00016 7.38094H12.0002C12.2763 7.38094 12.5002 7.6048 12.5002 7.88094C12.5002 8.15708 12.2763 8.38094 12.0002 8.38094H4.00016C3.72402 8.38094 3.50016 8.15708 3.50016 7.88094Z" fill="#6B7280"/>
</svg>
