<svg width="17" height="17" viewBox="0 0 17 17" fill="none" xmlns="http://www.w3.org/2000/svg">
<path fill-rule="evenodd" clip-rule="evenodd" d="M4.25678 2.04761C3.65473 2.04761 3.16667 2.53567 3.16667 3.13772V7.71427H3.35619C3.36344 7.71426 3.37066 7.71427 3.37784 7.71427C3.38139 7.71427 3.38493 7.71427 3.38845 7.71427L13.9555 7.71427C13.9627 7.71427 13.9699 7.71426 13.9771 7.71427H15.3333C15.6095 7.71427 15.8333 7.93813 15.8333 8.21427C15.8333 8.49042 15.6095 8.71427 15.3333 8.71427H15.1547C15.159 8.74424 15.1622 8.77457 15.1642 8.80524C15.1667 8.84373 15.1667 8.88534 15.1667 8.92545L15.1667 8.95071C15.1667 9.20086 15.1667 9.3475 15.1563 9.51105C15.0617 11.0019 14.256 12.3787 13.0884 13.2789C13.0976 13.2934 13.1061 13.3084 13.1139 13.324L13.7805 14.6573C13.904 14.9043 13.8039 15.2047 13.5569 15.3282C13.31 15.4516 13.0096 15.3515 12.8861 15.1045L12.241 13.8143C11.7065 14.0848 11.1252 14.2629 10.5206 14.3242C10.3576 14.3407 10.2581 14.3444 10.0887 14.3508L10.0842 14.3509C9.59073 14.3695 9.10766 14.3809 8.66667 14.3809C8.22567 14.3809 7.74261 14.3695 7.24912 14.3509L7.24466 14.3508C7.07519 14.3444 6.97572 14.3407 6.81273 14.3242C6.20815 14.2629 5.62685 14.0848 5.09234 13.8143L4.44721 15.1045C4.32372 15.3515 4.02338 15.4516 3.77639 15.3282C3.5294 15.2047 3.42929 14.9043 3.55279 14.6573L4.21945 13.324C4.22726 13.3084 4.23577 13.2934 4.24493 13.2789C3.0773 12.3787 2.27167 11.0019 2.17704 9.51105C2.16666 9.34749 2.16666 9.20083 2.16667 8.95064L2.16667 8.93606C2.16667 8.93254 2.16666 8.929 2.16666 8.92545C2.16666 8.91312 2.16665 8.90065 2.16672 8.88817C2.16668 8.88577 2.16667 8.88336 2.16667 8.88094V8.71427H2C1.72386 8.71427 1.5 8.49042 1.5 8.21427C1.5 7.93813 1.72386 7.71427 2 7.71427H2.16667V3.13772C2.16667 1.98338 3.10244 1.04761 4.25678 1.04761C5.11143 1.04761 5.87998 1.56794 6.19739 2.36147L6.27082 2.54503C6.79968 2.41087 7.37355 2.44196 7.91444 2.67303C8.59132 2.9622 9.08384 3.5078 9.33609 4.14796C9.4351 4.39924 9.31667 4.68372 9.0686 4.79051L5.09477 6.50123C4.97048 6.55474 4.82982 6.55558 4.7049 6.50358C4.57998 6.45158 4.48147 6.35117 4.43187 6.22528C4.17973 5.58537 4.16461 4.84437 4.44482 4.15436C4.64429 3.66317 4.96809 3.26046 5.36444 2.97166L5.26892 2.73286C5.10337 2.31899 4.70253 2.04761 4.25678 2.04761ZM3.38845 8.71427C3.36174 8.71427 3.34585 8.71428 3.33384 8.71442C3.3251 8.71452 3.32199 8.71466 3.32187 8.71466C3.32184 8.71467 3.32143 8.71469 3.32187 8.71466C3.2385 8.72009 3.17269 8.78636 3.16705 8.86967C3.16702 8.87047 3.1669 8.8738 3.16681 8.88145C3.16667 8.89345 3.16667 8.90935 3.16667 8.93606C3.16667 9.2045 3.16687 9.31913 3.17503 9.44771C3.29865 11.3955 4.97174 13.1326 6.9135 13.3293C7.04347 13.3424 7.11541 13.3452 7.28666 13.3516C7.77202 13.3699 8.24191 13.3809 8.66667 13.3809C9.09142 13.3809 9.56132 13.3699 10.0467 13.3516C10.2179 13.3452 10.2899 13.3424 10.4198 13.3293C12.3616 13.1326 14.0347 11.3955 14.1583 9.44771C14.1665 9.31913 14.1667 9.2045 14.1667 8.93606C14.1667 8.90935 14.1667 8.89345 14.1665 8.88145C14.1664 8.87468 14.1663 8.87129 14.1663 8.87005C14.1663 8.8692 14.1663 8.86928 14.1663 8.87005C14.1609 8.78652 14.0943 8.72006 14.0108 8.71463C14.0116 8.71468 14.0118 8.71466 14.0108 8.71463C14.0095 8.71458 14.006 8.71449 13.9995 8.71442C13.9875 8.71428 13.9716 8.71427 13.9449 8.71427H3.38845ZM7.52157 3.59263C7.08337 3.40542 6.60968 3.43147 6.20475 3.62859C5.84551 3.80347 5.54079 4.11334 5.37134 4.53062C5.26233 4.79905 5.22291 5.07865 5.24432 5.34813L8.16509 4.09075C7.99883 3.87654 7.78089 3.70341 7.52157 3.59263Z" fill="#6B7280"/>
</svg>
