<svg width="16" height="16" viewBox="0 0 16 16" fill="none" xmlns="http://www.w3.org/2000/svg">
<path fill-rule="evenodd" clip-rule="evenodd" d="M7.29589 2.16675H8.70444C9.92961 2.16674 10.9 2.16673 11.6595 2.26884C12.4411 2.37392 13.0738 2.59533 13.5727 3.09424C14.0716 3.59315 14.293 4.22579 14.3981 5.0074C14.499 5.75791 14.5002 6.71442 14.5002 7.9192C14.7294 8.10835 14.9114 8.3522 15.0273 8.63183C15.1075 8.82542 15.1386 9.02511 15.153 9.23651C15.1668 9.43958 15.1668 9.68694 15.1668 9.98324V10.0169C15.1668 10.3132 15.1668 10.5606 15.153 10.7637C15.1386 10.9751 15.1075 11.1747 15.0273 11.3683C14.8412 11.8176 14.4843 12.1745 14.0351 12.3605C13.8415 12.4407 13.6418 12.4718 13.4304 12.4862C13.3496 12.4917 13.2619 12.4951 13.1668 12.4971V13.3334C13.1668 13.6096 12.943 13.8334 12.6668 13.8334C12.3907 13.8334 12.1668 13.6096 12.1668 13.3334V12.5001H3.8335V13.3334C3.8335 13.6096 3.60964 13.8334 3.3335 13.8334C3.05735 13.8334 2.8335 13.6096 2.8335 13.3334V12.4971C2.73844 12.4951 2.65068 12.4917 2.56992 12.4862C2.35852 12.4718 2.15884 12.4407 1.96524 12.3605C1.51603 12.1745 1.15912 11.8176 0.973051 11.3683C0.892862 11.1747 0.861767 10.9751 0.847343 10.7637C0.833487 10.5606 0.833491 10.3132 0.833496 10.0169V9.98325C0.833491 9.68694 0.833487 9.43958 0.847343 9.23651C0.861767 9.02511 0.892862 8.82542 0.973051 8.63183C1.08888 8.3522 1.27089 8.10835 1.50016 7.9192C1.50017 6.71442 1.50135 5.75791 1.60225 5.0074C1.70734 4.22579 1.92875 3.59315 2.42766 3.09424C2.92657 2.59533 3.5592 2.37392 4.34081 2.26884C5.10029 2.16673 6.07071 2.16674 7.29589 2.16675ZM2.50042 7.51935C2.52345 7.51731 2.54661 7.51552 2.56992 7.51393C2.73776 7.50248 2.93585 7.50049 3.16683 7.50015L3.16683 6.96541C3.16681 6.36643 3.16679 5.86695 3.2201 5.47043C3.27637 5.0519 3.40015 4.67403 3.7038 4.37039C4.00745 4.06674 4.38531 3.94296 4.80384 3.88669C5.20036 3.83338 5.69984 3.83339 6.29883 3.83341H9.7015C10.3005 3.83339 10.8 3.83338 11.1965 3.88669C11.615 3.94296 11.9929 4.06674 12.2965 4.37039C12.6002 4.67403 12.724 5.0519 12.7802 5.47043C12.8335 5.86695 12.8335 6.36643 12.8335 6.96542V7.50015C13.0645 7.50049 13.2626 7.50248 13.4304 7.51393C13.4537 7.51552 13.4769 7.51731 13.4999 7.51935C13.4983 6.49611 13.487 5.73606 13.407 5.14065C13.3168 4.46992 13.1477 4.08349 12.8656 3.80135C12.5834 3.51921 12.197 3.3501 11.5263 3.25992C10.8412 3.16781 9.93804 3.16675 8.66683 3.16675H7.3335C6.06228 3.16675 5.15917 3.16781 4.47406 3.25992C3.80334 3.3501 3.4169 3.51921 3.13477 3.80135C2.85263 4.08349 2.68351 4.46992 2.59334 5.14065C2.51329 5.73606 2.502 6.49611 2.50042 7.51935ZM11.8335 7.50008V7.00008C11.8335 6.35741 11.8324 5.9257 11.7891 5.60368C11.7478 5.29604 11.6763 5.16437 11.5894 5.07749C11.5025 4.99062 11.3709 4.91913 11.0632 4.87777C10.7412 4.83448 10.3095 4.83342 9.66683 4.83342H8.50016V7.50008H11.8335ZM7.50016 7.50008V4.83342H6.3335C5.69082 4.83342 5.25912 4.83448 4.93709 4.87777C4.62945 4.91913 4.49778 4.99062 4.41091 5.07749C4.32403 5.16437 4.25255 5.29604 4.21119 5.60368C4.16789 5.9257 4.16683 6.35741 4.16683 7.00008V7.50008H7.50016ZM2.63799 8.51161C2.47751 8.52256 2.39936 8.54221 2.34793 8.56352C2.14374 8.64809 1.98151 8.81032 1.89693 9.01451C1.87562 9.06595 1.85597 9.14409 1.84502 9.30458C1.83377 9.46955 1.8335 9.68261 1.8335 10.0001C1.8335 10.3176 1.83377 10.5306 1.84502 10.6956C1.85597 10.8561 1.87562 10.9342 1.89693 10.9857C1.98151 11.1898 2.14374 11.3521 2.34793 11.4366C2.39936 11.458 2.47751 11.4776 2.63799 11.4886C2.80297 11.4998 3.01603 11.5001 3.3335 11.5001H12.6668C12.9843 11.5001 13.1974 11.4998 13.3623 11.4886C13.5228 11.4776 13.601 11.458 13.6524 11.4366C13.8566 11.3521 14.0188 11.1898 14.1034 10.9857C14.1247 10.9342 14.1444 10.8561 14.1553 10.6956C14.1666 10.5306 14.1668 10.3176 14.1668 10.0001C14.1668 9.68261 14.1666 9.46955 14.1553 9.30458C14.1444 9.14409 14.1247 9.06595 14.1034 9.01451C14.0188 8.81032 13.8566 8.64809 13.6524 8.56352C13.601 8.54221 13.5228 8.52256 13.3623 8.51161C13.1974 8.50035 12.9843 8.50008 12.6668 8.50008H3.3335C3.01603 8.50008 2.80297 8.50035 2.63799 8.51161Z" fill="#9CA3AF"/>
</svg>
