<svg width="24" height="24" viewBox="0 0 24 24" fill="none" xmlns="http://www.w3.org/2000/svg">
<path fill-rule="evenodd" clip-rule="evenodd" d="M9.5 5.25C9.5 4.83579 9.16421 4.5 8.75 4.5C8.33579 4.5 8 4.83579 8 5.25V6.75H7.25C5.73122 6.75 4.5 7.98122 4.5 9.5V16.75C4.5 17.4808 4.78504 18.145 5.25 18.6375V18.75H5.36253C5.85504 19.215 6.51923 19.5 7.25 19.5H16.75C17.4808 19.5 18.145 19.215 18.6375 18.75H18.75V18.6375C19.215 18.145 19.5 17.4808 19.5 16.75V9.5C19.5 7.98122 18.2688 6.75 16.75 6.75H16V5.25C16 4.83579 15.6642 4.5 15.25 4.5C14.8358 4.5 14.5 4.83579 14.5 5.25V6.75H9.5V5.25ZM16.75 8.25C17.4404 8.25 18 8.80964 18 9.5V10H6V9.5C6 8.80964 6.55964 8.25 7.25 8.25H16.75Z" fill="#4B92FF"/>
</svg>
