<svg width="16" height="17" viewBox="0 0 16 17" fill="none" xmlns="http://www.w3.org/2000/svg">
<path d="M10.687 6.90116C10.8823 6.7059 10.8823 6.38932 10.687 6.19405C10.4918 5.99879 10.1752 5.99879 9.97994 6.19405L7.00016 9.17383L6.02038 8.19405C5.82512 7.99879 5.50854 7.99879 5.31328 8.19405C5.11801 8.38932 5.11801 8.7059 5.31328 8.90116L6.64661 10.2345C6.84187 10.4298 7.15845 10.4298 7.35372 10.2345L10.687 6.90116Z" fill="#6B7280"/>
<path fill-rule="evenodd" clip-rule="evenodd" d="M8.00016 1.04761C4.04212 1.04761 0.833496 4.25623 0.833496 8.21427C0.833496 12.1723 4.04212 15.3809 8.00016 15.3809C11.9582 15.3809 15.1668 12.1723 15.1668 8.21427C15.1668 4.25623 11.9582 1.04761 8.00016 1.04761ZM1.8335 8.21427C1.8335 4.80852 4.59441 2.04761 8.00016 2.04761C11.4059 2.04761 14.1668 4.80852 14.1668 8.21427C14.1668 11.62 11.4059 14.3809 8.00016 14.3809C4.59441 14.3809 1.8335 11.62 1.8335 8.21427Z" fill="#6B7280"/>
</svg>
