<svg width="32" height="32" viewBox="0 0 32 32" fill="none" xmlns="http://www.w3.org/2000/svg">
<path d="M13.3738 11.9594C12.9833 11.5689 12.3501 11.5689 11.9596 11.9594C11.5691 12.3499 11.5691 12.9831 11.9596 13.3736L14.5858 15.9998L11.9596 18.626C11.5691 19.0166 11.5691 19.6497 11.9596 20.0403C12.3502 20.4308 12.9833 20.4308 13.3738 20.0403L16.0001 17.414L18.6262 20.0402C19.0168 20.4308 19.6499 20.4308 20.0405 20.0402C20.431 19.6497 20.431 19.0165 20.0405 18.626L17.4143 15.9998L20.0405 13.3736C20.431 12.9831 20.431 12.3499 20.0405 11.9594C19.65 11.5689 19.0168 11.5689 18.6263 11.9594L16.0001 14.5856L13.3738 11.9594Z" fill="#1C274C"/>
<path fill-rule="evenodd" clip-rule="evenodd" d="M16.0001 1.6665C8.084 1.6665 1.66675 8.08376 1.66675 15.9998C1.66675 23.9159 8.084 30.3332 16.0001 30.3332C23.9162 30.3332 30.3334 23.9159 30.3334 15.9998C30.3334 8.08376 23.9162 1.6665 16.0001 1.6665ZM3.66675 15.9998C3.66675 9.18833 9.18857 3.6665 16.0001 3.6665C22.8116 3.6665 28.3334 9.18833 28.3334 15.9998C28.3334 22.8113 22.8116 28.3332 16.0001 28.3332C9.18857 28.3332 3.66675 22.8113 3.66675 15.9998Z" fill="#1C274C"/>
</svg>
