<svg width="25" height="24" viewBox="0 0 25 24" fill="none" xmlns="http://www.w3.org/2000/svg">
<path d="M22.5 8.5C22.5 4.91015 19.5899 2 16 2C13.9171 2 12.0631 2.9823 10.8735 4.50721C15.9471 4.70336 20 8.87838 20 14C20 14.1103 19.9981 14.2202 19.9944 14.3296L20.3267 14.4185C21.293 14.677 22.177 13.793 21.9185 12.8267L21.7911 12.3506C21.6882 11.9661 21.7501 11.5598 21.9155 11.1977C22.2908 10.376 22.5 9.46242 22.5 8.5Z" fill="#111827"/>
<path fill-rule="evenodd" clip-rule="evenodd" d="M18.5 14C18.5 18.4183 14.9183 22 10.5 22C9.26449 22 8.0944 21.7199 7.04976 21.2198C6.69071 21.0479 6.28393 20.9876 5.89939 21.0904L4.67335 21.4185C3.70701 21.677 2.82295 20.793 3.08151 19.8267L3.40955 18.6006C3.51245 18.2161 3.45209 17.8093 3.2802 17.4502C2.78008 16.4056 2.5 15.2355 2.5 14C2.5 9.58172 6.08172 6 10.5 6C14.9183 6 18.5 9.58172 18.5 14ZM7 15C7.55228 15 8 14.5523 8 14C8 13.4477 7.55228 13 7 13C6.44772 13 6 13.4477 6 14C6 14.5523 6.44772 15 7 15ZM10.5 15C11.0523 15 11.5 14.5523 11.5 14C11.5 13.4477 11.0523 13 10.5 13C9.94772 13 9.5 13.4477 9.5 14C9.5 14.5523 9.94772 15 10.5 15ZM14 15C14.5523 15 15 14.5523 15 14C15 13.4477 14.5523 13 14 13C13.4477 13 13 13.4477 13 14C13 14.5523 13.4477 15 14 15Z" fill="#111827"/>
</svg>
