<svg width="40" height="40" viewBox="0 0 40 40" fill="none" xmlns="http://www.w3.org/2000/svg">
<path d="M36.2471 27.5189C34.8545 34.4821 20.5799 37.9638 11.8759 36.2229C4.91269 33.6118 11.0055 25.7781 6.65349 21.4261C3.51523 18.2879 3.1719 9.24056 9.26469 5.75896C15.3574 2.27736 37.1175 1.40696 33.6359 10.9814C30.7873 18.8149 37.9879 18.8149 36.2471 27.5189Z" fill="#EFEFEF"/>
<path d="M17.7949 19.7592C17.4695 19.4338 16.9418 19.4338 16.6164 19.7592L10.331 26.0446C9.13772 27.2379 9.13772 29.1726 10.331 30.3658C11.5242 31.5591 13.4589 31.5591 14.6522 30.3658L20.9376 24.0804C21.263 23.755 21.263 23.2273 20.9376 22.9019L17.7949 19.7592Z" fill="#F3F3F1"/>
<path fill-rule="evenodd" clip-rule="evenodd" d="M18.5945 20.5589L13.1087 26.0446C11.9155 27.2379 11.9155 29.1726 13.1087 30.3658C13.3415 30.5986 13.6024 30.7859 13.8805 30.9278C12.7325 31.5137 11.2916 31.3263 10.331 30.3658C9.13772 29.1726 9.13772 27.2379 10.331 26.0446L16.6164 19.7592C16.9418 19.4338 17.4695 19.4338 17.7949 19.7592L18.5945 20.5589Z" fill="#D6DBE1"/>
<path d="M30.3657 10.3312C28.3046 8.27013 24.9629 8.27013 22.9018 10.3312C20.8407 12.3923 20.8407 15.734 22.9018 17.7951C24.9629 19.8562 28.3046 19.8562 30.3657 17.7951C32.4268 15.734 32.4268 12.3923 30.3657 10.3312Z" fill="#F3F3F1"/>
<path fill-rule="evenodd" clip-rule="evenodd" d="M28.0227 8.97049C27.1643 9.20369 26.3535 9.65727 25.6796 10.3312C23.6185 12.3923 23.6185 15.734 25.6796 17.7951C26.3535 18.4691 27.1643 18.9226 28.0227 19.1559C26.2561 19.6359 24.2889 19.1823 22.9018 17.7951C20.8407 15.734 20.8407 12.3923 22.9018 10.3312C24.2889 8.94407 26.2561 8.49049 28.0227 8.97049Z" fill="#D6DBE1"/>
<path d="M20.9379 13.4738C20.6125 13.1484 20.0848 13.1484 19.7595 13.4738L15.0454 18.1879C14.7199 18.5134 14.7199 19.0409 15.0454 19.3664L21.3308 25.6518C21.6562 25.9773 22.1838 25.9773 22.5092 25.6518L27.2234 20.9377C27.5488 20.6124 27.5488 20.0847 27.2234 19.7593L20.9379 13.4738Z" fill="#F68B1F"/>
<path fill-rule="evenodd" clip-rule="evenodd" d="M21.7371 14.2735L17.8226 18.1879C17.4972 18.5134 17.4972 19.0409 17.8226 19.3664L23.3084 24.8522L22.5088 25.6518C22.1833 25.9773 21.6556 25.9773 21.3302 25.6518L15.0449 19.3664C14.7194 19.0409 14.7194 18.5134 15.0449 18.1879L19.7589 13.4738C20.0843 13.1484 20.612 13.1484 20.9374 13.4738L21.7371 14.2735Z" fill="#BB6208"/>
<path fill-rule="evenodd" clip-rule="evenodd" d="M19.7589 13.4738C20.0843 13.1484 20.612 13.1484 20.9374 13.4738L27.2228 19.7593C27.5482 20.0847 27.5482 20.6123 27.2228 20.9377L22.5088 25.6518C22.1833 25.9773 21.6556 25.9773 21.3302 25.6518L15.0449 19.3664C14.7194 19.0409 14.7194 18.5134 15.0449 18.1879L19.7589 13.4738ZM20.3481 15.2416L16.8125 18.7772L21.9194 23.884L25.455 20.3485L20.3481 15.2416Z" fill="#111827"/>
<path fill-rule="evenodd" clip-rule="evenodd" d="M16.6164 19.7595C16.9419 19.434 17.4694 19.434 17.7949 19.7595L20.9375 22.9021C21.263 23.2276 21.263 23.7552 20.9375 24.0807L14.6522 30.366C13.459 31.5594 11.5242 31.5594 10.331 30.366C9.13772 29.1728 9.13772 27.2381 10.331 26.0448L16.6164 19.7595ZM17.2056 21.5272L11.5095 27.2234C10.9671 27.7658 10.9671 28.6451 11.5095 29.1876C12.0519 29.7299 12.9313 29.7299 13.4736 29.1876L19.1699 23.4914L17.2056 21.5272Z" fill="#111827"/>
<path fill-rule="evenodd" clip-rule="evenodd" d="M29.1872 11.5097C27.777 10.0995 25.4906 10.0995 24.0803 11.5097C22.6701 12.92 22.6701 15.2063 24.0803 16.6166C25.4906 18.0268 27.777 18.0268 29.1872 16.6166C30.5975 15.2063 30.5975 12.92 29.1872 11.5097ZM22.9018 10.3312C24.9629 8.27013 28.3046 8.27013 30.3657 10.3312C32.4268 12.3923 32.4268 15.734 30.3657 17.7951C28.3046 19.8562 24.9629 19.8562 22.9018 17.7951C20.8407 15.734 20.8407 12.3923 22.9018 10.3312Z" fill="#111827"/>
<path fill-rule="evenodd" clip-rule="evenodd" d="M12.8267 19.0244L10.6801 19.5995L10.3926 18.5263L12.5391 17.9512L12.8267 19.0244Z" fill="#90A4AD"/>
<path fill-rule="evenodd" clip-rule="evenodd" d="M13.3247 16.5908L12.7495 14.4444L13.8228 14.1567L14.398 16.3033L13.3247 16.5908Z" fill="#90A4AD"/>
</svg>
