<svg width="17" height="17" viewBox="0 0 17 17" fill="none" xmlns="http://www.w3.org/2000/svg">
<path d="M12.4997 4.88094C12.4997 4.6048 12.2758 4.38094 11.9997 4.38094C11.7235 4.38094 11.4997 4.6048 11.4997 4.88094V6.21427C11.4997 6.49042 11.7235 6.71427 11.9997 6.71427C12.2758 6.71427 12.4997 6.49042 12.4997 6.21427V4.88094Z" fill="#6B7280"/>
<path d="M12.4997 9.54761C12.4997 9.27147 12.2758 9.04761 11.9997 9.04761C11.7235 9.04761 11.4997 9.27147 11.4997 9.54761V10.8809C11.4997 11.1571 11.7235 11.3809 11.9997 11.3809C12.2758 11.3809 12.4997 11.1571 12.4997 10.8809V9.54761Z" fill="#6B7280"/>
<path fill-rule="evenodd" clip-rule="evenodd" d="M8.70395 1.04761H8.62873C7.40356 1.0476 6.43313 1.04759 5.67366 1.1497C4.89205 1.25478 4.25941 1.47619 3.7605 1.9751C3.26159 2.47401 3.04018 3.10664 2.9351 3.88826C2.83299 4.64773 2.833 5.61815 2.83301 6.84332V8.91855C2.833 10.1437 2.83299 11.1141 2.9351 11.8736C3.04018 12.6552 3.26159 13.2879 3.7605 13.7868C4.06652 14.0928 4.42285 14.2944 4.83301 14.4288V14.8809C4.83301 15.1571 5.05687 15.3809 5.33301 15.3809H5.99967C6.27582 15.3809 6.49967 15.1571 6.49967 14.8809V14.6838C7.10419 14.7143 7.8095 14.7143 8.6287 14.7143H8.70395C9.52316 14.7143 10.2285 14.7143 10.833 14.6838V14.8809C10.833 15.1571 11.0569 15.3809 11.333 15.3809H11.9997C12.2758 15.3809 12.4997 15.1571 12.4997 14.8809V14.4288C12.9098 14.2944 13.2662 14.0928 13.5722 13.7868C14.0711 13.2879 14.2925 12.6552 14.3976 11.8736C14.4997 11.1142 14.4997 10.1437 14.4997 8.91858V6.84333C14.4997 5.61817 14.4997 4.64773 14.3976 3.88826C14.2925 3.10664 14.0711 2.47401 13.5722 1.9751C13.0733 1.47619 12.4406 1.25478 11.659 1.1497C10.8995 1.04759 9.92912 1.0476 8.70395 1.04761ZM4.46761 2.68221C4.74975 2.40007 5.13618 2.23096 5.80691 2.14078C6.49202 2.04867 7.39513 2.04761 8.66634 2.04761C9.93756 2.04761 10.8407 2.04867 11.5258 2.14078C12.1965 2.23096 12.5829 2.40007 12.8651 2.68221C13.1472 2.96435 13.3163 3.35078 13.4065 4.02151C13.4986 4.70662 13.4997 5.60973 13.4997 6.88094V7.38094H3.83301V6.88094C3.83301 5.60973 3.83407 4.70662 3.92618 4.02151C4.01636 3.35078 4.18547 2.96435 4.46761 2.68221ZM3.83301 8.38094H13.4997V8.88094C13.4997 10.1522 13.4986 11.0553 13.4065 11.7404C13.3163 12.4111 13.1472 12.7975 12.8651 13.0797C12.5829 13.3618 12.1965 13.5309 11.5258 13.6211C10.8407 13.7132 9.93756 13.7143 8.66634 13.7143C7.39513 13.7143 6.49202 13.7132 5.80691 13.6211C5.13618 13.5309 4.74975 13.3618 4.46761 13.0797C4.18547 12.7975 4.01636 12.4111 3.92618 11.7404C3.83407 11.0553 3.83301 10.1522 3.83301 8.88094V8.38094Z" fill="#6B7280"/>
</svg>
