<svg width="16" height="16" viewBox="0 0 16 16" fill="none" xmlns="http://www.w3.org/2000/svg">
<path d="M9.04743 1.63248L10.3674 4.27248C10.5474 4.63998 11.0274 4.99248 11.4324 5.05998L13.8249 5.45748C15.3549 5.71248 15.7149 6.82248 14.6124 7.91748L12.7524 9.77748C12.4374 10.0925 12.2649 10.7 12.3624 11.135L12.8949 13.4375C13.3149 15.26 12.3474 15.965 10.7349 15.0125L8.49243 13.685C8.08743 13.445 7.41993 13.445 7.00743 13.685L4.76493 15.0125C3.15993 15.965 2.18493 15.2525 2.60493 13.4375L3.13743 11.135C3.23493 10.7 3.06243 10.0925 2.74743 9.77748L0.887432 7.91748C-0.207568 6.82248 0.144932 5.71248 1.67493 5.45748L4.06743 5.05998C4.46493 4.99248 4.94493 4.63998 5.12493 4.27248L6.44493 1.63248C7.16493 0.19998 8.33493 0.19998 9.04743 1.63248Z" fill="#FEB744"/>
</svg>
