<svg width="17" height="17" viewBox="0 0 17 17" fill="none" xmlns="http://www.w3.org/2000/svg">
<path fill-rule="evenodd" clip-rule="evenodd" d="M6.65431 3.25729C6.36338 2.48656 5.75461 2.03867 5.14988 2.04776C4.33697 2.05998 3.52444 2.92523 3.54458 4.2059L3.54468 4.21224L3.52319 6.44614C3.52294 6.47191 3.52272 6.49738 3.5225 6.52255C3.52005 6.80583 3.51792 7.0513 3.48088 7.27549L9.19873 12.8658L13.3696 8.78776C14.8772 7.31375 14.8772 4.92867 13.3696 3.45466C11.8558 1.9745 9.39673 1.9745 7.88286 3.45466L6.93119 4.38514C6.73374 4.57819 6.41718 4.57462 6.22412 4.37717C6.03107 4.17973 6.03464 3.86316 6.23209 3.67011L6.65431 3.25729ZM7.41732 2.52556C6.95671 1.65618 6.13302 1.03287 5.13484 1.04787C3.58701 1.07114 2.52196 2.589 2.54461 4.21506L2.52323 6.43651C2.51801 6.97972 2.50875 7.11972 2.46219 7.23677C2.4445 7.28122 2.40836 7.34547 2.31274 7.46329C2.2151 7.5836 2.07973 7.73111 1.87843 7.94996C1.48185 8.38112 1.16699 8.81661 1.16699 9.37789C1.16699 9.8072 1.35077 10.1601 1.60928 10.4914C1.8544 10.8055 2.211 11.1542 2.63837 11.572L5.06711 13.9466C5.49474 14.3648 5.85122 14.7133 6.17216 14.9527C6.51123 15.2057 6.8668 15.3809 7.29539 15.3809C7.72398 15.3809 8.07956 15.2057 8.41862 14.9527C8.73957 14.7133 9.09605 14.3648 9.52369 13.9466L14.0687 9.50278C15.9775 7.6365 15.9775 4.60591 14.0687 2.73963C12.2423 0.953833 9.33052 0.882475 7.41732 2.52556ZM8.4826 13.5641L2.99816 8.20206C2.89377 8.32326 2.76852 8.45942 2.6249 8.61556L2.61444 8.62693C2.23843 9.03573 2.16699 9.22388 2.16699 9.37789C2.16699 9.49364 2.20752 9.63256 2.39764 9.87619C2.59639 10.1309 2.90361 10.4327 3.36241 10.8813L5.7416 13.2075C6.20024 13.656 6.50919 13.9566 6.7701 14.1512C7.01903 14.3369 7.1665 14.3809 7.29539 14.3809C7.42428 14.3809 7.57176 14.3369 7.82068 14.1512C8.00527 14.0135 8.21391 13.8228 8.4826 13.5641Z" fill="#6B7280"/>
</svg>
