<svg width="21" height="20" viewBox="0 0 21 20" fill="none" xmlns="http://www.w3.org/2000/svg">
<mask id="mask0_1952_29307" style="mask-type:alpha" maskUnits="userSpaceOnUse" x="0" y="0" width="21" height="20">
<path d="M7.96146 4.50731C9.017 2.61376 9.54477 1.66699 10.3338 1.66699C11.1229 1.66699 11.6506 2.61376 12.7062 4.5073L12.9793 4.99719C13.2792 5.53527 13.4292 5.80431 13.663 5.98183C13.8969 6.15935 14.1881 6.22524 14.7706 6.35703L15.3009 6.47702C17.3506 6.94079 18.3755 7.17267 18.6193 7.95677C18.8631 8.74086 18.1644 9.55788 16.7671 11.1919L16.4056 11.6147C16.0085 12.079 15.8099 12.3112 15.7206 12.5984C15.6313 12.8857 15.6613 13.1954 15.7213 13.815L15.776 14.379C15.9873 16.5592 16.0929 17.6492 15.4545 18.1338C14.8162 18.6184 13.8566 18.1766 11.9374 17.293L11.4409 17.0644C10.8956 16.8133 10.6229 16.6877 10.3338 16.6877C10.0448 16.6877 9.77209 16.8133 9.22673 17.0644L8.73022 17.293C6.81105 18.1766 5.85147 18.6184 5.21311 18.1338C4.57476 17.6492 4.68039 16.5592 4.89165 14.379L4.94631 13.815C5.00634 13.1954 5.03636 12.8857 4.94704 12.5984C4.85772 12.3112 4.65918 12.079 4.26209 11.6147L3.90057 11.1919C2.5032 9.55788 1.80451 8.74086 2.04834 7.95677C2.29217 7.17267 3.31704 6.94079 5.36677 6.47702L5.89706 6.35703C6.47953 6.22524 6.77077 6.15935 7.00461 5.98183C7.23845 5.80431 7.38843 5.53527 7.68838 4.99719L7.96146 4.50731Z" fill="#F68B1F"/>
</mask>
<g mask="url(#mask0_1952_29307)">
<rect x="-5.5" y="-3.33398" width="15.8333" height="37.5" fill="#FEB744"/>
</g>
</svg>
