<svg width="40" height="40" viewBox="0 0 40 40" fill="none" xmlns="http://www.w3.org/2000/svg">
<path d="M9.81895 35.0923C17.5045 35.0923 22.7823 39.0735 26.4856 39.0735C30.189 39.0735 37.9667 36.9446 37.9667 19.9079C37.9667 2.87123 27.5045 0.370117 23.4301 0.370117C4.35562 0.370117 -3.79216 35.0923 9.81895 35.0923Z" fill="#F3EFEF"/>
<path d="M6.51367 3.43115L8.21701 1.72781L9.00269 2.51348L7.29935 4.21683L6.51367 3.43115Z" fill="#D1D5DB"/>
<path d="M1.61426 8.32837L3.31839 6.62424L4.10406 7.40992L2.39993 9.11404L1.61426 8.32837Z" fill="#D1D5DB"/>
<path d="M1.61621 2.2998L2.40189 1.51413L4.10523 3.21747L3.31955 4.00315L1.61621 2.2998Z" fill="#D1D5DB"/>
<path d="M24.8689 19.7222C25.4867 18.5889 25.8333 17.2978 25.8333 15.9467C25.8333 11.2867 21.7322 7.5 16.6667 7.5C11.6011 7.5 7.5 11.2856 7.5 15.9467C7.5 17.2978 7.84778 18.59 8.46444 19.7222H24.8689Z" fill="#F3F3F1"/>
<path d="M24.4901 19.1555V22.0666C24.4901 26.4444 21.4268 30.2777 16.7512 30.2777H16.3512C11.6756 30.2777 8.6123 26.4444 8.6123 22.0666C8.6123 22.0444 8.6123 20.4889 8.6123 19.1555H24.4901Z" fill="#F3F3F1"/>
<path d="M26.1112 32.5001C28.7034 29.3523 28.7034 26.2034 26.1112 23.0557C23.5189 26.2034 23.5189 29.3523 26.1112 32.5001Z" fill="#F68B1F"/>
<path d="M26.0793 32.5001C22.086 32.1223 19.9671 30.0556 19.7227 25.7556C21.5004 25.8667 22.9382 26.3334 24.0138 27.1778L26.0793 32.5001Z" fill="#F68B1F"/>
<path d="M26.1436 32.5001C30.1369 32.1223 32.2558 30.0556 32.5002 25.7556C30.7224 25.8667 29.2847 26.3334 28.2091 27.1778L26.1436 32.5001Z" fill="#F68B1F"/>
<path d="M17.778 30.2111C17.4447 30.2555 17.1113 30.2777 16.7558 30.2777H16.3558C11.678 30.2777 8.61133 26.4444 8.61133 22.0666V19.7222L9.64911 19.1911C9.54911 19.0022 10.7669 19.3444 10.6891 19.1555H11.1113V22.0666C11.1113 26.1111 13.7224 29.6555 17.778 30.2111Z" fill="#D5DBE1"/>
<path d="M10 15.9444C10 17.0778 10.2444 18.1667 10.6889 19.1556H8.61111V19.7222H8.46667C7.84444 18.5889 7.5 17.3 7.5 15.9444C7.5 11.2889 11.6 7.5 16.6667 7.5C17.0889 7.5 17.5111 7.52222 17.9222 7.58889C13.4444 8.13333 10 11.6778 10 15.9444Z" fill="#D5DBE1"/>
<path d="M26.0782 32.4998C22.0893 32.122 19.9671 30.0554 19.7227 25.7554C20.4338 25.7998 21.0893 25.8998 21.6893 26.0665C21.956 29.3443 23.3671 31.2665 25.9227 32.0887L26.0782 32.4998Z" fill="black" fill-opacity="0.2"/>
<path d="M17.4996 31.1112H16.6662C11.5985 31.1112 7.77734 27.2223 7.77734 22.0667V18.3223H9.44401V22.0667C9.44401 26.2734 12.5485 29.4445 16.6662 29.4445H17.4996V31.1112Z" fill="#111827"/>
<path d="M25.2014 20.8532L23.7381 20.0554L24.137 19.3232C24.7014 18.2876 25.0003 17.1209 25.0003 15.9465C25.0003 11.7487 21.2625 8.33317 16.667 8.33317C12.0714 8.33317 8.33366 11.7487 8.33366 15.9465C8.33366 16.9865 8.5581 17.9921 9.00144 18.9365L9.35477 19.6909L7.84588 20.3987L7.49144 19.6443C6.94477 18.4754 6.66699 17.2321 6.66699 15.9465C6.66699 10.8298 11.1537 6.6665 16.667 6.6665C22.1803 6.6665 26.667 10.8298 26.667 15.9465C26.667 17.3987 26.2981 18.8421 25.6003 20.1221L25.2014 20.8532Z" fill="#111827"/>
<path d="M25.286 20.1246L24.4871 19.8891C18.1827 18.0291 13.7349 14.3902 11.2671 9.07461L10.916 8.31683L12.4282 7.61572L12.7782 8.37128C15.0349 13.2335 19.1327 16.5702 24.9582 18.2902L25.7571 18.5257L25.286 20.1246Z" fill="#111827"/>
<path d="M8.00752 20.1677L7.59863 18.551L8.40752 18.3466C11.3075 17.6132 13.6864 16.1332 15.4775 13.9477L16.0064 13.3032L17.2953 14.3599L16.7664 15.0043C14.7442 17.4721 12.0686 19.1399 8.8153 19.9621L8.00752 20.1677Z" fill="#111827"/>
<path d="M16.9398 27.8279L16.1109 27.739C14.9642 27.6168 14.0031 27.0901 13.472 26.2945L13.0098 25.6012L14.3964 24.6768L14.8587 25.3701C15.1098 25.7468 15.6442 26.0134 16.2875 26.0823L17.1164 26.1712L16.9398 27.8279Z" fill="#111827"/>
<path d="M11.1113 21.1111H14.4447V22.7778H11.1113V21.1111Z" fill="#111827"/>
<path d="M18.8887 21.1111H22.222V22.7778H18.8887V21.1111Z" fill="#111827"/>
<path d="M26.1107 33.3331C25.8618 33.3331 25.6251 33.222 25.4674 33.0298C22.6385 29.5942 22.6385 25.962 25.4674 22.5265C25.784 22.1409 26.4374 22.1409 26.754 22.5265C29.5829 25.962 29.5829 29.5942 26.754 33.0298C26.5963 33.222 26.3596 33.3331 26.1107 33.3331ZM26.1107 24.4531C24.6451 26.682 24.6451 28.8731 26.1107 31.1009C27.5763 28.8731 27.5763 26.682 26.1107 24.4531Z" fill="#111827"/>
<path d="M26 33.3301C21.48 32.9023 19.1533 30.4401 18.89 25.8034C18.8766 25.5657 18.9655 25.3334 19.1344 25.1657C19.3033 24.9979 19.5355 24.9134 19.7733 24.9246C21.7322 25.0468 23.3322 25.5846 24.5278 26.5223L23.4989 27.8334C22.7689 27.2612 21.8133 26.879 20.6511 26.6946C21.1 29.809 22.8311 31.3568 26.1578 31.6712L26 33.3301Z" fill="#111827"/>
<path d="M26.2222 33.3301L26.0645 31.6712C29.3911 31.3568 31.1222 29.809 31.5711 26.6946C30.4078 26.8801 29.4522 27.2612 28.7233 27.8334L27.6945 26.5223C28.89 25.5834 30.49 25.0457 32.4489 24.9246C32.68 24.9134 32.92 24.9979 33.0878 25.1657C33.2567 25.3334 33.3456 25.5657 33.3322 25.8034C33.0678 30.4401 30.7422 32.9023 26.2222 33.3301Z" fill="#111827"/>
</svg>
