<svg width="16" height="16" viewBox="0 0 16 16" fill="none" xmlns="http://www.w3.org/2000/svg">
<path fill-rule="evenodd" clip-rule="evenodd" d="M13.9423 3.92582C14.167 4.26212 14.167 4.73028 14.167 5.66659V14.1666H14.5003C14.7765 14.1666 15.0003 14.3904 15.0003 14.6666C15.0003 14.9427 14.7765 15.1666 14.5003 15.1666H1.16699C0.89085 15.1666 0.666992 14.9427 0.666992 14.6666C0.666992 14.3904 0.89085 14.1666 1.16699 14.1666H1.50033V5.66659C1.50033 4.73028 1.50033 4.26212 1.72503 3.92582C1.82231 3.78024 1.94731 3.65524 2.0929 3.55796C2.38705 3.36141 2.78207 3.33678 3.50301 3.33369C3.50027 3.52796 3.5003 3.73095 3.50032 3.94025L3.50033 3.99992V4.83325H2.83366C2.55752 4.83325 2.33366 5.05711 2.33366 5.33325C2.33366 5.60939 2.55752 5.83325 2.83366 5.83325H3.50033V6.83325H2.83366C2.55752 6.83325 2.33366 7.05711 2.33366 7.33325C2.33366 7.60939 2.55752 7.83325 2.83366 7.83325H3.50033V8.83325H2.83366C2.55752 8.83325 2.33366 9.05711 2.33366 9.33325C2.33366 9.6094 2.55752 9.83325 2.83366 9.83325H3.50033V14.1666H4.50033V3.99992C4.50033 2.74284 4.50033 2.1143 4.89085 1.72378C5.28137 1.33325 5.90991 1.33325 7.16699 1.33325H8.50033C9.7574 1.33325 10.3859 1.33325 10.7765 1.72378C11.167 2.1143 11.167 2.74284 11.167 3.99992V14.1666H12.167V9.83325H12.8337C13.1098 9.83325 13.3337 9.6094 13.3337 9.33325C13.3337 9.05711 13.1098 8.83325 12.8337 8.83325H12.167V7.83325H12.8337C13.1098 7.83325 13.3337 7.60939 13.3337 7.33325C13.3337 7.05711 13.1098 6.83325 12.8337 6.83325H12.167V5.83325H12.8337C13.1098 5.83325 13.3337 5.60939 13.3337 5.33325C13.3337 5.05711 13.1098 4.83325 12.8337 4.83325H12.167V3.99992L12.167 3.94026C12.167 3.73095 12.167 3.52796 12.1643 3.33369C12.8852 3.33678 13.2803 3.36141 13.5744 3.55796C13.72 3.65524 13.845 3.78024 13.9423 3.92582ZM8.33366 12.6666C8.33366 12.3904 8.1098 12.1666 7.83366 12.1666C7.55752 12.1666 7.33366 12.3904 7.33366 12.6666V14.1666H8.33366V12.6666ZM6.00033 9.99992C6.00033 9.72378 6.22418 9.49992 6.50033 9.49992H9.16699C9.44313 9.49992 9.66699 9.72378 9.66699 9.99992C9.66699 10.2761 9.44313 10.4999 9.16699 10.4999H6.50033C6.22418 10.4999 6.00033 10.2761 6.00033 9.99992ZM6.50033 7.49992C6.22418 7.49992 6.00033 7.72378 6.00033 7.99992C6.00033 8.27606 6.22418 8.49992 6.50033 8.49992H9.16699C9.44313 8.49992 9.66699 8.27606 9.66699 7.99992C9.66699 7.72378 9.44313 7.49992 9.16699 7.49992H6.50033ZM6.16699 4.66659C6.16699 3.65406 6.9878 2.83325 8.00033 2.83325C9.01285 2.83325 9.83366 3.65406 9.83366 4.66659C9.83366 5.67911 9.01285 6.49992 8.00033 6.49992C6.9878 6.49992 6.16699 5.67911 6.16699 4.66659ZM7.16699 4.66659C7.16699 4.20635 7.54009 3.83325 8.00033 3.83325C8.46056 3.83325 8.83366 4.20635 8.83366 4.66659C8.83366 5.12682 8.46056 5.49992 8.00033 5.49992C7.54009 5.49992 7.16699 5.12682 7.16699 4.66659Z" fill="#4B92FF"/>
</svg>
