<svg width="16" height="16" viewBox="0 0 16 16" fill="none" xmlns="http://www.w3.org/2000/svg">
<path fill-rule="evenodd" clip-rule="evenodd" d="M8.00008 1.3335C5.05456 1.3335 2.66675 4.00189 2.66675 7.00016C2.66675 9.97495 4.36896 13.2084 7.02479 14.4498C7.64391 14.7392 8.35625 14.7392 8.97537 14.4498C11.6312 13.2084 13.3334 9.97495 13.3334 7.00016C13.3334 4.00189 10.9456 1.3335 8.00008 1.3335ZM8.00008 8.00016C8.73646 8.00016 9.33341 7.40321 9.33341 6.66683C9.33341 5.93045 8.73646 5.3335 8.00008 5.3335C7.2637 5.3335 6.66675 5.93045 6.66675 6.66683C6.66675 7.40321 7.2637 8.00016 8.00008 8.00016Z" fill="#9CA3AF"/>
</svg>
