<svg width="40" height="40" viewBox="0 0 40 40" fill="none" xmlns="http://www.w3.org/2000/svg">
<path d="M30.4632 4.34878C22.7798 4.49211 17.4276 0.609891 13.7254 0.679891C10.0232 0.749891 2.2854 3.02322 2.60429 20.0577C2.92318 37.0921 13.431 39.3955 17.5043 39.3199C36.5743 38.9632 44.0721 4.09434 30.4632 4.34878Z" fill="#EFEFEF"/>
<path d="M30.5555 27.2223C30.5555 28.4445 29.5555 29.4445 28.3333 29.4445H9.44439C8.22217 29.4445 7.22217 28.4445 7.22217 27.2223C7.22217 24.7023 8.02439 22.7778 10.5555 22.7778H27.2222C29.1199 22.7778 30.5555 23.9801 30.5555 27.2223Z" fill="#F3F3F1"/>
<path d="M10.5555 29.4444V31.1111C10.5555 32.0333 9.81106 32.7777 8.88883 32.7777C7.96661 32.7777 7.22217 32.0333 7.22217 31.1111V27.2222C7.22217 28.4444 8.22217 29.4444 9.44439 29.4444H10.5555Z" fill="#F68B1F"/>
<path d="M30.5555 27.2222V31.1111C30.5555 32.0333 29.8111 32.7777 28.8888 32.7777C27.9666 32.7777 27.2222 32.0333 27.2222 31.1111V29.4444H28.3333C29.5555 29.4444 30.5555 28.4444 30.5555 27.2222Z" fill="#F68B1F"/>
<path d="M28.4332 23.0111C28.0666 22.8555 27.6555 22.7778 27.2221 22.7778H10.5555C10.1332 22.7778 9.72214 22.8555 9.35547 23.0111L11.6555 17.4778C11.9999 16.6555 12.811 16.1111 13.6999 16.1111H24.0777C24.9666 16.1111 25.7777 16.6555 26.1221 17.4778L28.4332 23.0111Z" fill="#F68B1F"/>
<path d="M26.6668 21.6666C26.6668 21.6666 32.7779 19.0877 32.7779 13.9288C32.7779 11.8655 32.7779 9.2855 32.7779 9.2855L26.6668 7.22217L20.5557 9.2855V13.9288C20.5557 19.0877 26.6668 21.6666 26.6668 21.6666Z" fill="#F68B1F"/>
<path d="M11.6666 29.4445H9.44439C8.22217 29.4445 7.22217 28.4445 7.22217 27.2223V26.1112C7.22217 25.9001 7.24439 25.6889 7.27772 25.4778C7.36661 25.0667 7.52217 24.6889 7.73328 24.3445C7.78883 24.2556 7.84439 24.1778 7.91106 24.1001C7.96661 24.0223 8.03328 23.9445 8.09995 23.8667C8.43328 23.4889 8.86661 23.1889 9.3555 23.0112C9.72217 22.8556 10.1333 22.7778 10.5555 22.7778H12.7777C12.3555 22.7778 11.9444 22.8556 11.5777 23.0112C11.0888 23.1889 10.6555 23.4889 10.3222 23.8667C10.2555 23.9445 10.1888 24.0223 10.1333 24.1001C10.0666 24.1778 10.0111 24.2556 9.9555 24.3445C9.74439 24.6889 9.58884 25.0667 9.49995 25.4778C9.46661 25.6889 9.44439 25.9001 9.44439 26.1112V27.2223C9.44439 28.4445 10.4444 29.4445 11.6666 29.4445Z" fill="#D5DBE1"/>
<path d="M9.99995 32.3444C9.71106 32.6111 9.32217 32.7777 8.88883 32.7777C7.96661 32.7777 7.22217 32.0333 7.22217 31.1111V27.2222C7.22217 28.4444 8.22217 29.4444 9.44439 29.4444V31.1111C9.44439 31.5999 9.6555 32.0444 9.99995 32.3444Z" fill="#BB6208"/>
<path d="M29.4444 29.4444V31.1111C29.4444 31.5999 29.6555 32.0444 29.9999 32.3444C29.7111 32.6111 29.3222 32.7777 28.8888 32.7777C27.9666 32.7777 27.2222 32.0333 27.2222 31.1111V29.4444H28.3333C29.5555 29.4444 30.5555 28.4444 30.5555 27.2222V29.4444H29.4444Z" fill="#BB6208"/>
<path d="M15.9221 16.1111C15.0332 16.1111 14.2221 16.6555 13.8777 17.4778L11.6777 22.7778H10.5555C10.1332 22.7778 9.72214 22.8555 9.35547 23.0111L11.6555 17.4778C11.9999 16.6555 12.811 16.1111 13.6999 16.1111H15.9221Z" fill="#BB6208"/>
<path d="M27.7779 21.0888C27.1223 21.4777 26.6668 21.6666 26.6668 21.6666C26.6668 21.6666 20.5557 19.0888 20.5557 13.9333C20.5557 10.8333 20.5557 9.28883 20.5557 9.28883L26.6668 7.22217L27.7779 7.59995L22.7779 9.28883V13.9333C22.7779 17.6888 26.0223 20.0777 27.7779 21.0888Z" fill="#BB6208"/>
<path d="M28.3331 30.2777H9.44423C7.75867 30.2777 6.38867 28.9077 6.38867 27.2221V26.111C6.38867 23.8132 8.25756 21.9443 10.5553 21.9443H22.0553V23.611H10.5553C9.17645 23.611 8.05534 24.7321 8.05534 26.111V27.2221C8.05534 27.9877 8.67867 28.611 9.44423 28.611H28.3331C29.0987 28.611 29.722 27.9877 29.722 27.2221V26.111C29.722 25.4854 29.4887 24.8899 29.0664 24.4321L30.2898 23.2999C30.9987 24.0654 31.3898 25.0643 31.3898 26.1099V27.221C31.3887 28.9077 30.0187 30.2777 28.3331 30.2777Z" fill="#111827"/>
<path d="M8.88867 33.6111C7.50978 33.6111 6.38867 32.4899 6.38867 31.1111V27.2222H8.05534V31.1111C8.05534 31.5711 8.42867 31.9444 8.88867 31.9444C9.34867 31.9444 9.72201 31.5711 9.72201 31.1111V29.4444H11.3887V31.1111C11.3887 32.4899 10.2676 33.6111 8.88867 33.6111Z" fill="#111827"/>
<path d="M28.8887 33.6111C27.5098 33.6111 26.3887 32.4899 26.3887 31.1111V29.4444H28.0553V31.1111C28.0553 31.5711 28.4287 31.9444 28.8887 31.9444C29.3487 31.9444 29.722 31.5711 29.722 31.1111V27.2222H31.3887V31.1111C31.3887 32.4899 30.2676 33.6111 28.8887 33.6111Z" fill="#111827"/>
<path d="M10.2132 23.0988L8.67432 22.4577L10.8854 17.1577C11.3632 16.0155 12.4677 15.2788 13.6988 15.2788H17.4654V16.9455H13.6988C13.1499 16.9455 12.6365 17.2888 12.4232 17.801L10.2132 23.0988Z" fill="#111827"/>
<path d="M10.5557 25.2778H13.889V26.9445H10.5557V25.2778Z" fill="#111827"/>
<path d="M23.8887 25.2778H27.222V26.9445H23.8887V25.2778Z" fill="#111827"/>
<path d="M26.6666 22.5C26.5566 22.5 26.4466 22.4778 26.3422 22.4344C26.0711 22.32 19.7222 19.5756 19.7222 13.9289V9.28555C19.7222 8.92777 19.9499 8.6111 20.2888 8.49666L26.3999 6.43333C26.5722 6.37444 26.7599 6.37444 26.9322 6.43333L33.0433 8.49666C33.3822 8.6111 33.6099 8.92888 33.6099 9.28555V13.9289C33.6099 19.5756 27.2599 22.3211 26.9899 22.4344C26.8866 22.4778 26.7766 22.5 26.6666 22.5ZM21.3888 9.88444V13.9289C21.3888 17.8356 25.4699 20.1522 26.6655 20.7467C27.8599 20.1489 31.9444 17.8211 31.9444 13.9289V9.88444L26.6666 8.10222L21.3888 9.88444Z" fill="#111827"/>
<path d="M25.1221 17.5782H26.8845V15.7975C27.3331 15.7975 27.7344 15.7517 28.0884 15.6602C28.4424 15.5686 28.746 15.4252 28.9993 15.2299C29.2526 15.0315 29.4479 14.7751 29.5853 14.4608C29.7226 14.1465 29.7913 13.7696 29.7913 13.3301C29.7913 12.5367 29.5929 11.9218 29.1962 11.4854C28.7994 11.0459 28.2166 10.8262 27.4475 10.8262H25.1221V17.5782ZM26.8845 12.4238H27.2232C27.504 12.4238 27.7084 12.5016 27.8366 12.6572C27.9648 12.8129 28.0289 13.0128 28.0289 13.2569C28.0289 13.501 27.9648 13.7009 27.8366 13.8566C27.7084 14.0122 27.504 14.09 27.2232 14.09H26.8845V12.4238Z" fill="#111827"/>
<path d="M20.5553 35.5555C19.6364 35.5555 18.8887 34.8077 18.8887 33.8888C18.8887 32.9699 19.6364 32.2222 20.5553 32.2222C21.4742 32.2222 22.222 32.9699 22.222 33.8888C22.222 34.8077 21.4742 35.5555 20.5553 35.5555ZM20.5553 33.3333C20.2487 33.3333 19.9998 33.5822 19.9998 33.8888C19.9998 34.1955 20.2487 34.4444 20.5553 34.4444C20.862 34.4444 21.1109 34.1955 21.1109 33.8888C21.1109 33.5822 20.862 33.3333 20.5553 33.3333Z" fill="#D1D5DB"/>
</svg>
