<svg width="16" height="16" viewBox="0 0 16 16" fill="none" xmlns="http://www.w3.org/2000/svg">
<path d="M13.9068 5.57998L9.28676 1.88665C8.57343 1.31331 7.4201 1.31331 6.71343 1.87998L2.09343 5.57998C1.57343 5.99331 1.2401 6.86665 1.35343 7.51998L2.2401 12.8266C2.4001 13.7733 3.30676 14.54 4.26676 14.54H11.7334C12.6868 14.54 13.6001 13.7666 13.7601 12.8266L14.6468 7.51998C14.7534 6.86665 14.4201 5.99331 13.9068 5.57998ZM8.0001 10.3333C7.0801 10.3333 6.33343 9.58665 6.33343 8.66665C6.33343 7.74665 7.0801 6.99998 8.0001 6.99998C8.9201 6.99998 9.66676 7.74665 9.66676 8.66665C9.66676 9.58665 8.9201 10.3333 8.0001 10.3333Z" fill="#4B92FF"/>
</svg>
