<svg width="17" height="17" viewBox="0 0 17 17" fill="none" xmlns="http://www.w3.org/2000/svg">
<path fill-rule="evenodd" clip-rule="evenodd" d="M8.6665 5.04761C7.28579 5.04761 6.1665 6.1669 6.1665 7.54761C6.1665 8.36607 6.56001 9.09216 7.1665 9.54772V10.2143C7.1665 10.8586 7.68884 11.3809 8.33317 11.3809H8.99984C9.64417 11.3809 10.1665 10.8586 10.1665 10.2143V9.54772C10.773 9.09216 11.1665 8.36607 11.1665 7.54761C11.1665 6.1669 10.0472 5.04761 8.6665 5.04761ZM7.1665 7.54761C7.1665 6.71918 7.83808 6.04761 8.6665 6.04761C9.49493 6.04761 10.1665 6.71918 10.1665 7.54761C10.1665 8.10219 9.8658 8.58713 9.41614 8.84724C9.26165 8.93661 9.1665 9.10156 9.1665 9.28004V10.2143C9.1665 10.3063 9.09188 10.3809 8.99984 10.3809H8.33317C8.24112 10.3809 8.1665 10.3063 8.1665 10.2143V9.28004C8.1665 9.10156 8.07136 8.93661 7.91687 8.84724C7.46721 8.58713 7.1665 8.10219 7.1665 7.54761Z" fill="#6B7280"/>
<path fill-rule="evenodd" clip-rule="evenodd" d="M8.6665 1.04761C8.04149 1.04761 7.44472 1.252 6.4821 1.58168L5.99714 1.7477C5.00958 2.08574 4.24744 2.34662 3.70186 2.56826C3.42703 2.67991 3.19075 2.78805 3.00049 2.89855C2.8174 3.00488 2.63372 3.1375 2.50893 3.3153C2.38557 3.49105 2.32179 3.7071 2.28171 3.91509C2.24005 4.13131 2.21492 4.3907 2.1987 4.68851C2.1665 5.27985 2.1665 6.08995 2.1665 7.1407V8.20851C2.1665 12.2759 5.23852 14.226 7.06539 15.024L7.08346 15.0319C7.30999 15.1309 7.52291 15.2239 7.76757 15.2865C8.02588 15.3527 8.30033 15.3809 8.6665 15.3809C9.03268 15.3809 9.30713 15.3527 9.56543 15.2865C9.81009 15.2239 10.023 15.1309 10.2495 15.0319L10.2676 15.024C12.0945 14.226 15.1665 12.2759 15.1665 8.20851V7.14082C15.1665 6.09001 15.1665 5.27987 15.1343 4.68851C15.1181 4.3907 15.093 4.13131 15.0513 3.91509C15.0112 3.7071 14.9474 3.49105 14.8241 3.3153C14.6993 3.1375 14.5156 3.00488 14.3325 2.89855C14.1423 2.78805 13.906 2.67991 13.6312 2.56826C13.0856 2.34662 12.3234 2.08574 11.3359 1.7477L10.8509 1.58169C9.88829 1.252 9.29152 1.04761 8.6665 1.04761ZM6.72025 2.55714C7.7966 2.1887 8.22801 2.04761 8.6665 2.04761C9.105 2.04761 9.53641 2.1887 10.6128 2.55714L10.9946 2.68786C12.003 3.03303 12.7384 3.28497 13.2548 3.49473C13.5125 3.59943 13.6992 3.68717 13.8303 3.76329C13.895 3.80088 13.9396 3.83189 13.9694 3.85609C13.9946 3.8766 14.0042 3.88822 14.0056 3.88993C14.0069 3.89201 14.0152 3.90585 14.0269 3.93863C14.0402 3.97604 14.055 4.02967 14.0694 4.10431C14.0985 4.2554 14.1205 4.46295 14.1358 4.74289C14.1663 5.30368 14.1665 6.0865 14.1665 7.15871V8.20851C14.1665 11.6586 11.5866 13.3566 9.86731 14.1076C9.61966 14.2158 9.47665 14.277 9.31744 14.3178C9.16538 14.3567 8.97984 14.3809 8.6665 14.3809C8.35317 14.3809 8.16762 14.3567 8.01557 14.3178C7.85636 14.277 7.71335 14.2158 7.46569 14.1076C5.74643 13.3566 3.1665 11.6586 3.1665 8.20851V7.15871C3.1665 6.0865 3.16669 5.30368 3.19722 4.74289C3.21247 4.46295 3.23453 4.2554 3.26365 4.10431C3.27803 4.02967 3.2928 3.97604 3.30612 3.93863C3.31779 3.90588 3.32608 3.89203 3.32736 3.88993C3.32874 3.88824 3.33837 3.87662 3.36362 3.85609C3.3934 3.83189 3.43798 3.80088 3.5027 3.76329C3.63377 3.68717 3.82051 3.59943 4.07823 3.49473C4.59457 3.28497 5.32998 3.03303 6.33837 2.68786L6.72025 2.55714Z" fill="#6B7280"/>
</svg>
