<svg width="40" height="40" viewBox="0 0 40 40" fill="none" xmlns="http://www.w3.org/2000/svg">
<path d="M9.01563 6.18233C7.01007 13.6012 1.78896 17.6568 0.822293 21.2323C-0.144373 24.8079 -0.118819 32.8712 16.3278 37.3179C32.7745 41.7646 37.919 32.3168 38.9812 28.3834C43.9601 9.97011 12.5678 -6.95767 9.01563 6.18233Z" fill="#EFEFEF"/>
<path d="M11.6666 10.5557V26.1112H9.44439C8.22217 26.1112 7.22217 25.1112 7.22217 23.889V12.7779C7.22217 11.5557 8.22217 10.5557 9.44439 10.5557H11.6666Z" fill="#F68B1F"/>
<path d="M30.5558 12.7779V23.889C30.5558 25.1112 29.5558 26.1112 28.3336 26.1112H26.1113V10.5557H28.3336C29.5558 10.5557 30.5558 11.5557 30.5558 12.7779Z" fill="#F68B1F"/>
<path d="M11.6665 10.5557H26.1109V26.1112H11.6665V10.5557Z" fill="#F3F3F1"/>
<path d="M16.1111 13.8889L15 17.2222L19.4444 16.1111L16.1111 13.8889Z" fill="#F68B1F"/>
<path d="M26.6668 32.7777C26.6668 32.7777 32.7779 30.1988 32.7779 25.0399C32.7779 22.9766 32.7779 20.3966 32.7779 20.3966L26.6668 18.3333L20.5557 20.3966V25.0399C20.5557 30.1988 26.6668 32.7777 26.6668 32.7777Z" fill="#F68B1F"/>
<path d="M11.6665 10.5557H13.8887V26.1112H11.6665V10.5557Z" fill="#D5DBE1"/>
<path d="M11.6666 26.1112H9.44439C8.22217 26.1112 7.22217 25.1112 7.22217 23.889V12.7779C7.22217 11.5557 8.22217 10.5557 9.44439 10.5557H11.6666C10.4444 10.5557 9.44439 11.5557 9.44439 12.7779V23.889C9.44439 25.1112 10.4444 26.1112 11.6666 26.1112Z" fill="#BB6208"/>
<path d="M26.1108 10.5557H28.3331V18.3334H26.1108V10.5557Z" fill="#BB6208"/>
<path d="M27.7779 32.2002C27.1223 32.5891 26.6668 32.7779 26.6668 32.7779C26.6668 32.7779 20.5557 30.2002 20.5557 25.0446C20.5557 21.9446 20.5557 20.4002 20.5557 20.4002L26.6668 18.3335L27.7779 18.7113L22.7779 20.4002V25.0446C22.7779 28.8002 26.0223 31.1891 27.7779 32.2002Z" fill="#BB6208"/>
<path d="M17.222 26.9444H9.44423C7.75867 26.9444 6.38867 25.5744 6.38867 23.8888V12.7777C6.38867 11.0922 7.75867 9.72217 9.44423 9.72217H28.3331C30.0187 9.72217 31.3887 11.0922 31.3887 12.7777V16.1111H29.722V12.7777C29.722 12.0122 29.0987 11.3888 28.3331 11.3888H9.44423C8.67867 11.3888 8.05534 12.0122 8.05534 12.7777V23.8888C8.05534 24.6544 8.67867 25.2777 9.44423 25.2777H17.222V26.9444Z" fill="#111827"/>
<path d="M23.6109 10.5556H21.9443V8.33336C21.9443 8.18003 21.8198 8.05558 21.6665 8.05558H16.1109C15.9576 8.05558 15.8332 8.18003 15.8332 8.33336V10.5556H14.1665V8.33336C14.1665 7.26114 15.0387 6.38892 16.1109 6.38892H21.6665C22.7387 6.38892 23.6109 7.26114 23.6109 8.33336V10.5556Z" fill="#111827"/>
<path d="M10.8335 10.5557H12.5002V26.1112H10.8335V10.5557Z" fill="#111827"/>
<path d="M25.2778 10.5557H26.9445V14.4446H25.2778V10.5557Z" fill="#111827"/>
<path d="M15.0001 18.0555C14.7713 18.0555 14.549 17.9611 14.389 17.7888C14.1813 17.5655 14.1135 17.2477 14.209 16.9588L15.3201 13.6255C15.4024 13.3788 15.5946 13.1855 15.8413 13.1011C16.0857 13.0155 16.3568 13.0511 16.5735 13.1955L19.9068 15.4177C20.1813 15.6011 20.3224 15.9288 20.2657 16.2533C20.209 16.5788 19.9657 16.8388 19.6457 16.9199L15.2013 18.0311C15.1357 18.0477 15.0679 18.0555 15.0001 18.0555ZM16.5568 15.1877L16.2701 16.0455L17.4135 15.7588L16.5568 15.1877Z" fill="#111827"/>
<path d="M26.6666 33.6112C26.5555 33.6112 26.4466 33.589 26.3422 33.5457C26.0722 33.4301 19.7222 30.6868 19.7222 25.0401V20.3968C19.7222 20.0401 19.9499 19.7223 20.2888 19.6068L26.3999 17.5434C26.5733 17.4845 26.7599 17.4845 26.9333 17.5434L33.0444 19.6068C33.3833 19.7223 33.6111 20.0401 33.6111 20.3968V25.0401C33.6111 30.6868 27.2611 33.4312 26.9911 33.5457C26.8866 33.589 26.7777 33.6112 26.6666 33.6112ZM21.3888 20.9957V25.0412C21.3888 28.9479 25.4699 31.2634 26.6655 31.8579C27.8599 31.2612 31.9444 28.9323 31.9444 25.0412V20.9957L26.6666 19.2134L21.3888 20.9957Z" fill="#111827"/>
<path d="M26.1111 28.0555C26.0956 28.0555 26.0811 28.0555 26.0656 28.0544C25.8278 28.0411 25.6089 27.9277 25.46 27.7433L23.2378 24.9655L24.54 23.9233L26.1811 25.9744L29.4111 22.7444L30.59 23.9233L26.7011 27.8122C26.5445 27.9677 26.3311 28.0555 26.1111 28.0555Z" fill="#111827"/>
<path d="M30.0002 7.1888C29.0813 7.1888 28.3335 6.44102 28.3335 5.52214C28.3335 4.60325 29.0813 3.85547 30.0002 3.85547C30.9191 3.85547 31.6668 4.60325 31.6668 5.52214C31.6668 6.44102 30.9191 7.1888 30.0002 7.1888ZM30.0002 4.96658C29.6946 4.96658 29.4446 5.21658 29.4446 5.52214C29.4446 5.82769 29.6946 6.07769 30.0002 6.07769C30.3057 6.07769 30.5557 5.82769 30.5557 5.52214C30.5557 5.21658 30.3057 4.96658 30.0002 4.96658Z" fill="#D1D5DB"/>
</svg>
