<svg width="17" height="17" viewBox="0 0 17 17" fill="none" xmlns="http://www.w3.org/2000/svg">
<path fill-rule="evenodd" clip-rule="evenodd" d="M7.79937 2.16088C7.52098 2.24693 7.16132 2.37763 6.65865 2.56051C5.94798 2.81907 5.11199 3.06937 4.37876 3.13603C4.19617 3.15263 4.0648 3.16458 3.96795 3.17481C3.91986 3.17989 3.88384 3.18418 3.85668 3.18796C3.84329 3.18982 3.83323 3.1914 3.82583 3.19267L3.81756 3.19419C3.81564 3.19457 3.81476 3.19477 3.81479 3.19476C3.59205 3.24558 3.45445 3.331 3.36588 3.42799C3.27731 3.52497 3.2047 3.66974 3.17425 3.89617C3.16805 3.9423 3.16682 4.02694 3.16682 4.30592V9.71425H13.5002V4.30592C13.5002 4.02694 13.4989 3.9423 13.4927 3.89617C13.4623 3.66974 13.3897 3.52497 13.3011 3.42799C13.2125 3.331 13.0749 3.24558 12.8522 3.19476C12.8522 3.19477 12.8513 3.19457 12.8494 3.19419L12.8411 3.19268C12.8338 3.1914 12.8237 3.18982 12.8103 3.18796C12.7831 3.18418 12.7471 3.17989 12.699 3.17481C12.6022 3.16458 12.4708 3.15262 12.2882 3.13603C11.555 3.06937 10.719 2.81907 10.0083 2.56051C9.50566 2.37763 9.14599 2.24693 8.8676 2.16088C8.58505 2.07355 8.43162 2.04736 8.33349 2.04736C8.23536 2.04736 8.08193 2.07355 7.79937 2.16088ZM14.5002 9.72609V4.30592C14.5002 4.29106 14.5002 4.27644 14.5002 4.26207C14.5002 4.04611 14.5003 3.8855 14.4838 3.76291C14.4321 3.37871 14.2927 3.03087 14.0395 2.75365C13.7864 2.47643 13.4526 2.30604 13.0746 2.21981C12.9539 2.19227 12.7452 2.17335 12.4452 2.14616C12.4235 2.1442 12.4014 2.14219 12.3788 2.14013C11.7761 2.08535 11.0371 1.87069 10.3502 1.62077L10.3369 1.61595C9.85042 1.43894 9.46764 1.29967 9.16291 1.20548C8.85958 1.11173 8.58788 1.04736 8.33349 1.04736C8.0791 1.04736 7.80739 1.11173 7.50406 1.20548C7.19933 1.29967 6.81654 1.43894 6.33001 1.61595L6.31676 1.62077C5.62984 1.87069 4.89089 2.08535 4.28822 2.14013C4.2656 2.14219 4.24345 2.1442 4.22178 2.14616C3.92179 2.17335 3.71309 2.19227 3.59235 2.21981C3.2144 2.30604 2.88062 2.47643 2.62746 2.75365C2.3743 3.03087 2.23483 3.37871 2.18317 3.76291C2.16669 3.8855 2.16674 4.04611 2.16681 4.26207C2.16682 4.27644 2.16682 4.29106 2.16682 4.30592V9.72609C1.60207 9.80699 1.1647 10.2929 1.16799 10.8837C1.172 11.6047 1.18926 12.2057 1.27945 12.6967C1.37228 13.202 1.5491 13.6321 1.89905 13.982C2.24592 14.3289 2.67048 14.5049 3.16682 14.5983V14.8809C3.16682 15.1571 3.39068 15.3809 3.66682 15.3809C3.94296 15.3809 4.16682 15.1571 4.16682 14.8809V14.6971C4.59299 14.7143 5.07933 14.7143 5.63024 14.7143H11.0367C11.5876 14.7143 12.074 14.7143 12.5002 14.6971V14.8809C12.5002 15.1571 12.724 15.3809 13.0002 15.3809C13.2763 15.3809 13.5002 15.1571 13.5002 14.8809V14.5983C13.9965 14.5049 14.4211 14.3289 14.7679 13.982C15.1179 13.6321 15.2947 13.202 15.3875 12.6967C15.4777 12.2057 15.495 11.6047 15.499 10.8837C15.5023 10.2929 15.0649 9.80699 14.5002 9.72609ZM8.83349 13.7143H11.0002C11.9571 13.7143 12.6245 13.7132 13.1281 13.6455C13.6173 13.5797 13.8763 13.4594 14.0608 13.2749C14.2231 13.1126 14.3346 12.8939 14.404 12.516C14.476 12.1239 14.4949 11.6072 14.499 10.8782C14.4995 10.7897 14.4269 10.7143 14.3335 10.7143H8.83349V13.7143ZM7.83349 10.7143V13.7143H5.66682C4.70988 13.7143 4.04247 13.7132 3.5389 13.6455C3.04972 13.5797 2.79067 13.4594 2.60616 13.2749C2.44386 13.1126 2.33241 12.8939 2.263 12.516C2.19096 12.1239 2.17203 11.6072 2.16797 10.8782C2.16748 10.7897 2.24007 10.7143 2.33349 10.7143H7.83349ZM7.68704 4.52737C7.8823 4.72263 7.8823 5.03921 7.68704 5.23447L7.02037 5.90114C6.82511 6.0964 6.50853 6.0964 6.31327 5.90114C6.11801 5.70588 6.11801 5.38929 6.31327 5.19403L6.97993 4.52737C7.1752 4.3321 7.49178 4.3321 7.68704 4.52737ZM9.68704 5.19403C9.8823 5.38929 9.8823 5.70588 9.68704 5.90114L7.68704 7.90114C7.49178 8.0964 7.1752 8.0964 6.97993 7.90114C6.78467 7.70588 6.78467 7.38929 6.97993 7.19403L8.97993 5.19403C9.1752 4.99877 9.49178 4.99877 9.68704 5.19403ZM10.3537 7.19403C10.549 7.38929 10.549 7.70588 10.3537 7.90114L9.68704 8.56781C9.49178 8.76307 9.1752 8.76307 8.97993 8.56781C8.78467 8.37254 8.78467 8.05596 8.97993 7.8607L9.6466 7.19403C9.84186 6.99877 10.1584 6.99877 10.3537 7.19403ZM4.50015 12.2143C4.50015 11.9381 4.72401 11.7143 5.00015 11.7143H6.33349C6.60963 11.7143 6.83349 11.9381 6.83349 12.2143C6.83349 12.4904 6.60963 12.7143 6.33349 12.7143H5.00015C4.72401 12.7143 4.50015 12.4904 4.50015 12.2143ZM9.83349 12.2143C9.83349 11.9381 10.0573 11.7143 10.3335 11.7143H11.6668C11.943 11.7143 12.1668 11.9381 12.1668 12.2143C12.1668 12.4904 11.943 12.7143 11.6668 12.7143H10.3335C10.0573 12.7143 9.83349 12.4904 9.83349 12.2143Z" fill="#6B7280"/>
</svg>
