<svg width="17" height="17" viewBox="0 0 17 17" fill="none" xmlns="http://www.w3.org/2000/svg">
<path fill-rule="evenodd" clip-rule="evenodd" d="M10.6591 1.16799C10.8687 1.3477 10.893 1.66335 10.7133 1.87301L9.13506 3.71428L11.0369 3.71428C11.9486 3.71427 12.6835 3.71426 13.2615 3.79196C13.8616 3.87264 14.3668 4.04524 14.7681 4.44651C15.1694 4.84779 15.342 5.35304 15.4226 5.95311C15.5003 6.53109 15.5003 7.26597 15.5003 8.1777V10.9175C15.5003 11.8293 15.5003 12.5641 15.4226 13.1421C15.342 13.7422 15.1694 14.2474 14.7681 14.6487C14.3668 15.05 13.8616 15.2226 13.2615 15.3033C12.6835 15.381 11.9486 15.381 11.0369 15.3809L5.63041 15.381C4.71869 15.381 3.9838 15.381 3.40583 15.3033C2.80575 15.2226 2.3005 15.05 1.89923 14.6487C1.49795 14.2474 1.32535 13.7422 1.24468 13.1421C1.16697 12.5641 1.16698 11.8293 1.16699 10.9175L1.16699 8.1777C1.16698 7.26597 1.16697 6.53109 1.24467 5.95312C1.32535 5.35304 1.49795 4.84779 1.89923 4.44652C2.3005 4.04524 2.80575 3.87264 3.40582 3.79196C3.9838 3.71426 4.71868 3.71427 5.6304 3.71428L7.53226 3.71428L5.95403 1.87301C5.77432 1.66335 5.7986 1.3477 6.00826 1.16799C6.21793 0.988277 6.53358 1.01256 6.71329 1.22222L8.33366 3.11265L9.95403 1.22222C10.1337 1.01256 10.4494 0.988277 10.6591 1.16799ZM11.5003 4.7148L11.5003 14.3804C12.1975 14.3783 12.7174 14.3674 13.1282 14.3122C13.6174 14.2464 13.8765 14.1261 14.061 13.9416C14.2455 13.7571 14.3658 13.4981 14.4316 13.0089C14.4993 12.5053 14.5003 11.8379 14.5003 10.8809V8.21428C14.5003 7.25734 14.4993 6.58993 14.4316 6.08636C14.3658 5.59718 14.2455 5.33813 14.061 5.15362C13.8765 4.96911 13.6174 4.84882 13.1282 4.78305C12.7174 4.72781 12.1975 4.71693 11.5003 4.7148ZM10.5003 14.3809L10.5003 4.71428L5.66699 4.71428C4.71005 4.71428 4.04264 4.71534 3.53907 4.78305C3.04989 4.84882 2.79084 4.96911 2.60633 5.15362C2.42182 5.33813 2.30153 5.59718 2.23576 6.08636C2.16805 6.58993 2.16699 7.25734 2.16699 8.21428L2.16699 10.881C2.16699 11.8379 2.16806 12.5053 2.23576 13.0089C2.30153 13.4981 2.42182 13.7571 2.60633 13.9416C2.79084 14.1261 3.04989 14.2464 3.53907 14.3122C4.04264 14.3799 4.71005 14.381 5.66699 14.381L10.5003 14.3809Z" fill="#6B7280"/>
<path d="M13.667 10.881C13.667 10.5128 13.3685 10.2143 13.0003 10.2143C12.6321 10.2143 12.3337 10.5128 12.3337 10.881C12.3337 11.2491 12.6321 11.5476 13.0003 11.5476C13.3685 11.5476 13.667 11.2491 13.667 10.881Z" fill="#6B7280"/>
<path d="M13.667 8.21428C13.667 7.84609 13.3685 7.54762 13.0003 7.54762C12.6321 7.54762 12.3337 7.84609 12.3337 8.21428C12.3337 8.58247 12.6321 8.88095 13.0003 8.88095C13.3685 8.88095 13.667 8.58247 13.667 8.21428Z" fill="#6B7280"/>
</svg>
