<svg width="16" height="17" viewBox="0 0 16 17" fill="none" xmlns="http://www.w3.org/2000/svg">
<path fill-rule="evenodd" clip-rule="evenodd" d="M7.29572 1.04761H8.70428C9.92945 1.0476 10.8999 1.04759 11.6593 1.1497C12.441 1.25478 13.0736 1.47619 13.5725 1.9751C14.0714 2.47401 14.2928 3.10664 14.3979 3.88826C14.5 4.64774 14.5 5.61816 14.5 6.84333V9.58522C14.5 10.8104 14.5 11.7808 14.3979 12.5403C14.2928 13.3219 14.0714 13.9545 13.5725 14.4534C13.0736 14.9524 12.441 15.1738 11.6593 15.2789C10.8999 15.381 9.92945 15.381 8.70427 15.3809H7.29573C6.07055 15.381 5.10013 15.381 4.34065 15.2789C3.55904 15.1738 2.9264 14.9524 2.4275 14.4534C1.92859 13.9545 1.70718 13.3219 1.60209 12.5403C1.49998 11.7808 1.49999 10.8104 1.5 9.58522V6.84333C1.49999 5.61816 1.49998 4.64774 1.60209 3.88826C1.70718 3.10664 1.92859 2.47401 2.4275 1.9751C2.9264 1.47619 3.55904 1.25478 4.34065 1.1497C5.10013 1.04759 6.07055 1.0476 7.29572 1.04761ZM4.4739 2.14078C3.80317 2.23096 3.41674 2.40007 3.1346 2.68221C2.85246 2.96435 2.68335 3.35078 2.59317 4.02151C2.50106 4.70662 2.5 5.60973 2.5 6.88094V9.54761C2.5 10.8188 2.50106 11.7219 2.59317 12.407C2.68335 13.0778 2.85246 13.4642 3.1346 13.7463C3.41674 14.0285 3.80317 14.1976 4.4739 14.2878C5.15901 14.3799 6.06212 14.3809 7.33333 14.3809H8.66667C9.93788 14.3809 10.841 14.3799 11.5261 14.2878C12.1968 14.1976 12.5833 14.0285 12.8654 13.7463C13.1475 13.4642 13.3166 13.0778 13.4068 12.407C13.4989 11.7219 13.5 10.8188 13.5 9.54761V6.88094C13.5 5.60973 13.4989 4.70662 13.4068 4.02151C13.3166 3.35078 13.1475 2.96435 12.8654 2.68221C12.5833 2.40007 12.1968 2.23096 11.5261 2.14078C10.841 2.04867 9.93788 2.04761 8.66667 2.04761H7.33333C6.06212 2.04761 5.15901 2.04867 4.4739 2.14078ZM4.83333 4.21427C4.83333 3.93813 5.05719 3.71427 5.33333 3.71427H10.6667C10.9428 3.71427 11.1667 3.93813 11.1667 4.21427C11.1667 4.49042 10.9428 4.71427 10.6667 4.71427H5.33333C5.05719 4.71427 4.83333 4.49042 4.83333 4.21427ZM5.17016 9.40564C5.28215 9.46466 5.39187 9.52608 5.50256 9.58804C5.97807 9.85423 6.47137 10.1304 7.23803 10.2686C7.55809 10.3262 7.75152 10.2938 7.88667 10.2439C8.03527 10.1891 8.15533 10.1002 8.33894 9.95778C8.34414 9.95375 8.3494 9.94967 8.35471 9.94554C8.52402 9.8141 8.75354 9.63592 9.05796 9.52361C9.3854 9.40279 9.76279 9.36876 10.2301 9.45293C10.4555 9.49355 10.6552 9.54682 10.8327 9.60977C10.8331 9.58911 10.8333 9.56838 10.8333 9.54761C10.8333 7.9828 9.56481 6.71427 8 6.71427C6.4828 6.71427 5.24413 7.90679 5.17016 9.40564ZM10.6299 10.6039C10.483 10.5401 10.2952 10.4808 10.0528 10.4371C9.73272 10.3794 9.53927 10.4119 9.40411 10.4618C9.25549 10.5166 9.13542 10.6056 8.9518 10.748C8.94661 10.752 8.94137 10.7561 8.93606 10.7602C8.76674 10.8916 8.53721 11.0698 8.23275 11.1821C7.9053 11.3029 7.5279 11.3369 7.06064 11.2527C6.37628 11.1293 5.83181 10.8959 5.39872 10.6724C5.83399 11.6777 6.83486 12.3809 8 12.3809C9.19142 12.3809 10.2111 11.6456 10.6299 10.6039ZM4.16667 9.54761C4.16667 7.43052 5.88291 5.71427 8 5.71427C10.1171 5.71427 11.8333 7.43052 11.8333 9.54761C11.8333 11.6647 10.1171 13.3809 8 13.3809C5.88291 13.3809 4.16667 11.6647 4.16667 9.54761Z" fill="#6B7280"/>
</svg>
