<svg width="16" height="17" viewBox="0 0 16 17" fill="none" xmlns="http://www.w3.org/2000/svg">
<path d="M4.36695 8.34253C6.3782 6.17166 9.62213 6.17166 11.6334 8.34253C11.8211 8.5451 12.1374 8.55717 12.34 8.3695C12.5425 8.18183 12.5546 7.86548 12.3669 7.66291C9.95993 5.06486 6.0404 5.06486 3.63338 7.66291C3.44571 7.86548 3.45779 8.18183 3.66035 8.3695C3.86292 8.55717 4.17927 8.5451 4.36695 8.34253Z" fill="#6B7280"/>
<path d="M5.70029 9.78153C6.97517 8.40547 9.02518 8.40547 10.3001 9.78153C10.4877 9.98409 10.8041 9.99617 11.0067 9.8085C11.2092 9.62082 11.2213 9.30447 11.0336 9.1019C9.36298 7.29868 6.63737 7.29868 4.96673 9.1019C4.77906 9.30447 4.79113 9.62082 4.9937 9.8085C5.19626 9.99617 5.51262 9.98409 5.70029 9.78153Z" fill="#6B7280"/>
<path d="M7.03363 11.2209C7.57213 10.6396 8.42824 10.6396 8.96674 11.2209C9.15441 11.4234 9.47077 11.4355 9.67333 11.2478C9.8759 11.0601 9.88797 10.7438 9.7003 10.5412C8.76604 9.53283 7.23433 9.53283 6.30007 10.5412C6.1124 10.7438 6.12447 11.0601 6.32704 11.2478C6.52961 11.4355 6.84596 11.4234 7.03363 11.2209Z" fill="#6B7280"/>
<path fill-rule="evenodd" clip-rule="evenodd" d="M8.00016 1.04785C7.52809 1.04785 7.09918 1.18306 6.63387 1.40934C6.18406 1.62808 5.66444 1.95058 5.0154 2.3534L3.63769 3.20845C3.02355 3.58959 2.53179 3.89479 2.15276 4.18506C1.76026 4.48565 1.45879 4.79178 1.24104 5.18961C1.02373 5.5866 0.925874 6.00901 0.878956 6.50832C0.833487 6.99221 0.833491 7.58393 0.833496 8.32601V9.40109C0.833487 10.6703 0.83348 11.6722 0.935298 12.4556C1.03974 13.2592 1.2592 13.9079 1.75507 14.4208C2.25322 14.9361 2.88713 15.1663 3.6719 15.2754C4.43249 15.3812 5.40387 15.3812 6.62806 15.3812H9.37223C10.5964 15.3812 11.5678 15.3812 12.3284 15.2754C13.1132 15.1663 13.7471 14.9361 14.2453 14.4208C14.7411 13.9079 14.9606 13.2592 15.065 12.4556C15.1668 11.6722 15.1668 10.6704 15.1668 9.40109V8.32599C15.1668 7.58394 15.1668 6.9922 15.1214 6.50832C15.0745 6.00901 14.9766 5.5866 14.7593 5.18961C14.5415 4.79178 14.2401 4.48565 13.8476 4.18506C13.4685 3.89479 12.9768 3.5896 12.3627 3.20846L10.9849 2.35339C10.3359 1.95058 9.81626 1.62808 9.36646 1.40934C8.90114 1.18306 8.47224 1.04785 8.00016 1.04785ZM5.51985 3.21726C6.19702 2.79699 6.67316 2.50221 7.07119 2.30865C7.45898 2.12007 7.73362 2.04785 8.00016 2.04785C8.26671 2.04785 8.54134 2.12007 8.92913 2.30865C9.32716 2.50221 9.8033 2.79699 10.4805 3.21726L11.8138 4.04477C12.4544 4.44231 12.9041 4.72208 13.2395 4.97898C13.5659 5.22895 13.7537 5.43522 13.8821 5.66975C14.0109 5.90511 14.0861 6.18029 14.1258 6.60187C14.1663 7.03358 14.1668 7.5784 14.1668 8.35046V9.36449C14.1668 10.6785 14.1658 11.6153 14.0734 12.3267C13.9826 13.0254 13.8115 13.4308 13.5263 13.7258C13.2434 14.0184 12.8583 14.1921 12.1907 14.285C11.5069 14.38 10.6052 14.3812 9.3335 14.3812H6.66683C5.39514 14.3812 4.49338 14.38 3.80964 14.285C3.14207 14.1921 2.75692 14.0184 2.47402 13.7258C2.18884 13.4308 2.01777 13.0254 1.92696 12.3267C1.83449 11.6153 1.8335 10.6785 1.8335 9.36449V8.35046C1.8335 7.5784 1.834 7.03358 1.87457 6.60187C1.91419 6.18029 1.98939 5.90511 2.11822 5.66975C2.2466 5.43522 2.43438 5.22895 2.76078 4.97898C3.09623 4.72208 3.54596 4.44231 4.18651 4.04477L5.51985 3.21726Z" fill="#6B7280"/>
</svg>
