<svg width="40" height="40" viewBox="0 0 40 40" fill="none" xmlns="http://www.w3.org/2000/svg">
<path d="M30.4632 4.34878C22.7798 4.49211 17.4276 0.609891 13.7254 0.679891C10.0232 0.749891 2.2854 3.02322 2.60429 20.0577C2.92318 37.0921 13.431 39.3955 17.5043 39.3199C36.5743 38.9632 44.0721 4.09434 30.4632 4.34878Z" fill="#EFEFEF"/>
<path d="M10.0049 3.78857L11.5762 2.21723L12.3619 3.0029L10.7906 4.57425L10.0049 3.78857Z" fill="#D1D5DB"/>
<path d="M5.48682 8.30444L7.05816 6.73309L7.84384 7.51877L6.27249 9.09012L5.48682 8.30444Z" fill="#D1D5DB"/>
<path d="M5.48682 2.80542L6.27249 2.01975L7.84384 3.59109L7.05816 4.37677L5.48682 2.80542Z" fill="#D1D5DB"/>
<path d="M33.3337 7.22225C32.4148 7.22225 31.667 6.47447 31.667 5.55558C31.667 4.63669 32.4148 3.88892 33.3337 3.88892C34.2525 3.88892 35.0003 4.63669 35.0003 5.55558C35.0003 6.47447 34.2525 7.22225 33.3337 7.22225ZM33.3337 5.00003C33.027 5.00003 32.7781 5.24892 32.7781 5.55558C32.7781 5.86225 33.027 6.11114 33.3337 6.11114C33.6403 6.11114 33.8892 5.86225 33.8892 5.55558C33.8892 5.24892 33.6403 5.00003 33.3337 5.00003Z" fill="#D1D5DB"/>
<path d="M15.8333 15.3678V8.55886C15.8333 7.94553 15.3355 7.44775 14.7222 7.44775H13.0555C12.4422 7.44775 11.9444 7.94553 11.9444 8.55886V15.3666C11.9444 15.6611 11.8277 15.9444 11.6188 16.1522L10.0477 17.7233C9.83883 17.9333 9.72217 18.2155 9.72217 18.51V31.3833C9.72217 31.9966 10.2199 32.4944 10.8333 32.4944H16.9444C17.5577 32.4944 18.0555 31.9966 18.0555 31.3833V18.51C18.0555 18.2155 17.9388 17.9322 17.7299 17.7244L16.1588 16.1533C15.9499 15.9444 15.8333 15.6622 15.8333 15.3678Z" fill="#F3F3F1"/>
<path d="M26.111 22.2166C23.8099 22.2166 21.9443 20.351 21.9443 18.0499V8.65213C21.9443 8.03879 22.4421 7.54102 23.0554 7.54102H29.1666C29.7799 7.54102 30.2777 8.03879 30.2777 8.65213V18.0499C30.2777 20.351 28.4121 22.2166 26.111 22.2166Z" fill="#F68B1F"/>
<path d="M12.2222 31.3833V18.51C12.2222 18.2155 12.3388 17.9322 12.5477 17.7244L14.1188 16.1533C14.3277 15.9444 14.4444 15.6622 14.4444 15.3678V8.55886C14.4444 8.09331 14.7322 7.69664 15.1388 7.5322C15.0099 7.47998 14.8699 7.44775 14.7222 7.44775H13.0555C12.4422 7.44775 11.9444 7.94553 11.9444 8.55886V15.3666C11.9444 15.6611 11.8277 15.9444 11.6188 16.1522L10.0477 17.7233C9.83883 17.9333 9.72217 18.2155 9.72217 18.51V31.3833C9.72217 31.9966 10.2199 32.4944 10.8333 32.4944H13.3333C12.7199 32.4944 12.2222 31.9966 12.2222 31.3833Z" fill="#D5DBE1"/>
<path d="M24.4443 18.0499V8.65213C24.4443 8.03879 24.9421 7.54102 25.5554 7.54102H23.0554C22.4421 7.54102 21.9443 8.03879 21.9443 8.65213V18.0499C21.9443 20.351 23.8099 22.2166 26.111 22.2166C26.5499 22.2166 26.9643 22.1299 27.361 22.0043C25.6743 21.471 24.4443 19.9121 24.4443 18.0499Z" fill="black" fill-opacity="0.1"/>
<path d="M16.9442 33.3278H10.8331C9.76089 33.3278 8.88867 32.4556 8.88867 31.3834V18.5101C8.88867 17.9912 9.09089 17.5023 9.45867 17.1356L11.0298 15.5634C11.0809 15.5112 11.1109 15.4401 11.1109 15.3678V8.55895C11.1109 7.48672 11.9831 6.6145 13.0553 6.6145H14.722C15.7942 6.6145 16.6665 7.48672 16.6665 8.55895V15.3667C16.6665 15.4401 16.6964 15.5112 16.7476 15.5634L18.3187 17.1356C18.6865 17.5023 18.8887 17.9912 18.8887 18.5101V31.3834C18.8887 32.4556 18.0164 33.3278 16.9442 33.3278ZM13.0553 8.28117C12.902 8.28117 12.7776 8.40561 12.7776 8.55895V15.3667C12.7776 15.8856 12.5753 16.3745 12.2076 16.7412L10.6364 18.3134C10.5853 18.3656 10.5553 18.4367 10.5553 18.5101V31.3834C10.5553 31.5367 10.6798 31.6612 10.8331 31.6612H16.9442C17.0976 31.6612 17.222 31.5367 17.222 31.3834V18.5101C17.222 18.4367 17.192 18.3656 17.1409 18.3134L15.5698 16.7412C15.202 16.3734 14.9998 15.8856 14.9998 15.3667V8.55895C14.9998 8.40561 14.8753 8.28117 14.722 8.28117H13.0553Z" fill="#111827"/>
<path d="M11.9443 10.5945H15.8332V12.2611H11.9443V10.5945Z" fill="#111827"/>
<path d="M26.1108 23.05C23.3542 23.05 21.1108 20.8067 21.1108 18.05V8.65221C21.1108 7.57999 21.9831 6.70776 23.0553 6.70776H29.1664C30.2386 6.70776 31.1108 7.57999 31.1108 8.65221V18.05C31.1108 20.8078 28.8675 23.05 26.1108 23.05ZM23.0553 8.37443C22.902 8.37443 22.7775 8.49887 22.7775 8.65221V18.05C22.7775 19.8878 24.2731 21.3833 26.1108 21.3833C27.9486 21.3833 29.4442 19.8878 29.4442 18.05V8.65221C29.4442 8.49887 29.3197 8.37443 29.1664 8.37443H23.0553Z" fill="#111827"/>
<path d="M25.2773 22.2168H26.944V32.4946H25.2773V22.2168Z" fill="#111827"/>
<path d="M21.9443 31.6611H30.2754V33.3278H21.9443V31.6611Z" fill="#111827"/>
<path d="M21.9443 12.7722H30.2777V14.4389H21.9443V12.7722Z" fill="#111827"/>
</svg>
