<svg width="21" height="20" viewBox="0 0 21 20" fill="none" xmlns="http://www.w3.org/2000/svg">
<path d="M5.5 6.45825C5.5 6.11307 5.77982 5.83325 6.125 5.83325H14.875C15.2202 5.83325 15.5 6.11307 15.5 6.45825C15.5 6.80343 15.2202 7.08325 14.875 7.08325H6.125C5.77982 7.08325 5.5 6.80343 5.5 6.45825Z" fill="#374151"/>
<path d="M5.5 9.99992C5.5 9.65474 5.77982 9.37492 6.125 9.37492H14.875C15.2202 9.37492 15.5 9.65474 15.5 9.99992C15.5 10.3451 15.2202 10.6249 14.875 10.6249H6.125C5.77982 10.6249 5.5 10.3451 5.5 9.99992Z" fill="#374151"/>
<path d="M6.125 12.9166C5.77982 12.9166 5.5 13.1964 5.5 13.5416C5.5 13.8868 5.77982 14.1666 6.125 14.1666H14.875C15.2202 14.1666 15.5 13.8868 15.5 13.5416C15.5 13.1964 15.2202 12.9166 14.875 12.9166H6.125Z" fill="#374151"/>
<path d="M5.5 6.45825C5.5 6.11307 5.77982 5.83325 6.125 5.83325H14.875C15.2202 5.83325 15.5 6.11307 15.5 6.45825C15.5 6.80343 15.2202 7.08325 14.875 7.08325H6.125C5.77982 7.08325 5.5 6.80343 5.5 6.45825Z" stroke="#374151"/>
<path d="M5.5 9.99992C5.5 9.65474 5.77982 9.37492 6.125 9.37492H14.875C15.2202 9.37492 15.5 9.65474 15.5 9.99992C15.5 10.3451 15.2202 10.6249 14.875 10.6249H6.125C5.77982 10.6249 5.5 10.3451 5.5 9.99992Z" stroke="#374151"/>
<path d="M6.125 12.9166C5.77982 12.9166 5.5 13.1964 5.5 13.5416C5.5 13.8868 5.77982 14.1666 6.125 14.1666H14.875C15.2202 14.1666 15.5 13.8868 15.5 13.5416C15.5 13.1964 15.2202 12.9166 14.875 12.9166H6.125Z" stroke="#374151"/>
</svg>
