<svg width="90" height="90" viewBox="0 0 90 90" fill="none" xmlns="http://www.w3.org/2000/svg">
<g clip-path="url(#clip0_9_234)">
<g filter="url(#filter0_d_9_234)">
<circle cx="45" cy="45" r="45" fill="#787878" fill-opacity="0.5"/>
</g>
<g clip-path="url(#clip1_9_234)">
<path d="M44.5404 41.0669L20.7172 28.7814C19.9924 28.4076 19.9852 27.3731 20.7055 26.9904C22.7934 25.8815 28.2265 23.1173 43.1328 15.4512C44.303 14.8496 45.6982 14.8496 46.8685 15.4512C61.9067 23.1851 67.3162 25.933 69.3786 27.0358C70.0981 27.4206 70.0884 28.4549 69.3621 28.8269L45.4647 41.0682C45.1744 41.2169 44.8303 41.2164 44.5404 41.0669V41.0669ZM46.0116 43.6779V73.9874C46.0116 74.7398 46.8041 75.229 47.4763 74.8908C49.4842 73.8807 54.8142 71.1203 69.8664 63.3791C71.2338 62.6765 72.083 61.2851 72.083 59.7483C72.083 40.1414 72.1097 33.6544 72.0739 31.3461C72.0623 30.5974 71.2685 30.122 70.6021 30.4634L46.5618 42.7779C46.2241 42.9511 46.0116 43.2985 46.0116 43.6779V43.6779ZM43.442 42.7755L19.405 30.3797C18.7392 30.0363 17.9452 30.5104 17.9308 31.2593C17.8869 33.5349 17.9184 39.9628 17.9184 59.7485C17.9184 61.2852 18.7676 62.6766 20.135 63.3792C35.1812 71.1172 40.5148 73.8789 42.5251 74.8902C43.1973 75.2284 43.9898 74.7392 43.9898 73.9867V43.6742C43.9896 43.2957 43.7783 42.949 43.442 42.7755V42.7755Z" fill="white"/>
</g>
</g>
<defs>
<filter id="filter0_d_9_234" x="-20" y="-5" width="130" height="130" filterUnits="userSpaceOnUse" color-interpolation-filters="sRGB">
<feFlood flood-opacity="0" result="BackgroundImageFix"/>
<feColorMatrix in="SourceAlpha" type="matrix" values="0 0 0 0 0 0 0 0 0 0 0 0 0 0 0 0 0 0 127 0" result="hardAlpha"/>
<feOffset dy="15"/>
<feGaussianBlur stdDeviation="10"/>
<feColorMatrix type="matrix" values="0 0 0 0 0 0 0 0 0 0 0 0 0 0 0 0 0 0 0.1 0"/>
<feBlend mode="normal" in2="BackgroundImageFix" result="effect1_dropShadow_9_234"/>
<feBlend mode="normal" in="SourceGraphic" in2="effect1_dropShadow_9_234" result="shape"/>
</filter>
<clipPath id="clip0_9_234">
<rect width="90" height="90" fill="white"/>
</clipPath>
<clipPath id="clip1_9_234">
<rect width="60" height="60" fill="white" transform="translate(15 15)"/>
</clipPath>
</defs>
</svg>
